M48
; DRILL file {KiCad 7.0.2-0} date 2024 July 03, Wednesday 10:32:30
; FORMAT={-:-/ absolute / inch / decimal}
; #@! TF.CreationDate,2024-07-03T10:32:30-07:00
; #@! TF.GenerationSoftware,Kicad,Pcbnew,7.0.2-0
; #@! TF.FileFunction,Plated,1,2,PTH
FMAT,2
INCH
; #@! TA.AperFunction,Plated,PTH,ViaDrill
T1C0.0157
; #@! TA.AperFunction,Plated,PTH,ComponentDrill
T2C0.0236
; #@! TA.AperFunction,Plated,PTH,ComponentDrill
T3C0.0335
; #@! TA.AperFunction,Plated,PTH,ComponentDrill
T4C0.0394
%
G90
G05
T1
X5.541Y-4.722
X5.546Y-4.398
X5.5537Y-3.9814
X5.5827Y-4.6217
X5.698Y-4.644
X5.8159Y-4.6187
X5.8354Y-3.9812
X5.8401Y-4.4564
X5.851Y-4.722
X5.868Y-3.955
T3
X5.5961Y-3.951
X5.793Y-3.951
T4
X5.4734Y-5.002
X5.496Y-4.268
X5.496Y-4.368
X5.496Y-4.468
X5.496Y-4.568
X5.496Y-4.668
X5.5734Y-5.002
X5.8182Y-5.002
X5.896Y-4.268
X5.896Y-4.368
X5.896Y-4.468
X5.896Y-4.568
X5.896Y-4.668
X5.9182Y-5.002
T2
G00X5.5568Y-3.8585
M15
G01X5.5568Y-3.8309
M16
G05
G00X5.8323Y-3.8309
M15
G01X5.8323Y-3.8585
M16
G05
T0
M30
