%TF.GenerationSoftware,KiCad,Pcbnew,7.0.2-0*%
%TF.CreationDate,2024-07-03T10:32:27-07:00*%
%TF.ProjectId,ft230x-breakout,66743233-3078-42d6-9272-65616b6f7574,1.0*%
%TF.SameCoordinates,Original*%
%TF.FileFunction,Legend,Top*%
%TF.FilePolarity,Positive*%
%FSLAX46Y46*%
G04 Gerber Fmt 4.6, Leading zero omitted, Abs format (unit mm)*
G04 Created by KiCad (PCBNEW 7.0.2-0) date 2024-07-03 10:32:27*
%MOMM*%
%LPD*%
G01*
G04 APERTURE LIST*
%ADD10C,0.100000*%
%ADD11C,0.150000*%
%ADD12C,0.120000*%
G04 APERTURE END LIST*
D10*
X136870785Y-113099278D02*
X137227928Y-112893921D01*
X136870785Y-112670707D02*
X137620785Y-112764457D01*
X137620785Y-112764457D02*
X137620785Y-113050171D01*
X137620785Y-113050171D02*
X137585071Y-113117135D01*
X137585071Y-113117135D02*
X137549357Y-113148385D01*
X137549357Y-113148385D02*
X137477928Y-113175171D01*
X137477928Y-113175171D02*
X137370785Y-113161778D01*
X137370785Y-113161778D02*
X137299357Y-113117135D01*
X137299357Y-113117135D02*
X137263642Y-113076957D01*
X137263642Y-113076957D02*
X137227928Y-113001064D01*
X137227928Y-113001064D02*
X137227928Y-112715350D01*
X137620785Y-113402850D02*
X137620785Y-113831421D01*
X136870785Y-113523386D02*
X137620785Y-113617136D01*
X136906500Y-113951957D02*
X136870785Y-114054635D01*
X136870785Y-114054635D02*
X136870785Y-114233207D01*
X136870785Y-114233207D02*
X136906500Y-114309100D01*
X136906500Y-114309100D02*
X136942214Y-114349278D01*
X136942214Y-114349278D02*
X137013642Y-114393921D01*
X137013642Y-114393921D02*
X137085071Y-114402850D01*
X137085071Y-114402850D02*
X137156500Y-114376064D01*
X137156500Y-114376064D02*
X137192214Y-114344814D01*
X137192214Y-114344814D02*
X137227928Y-114277850D01*
X137227928Y-114277850D02*
X137263642Y-114139457D01*
X137263642Y-114139457D02*
X137299357Y-114072492D01*
X137299357Y-114072492D02*
X137335071Y-114041242D01*
X137335071Y-114041242D02*
X137406500Y-114014457D01*
X137406500Y-114014457D02*
X137477928Y-114023385D01*
X137477928Y-114023385D02*
X137549357Y-114068028D01*
X137549357Y-114068028D02*
X137585071Y-114108207D01*
X137585071Y-114108207D02*
X137620785Y-114184100D01*
X137620785Y-114184100D02*
X137620785Y-114362671D01*
X137620785Y-114362671D02*
X137585071Y-114465350D01*
X137956500Y-112702850D02*
X137956500Y-114575171D01*
X152414585Y-113967792D02*
X152450300Y-114007971D01*
X152450300Y-114007971D02*
X152486014Y-114119578D01*
X152486014Y-114119578D02*
X152486014Y-114191007D01*
X152486014Y-114191007D02*
X152450300Y-114293685D01*
X152450300Y-114293685D02*
X152378871Y-114356185D01*
X152378871Y-114356185D02*
X152307442Y-114382971D01*
X152307442Y-114382971D02*
X152164585Y-114400828D01*
X152164585Y-114400828D02*
X152057442Y-114387435D01*
X152057442Y-114387435D02*
X151914585Y-114333864D01*
X151914585Y-114333864D02*
X151843157Y-114289221D01*
X151843157Y-114289221D02*
X151771728Y-114208864D01*
X151771728Y-114208864D02*
X151736014Y-114097257D01*
X151736014Y-114097257D02*
X151736014Y-114025828D01*
X151736014Y-114025828D02*
X151771728Y-113923150D01*
X151771728Y-113923150D02*
X151807442Y-113891900D01*
X152093157Y-113360649D02*
X152128871Y-113257971D01*
X152128871Y-113257971D02*
X152164585Y-113226721D01*
X152164585Y-113226721D02*
X152236014Y-113199935D01*
X152236014Y-113199935D02*
X152343157Y-113213328D01*
X152343157Y-113213328D02*
X152414585Y-113257971D01*
X152414585Y-113257971D02*
X152450300Y-113298149D01*
X152450300Y-113298149D02*
X152486014Y-113374042D01*
X152486014Y-113374042D02*
X152486014Y-113659756D01*
X152486014Y-113659756D02*
X151736014Y-113566006D01*
X151736014Y-113566006D02*
X151736014Y-113316006D01*
X151736014Y-113316006D02*
X151771728Y-113249042D01*
X151771728Y-113249042D02*
X151807442Y-113217792D01*
X151807442Y-113217792D02*
X151878871Y-113191006D01*
X151878871Y-113191006D02*
X151950300Y-113199935D01*
X151950300Y-113199935D02*
X152021728Y-113244578D01*
X152021728Y-113244578D02*
X152057442Y-113284756D01*
X152057442Y-113284756D02*
X152093157Y-113360649D01*
X152093157Y-113360649D02*
X152093157Y-113610649D01*
X151807442Y-112865113D02*
X151771728Y-112824935D01*
X151771728Y-112824935D02*
X151736014Y-112749042D01*
X151736014Y-112749042D02*
X151736014Y-112570470D01*
X151736014Y-112570470D02*
X151771728Y-112503506D01*
X151771728Y-112503506D02*
X151807442Y-112472256D01*
X151807442Y-112472256D02*
X151878871Y-112445470D01*
X151878871Y-112445470D02*
X151950300Y-112454399D01*
X151950300Y-112454399D02*
X152057442Y-112503506D01*
X152057442Y-112503506D02*
X152486014Y-112985649D01*
X152486014Y-112985649D02*
X152486014Y-112521363D01*
X152414585Y-116634792D02*
X152450300Y-116674971D01*
X152450300Y-116674971D02*
X152486014Y-116786578D01*
X152486014Y-116786578D02*
X152486014Y-116858007D01*
X152486014Y-116858007D02*
X152450300Y-116960685D01*
X152450300Y-116960685D02*
X152378871Y-117023185D01*
X152378871Y-117023185D02*
X152307442Y-117049971D01*
X152307442Y-117049971D02*
X152164585Y-117067828D01*
X152164585Y-117067828D02*
X152057442Y-117054435D01*
X152057442Y-117054435D02*
X151914585Y-117000864D01*
X151914585Y-117000864D02*
X151843157Y-116956221D01*
X151843157Y-116956221D02*
X151771728Y-116875864D01*
X151771728Y-116875864D02*
X151736014Y-116764257D01*
X151736014Y-116764257D02*
X151736014Y-116692828D01*
X151736014Y-116692828D02*
X151771728Y-116590150D01*
X151771728Y-116590150D02*
X151807442Y-116558900D01*
X152093157Y-116027649D02*
X152128871Y-115924971D01*
X152128871Y-115924971D02*
X152164585Y-115893721D01*
X152164585Y-115893721D02*
X152236014Y-115866935D01*
X152236014Y-115866935D02*
X152343157Y-115880328D01*
X152343157Y-115880328D02*
X152414585Y-115924971D01*
X152414585Y-115924971D02*
X152450300Y-115965149D01*
X152450300Y-115965149D02*
X152486014Y-116041042D01*
X152486014Y-116041042D02*
X152486014Y-116326756D01*
X152486014Y-116326756D02*
X151736014Y-116233006D01*
X151736014Y-116233006D02*
X151736014Y-115983006D01*
X151736014Y-115983006D02*
X151771728Y-115916042D01*
X151771728Y-115916042D02*
X151807442Y-115884792D01*
X151807442Y-115884792D02*
X151878871Y-115858006D01*
X151878871Y-115858006D02*
X151950300Y-115866935D01*
X151950300Y-115866935D02*
X152021728Y-115911578D01*
X152021728Y-115911578D02*
X152057442Y-115951756D01*
X152057442Y-115951756D02*
X152093157Y-116027649D01*
X152093157Y-116027649D02*
X152093157Y-116277649D01*
X151736014Y-115558899D02*
X151736014Y-115094613D01*
X151736014Y-115094613D02*
X152021728Y-115380328D01*
X152021728Y-115380328D02*
X152021728Y-115273185D01*
X152021728Y-115273185D02*
X152057442Y-115206220D01*
X152057442Y-115206220D02*
X152093157Y-115174970D01*
X152093157Y-115174970D02*
X152164585Y-115148185D01*
X152164585Y-115148185D02*
X152343157Y-115170506D01*
X152343157Y-115170506D02*
X152414585Y-115215149D01*
X152414585Y-115215149D02*
X152450300Y-115255328D01*
X152450300Y-115255328D02*
X152486014Y-115331220D01*
X152486014Y-115331220D02*
X152486014Y-115545506D01*
X152486014Y-115545506D02*
X152450300Y-115612470D01*
X152450300Y-115612470D02*
X152414585Y-115643720D01*
X152414585Y-111453192D02*
X152450300Y-111493371D01*
X152450300Y-111493371D02*
X152486014Y-111604978D01*
X152486014Y-111604978D02*
X152486014Y-111676407D01*
X152486014Y-111676407D02*
X152450300Y-111779085D01*
X152450300Y-111779085D02*
X152378871Y-111841585D01*
X152378871Y-111841585D02*
X152307442Y-111868371D01*
X152307442Y-111868371D02*
X152164585Y-111886228D01*
X152164585Y-111886228D02*
X152057442Y-111872835D01*
X152057442Y-111872835D02*
X151914585Y-111819264D01*
X151914585Y-111819264D02*
X151843157Y-111774621D01*
X151843157Y-111774621D02*
X151771728Y-111694264D01*
X151771728Y-111694264D02*
X151736014Y-111582657D01*
X151736014Y-111582657D02*
X151736014Y-111511228D01*
X151736014Y-111511228D02*
X151771728Y-111408550D01*
X151771728Y-111408550D02*
X151807442Y-111377300D01*
X152093157Y-110846049D02*
X152128871Y-110743371D01*
X152128871Y-110743371D02*
X152164585Y-110712121D01*
X152164585Y-110712121D02*
X152236014Y-110685335D01*
X152236014Y-110685335D02*
X152343157Y-110698728D01*
X152343157Y-110698728D02*
X152414585Y-110743371D01*
X152414585Y-110743371D02*
X152450300Y-110783549D01*
X152450300Y-110783549D02*
X152486014Y-110859442D01*
X152486014Y-110859442D02*
X152486014Y-111145156D01*
X152486014Y-111145156D02*
X151736014Y-111051406D01*
X151736014Y-111051406D02*
X151736014Y-110801406D01*
X151736014Y-110801406D02*
X151771728Y-110734442D01*
X151771728Y-110734442D02*
X151807442Y-110703192D01*
X151807442Y-110703192D02*
X151878871Y-110676406D01*
X151878871Y-110676406D02*
X151950300Y-110685335D01*
X151950300Y-110685335D02*
X152021728Y-110729978D01*
X152021728Y-110729978D02*
X152057442Y-110770156D01*
X152057442Y-110770156D02*
X152093157Y-110846049D01*
X152093157Y-110846049D02*
X152093157Y-111096049D01*
X152486014Y-110006763D02*
X152486014Y-110435335D01*
X152486014Y-110221049D02*
X151736014Y-110127299D01*
X151736014Y-110127299D02*
X151843157Y-110212120D01*
X151843157Y-110212120D02*
X151914585Y-110292478D01*
X151914585Y-110292478D02*
X151950300Y-110368370D01*
X151017014Y-103532960D02*
X150267014Y-103439210D01*
X150267014Y-103439210D02*
X150802728Y-103256175D01*
X150802728Y-103256175D02*
X150267014Y-102939210D01*
X150267014Y-102939210D02*
X151017014Y-103032960D01*
X151017014Y-102358853D02*
X150624157Y-102309746D01*
X150624157Y-102309746D02*
X150552728Y-102336531D01*
X150552728Y-102336531D02*
X150517014Y-102403496D01*
X150517014Y-102403496D02*
X150517014Y-102546353D01*
X150517014Y-102546353D02*
X150552728Y-102622246D01*
X150981300Y-102354389D02*
X151017014Y-102430281D01*
X151017014Y-102430281D02*
X151017014Y-102608853D01*
X151017014Y-102608853D02*
X150981300Y-102675817D01*
X150981300Y-102675817D02*
X150909871Y-102702603D01*
X150909871Y-102702603D02*
X150838442Y-102693674D01*
X150838442Y-102693674D02*
X150767014Y-102649031D01*
X150767014Y-102649031D02*
X150731300Y-102573139D01*
X150731300Y-102573139D02*
X150731300Y-102394567D01*
X150731300Y-102394567D02*
X150695585Y-102318674D01*
X151017014Y-101684746D02*
X150267014Y-101590996D01*
X150981300Y-101680282D02*
X151017014Y-101756174D01*
X151017014Y-101756174D02*
X151017014Y-101899032D01*
X151017014Y-101899032D02*
X150981300Y-101965996D01*
X150981300Y-101965996D02*
X150945585Y-101997246D01*
X150945585Y-101997246D02*
X150874157Y-102024032D01*
X150874157Y-102024032D02*
X150659871Y-101997246D01*
X150659871Y-101997246D02*
X150588442Y-101952603D01*
X150588442Y-101952603D02*
X150552728Y-101912424D01*
X150552728Y-101912424D02*
X150517014Y-101836532D01*
X150517014Y-101836532D02*
X150517014Y-101693674D01*
X150517014Y-101693674D02*
X150552728Y-101626710D01*
X150981300Y-101041889D02*
X151017014Y-101117782D01*
X151017014Y-101117782D02*
X151017014Y-101260639D01*
X151017014Y-101260639D02*
X150981300Y-101327603D01*
X150981300Y-101327603D02*
X150909871Y-101354389D01*
X150909871Y-101354389D02*
X150624157Y-101318675D01*
X150624157Y-101318675D02*
X150552728Y-101274032D01*
X150552728Y-101274032D02*
X150517014Y-101198139D01*
X150517014Y-101198139D02*
X150517014Y-101055282D01*
X150517014Y-101055282D02*
X150552728Y-100988317D01*
X150552728Y-100988317D02*
X150624157Y-100961532D01*
X150624157Y-100961532D02*
X150695585Y-100970460D01*
X150695585Y-100970460D02*
X150767014Y-101336532D01*
X151017014Y-100122245D02*
X150267014Y-100028495D01*
X150552728Y-100064210D02*
X150517014Y-99988317D01*
X150517014Y-99988317D02*
X150517014Y-99845460D01*
X150517014Y-99845460D02*
X150552728Y-99778495D01*
X150552728Y-99778495D02*
X150588442Y-99747245D01*
X150588442Y-99747245D02*
X150659871Y-99720460D01*
X150659871Y-99720460D02*
X150874157Y-99747245D01*
X150874157Y-99747245D02*
X150945585Y-99791888D01*
X150945585Y-99791888D02*
X150981300Y-99832067D01*
X150981300Y-99832067D02*
X151017014Y-99907960D01*
X151017014Y-99907960D02*
X151017014Y-100050817D01*
X151017014Y-100050817D02*
X150981300Y-100117781D01*
X150517014Y-99457067D02*
X151017014Y-99340996D01*
X150517014Y-99099924D02*
X151017014Y-99340996D01*
X151017014Y-99340996D02*
X151195585Y-99434746D01*
X151195585Y-99434746D02*
X151231300Y-99474924D01*
X151231300Y-99474924D02*
X151267014Y-99550817D01*
X151874871Y-103104389D02*
X151839157Y-103135639D01*
X151839157Y-103135639D02*
X151803442Y-103202603D01*
X151803442Y-103202603D02*
X151803442Y-103274032D01*
X151803442Y-103274032D02*
X151839157Y-103349925D01*
X151839157Y-103349925D02*
X151874871Y-103390103D01*
X151874871Y-103390103D02*
X151946300Y-103434746D01*
X151946300Y-103434746D02*
X152017728Y-103443675D01*
X152017728Y-103443675D02*
X152089157Y-103416889D01*
X152089157Y-103416889D02*
X152124871Y-103385639D01*
X152124871Y-103385639D02*
X152160585Y-103318675D01*
X152160585Y-103318675D02*
X152160585Y-103247246D01*
X152160585Y-103247246D02*
X152124871Y-103171353D01*
X152124871Y-103171353D02*
X152089157Y-103131175D01*
X151803442Y-103095460D02*
X152089157Y-103131175D01*
X152089157Y-103131175D02*
X152124871Y-103099925D01*
X152124871Y-103099925D02*
X152124871Y-103064210D01*
X152124871Y-103064210D02*
X152089157Y-102988317D01*
X152089157Y-102988317D02*
X152017728Y-102943675D01*
X152017728Y-102943675D02*
X151839157Y-102921353D01*
X151839157Y-102921353D02*
X151732014Y-102979389D01*
X151732014Y-102979389D02*
X151660585Y-103077603D01*
X151660585Y-103077603D02*
X151624871Y-103215996D01*
X151624871Y-103215996D02*
X151660585Y-103363317D01*
X151660585Y-103363317D02*
X151732014Y-103479389D01*
X151732014Y-103479389D02*
X151839157Y-103564210D01*
X151839157Y-103564210D02*
X151982014Y-103617782D01*
X151982014Y-103617782D02*
X152124871Y-103599925D01*
X152124871Y-103599925D02*
X152232014Y-103541889D01*
X152232014Y-103541889D02*
X152303442Y-103443675D01*
X152303442Y-103443675D02*
X152339157Y-103305282D01*
X152339157Y-103305282D02*
X152303442Y-103157960D01*
X152303442Y-103157960D02*
X152232014Y-103041889D01*
X151732014Y-102711531D02*
X151732014Y-102425817D01*
X151482014Y-102573138D02*
X152124871Y-102653496D01*
X152124871Y-102653496D02*
X152196300Y-102626710D01*
X152196300Y-102626710D02*
X152232014Y-102559746D01*
X152232014Y-102559746D02*
X152232014Y-102488317D01*
X152232014Y-102242781D02*
X151482014Y-102149031D01*
X152232014Y-101921353D02*
X151839157Y-101872246D01*
X151839157Y-101872246D02*
X151767728Y-101899031D01*
X151767728Y-101899031D02*
X151732014Y-101965996D01*
X151732014Y-101965996D02*
X151732014Y-102073139D01*
X151732014Y-102073139D02*
X151767728Y-102149031D01*
X151767728Y-102149031D02*
X151803442Y-102189210D01*
X152232014Y-101461532D02*
X152196300Y-101528496D01*
X152196300Y-101528496D02*
X152160585Y-101559746D01*
X152160585Y-101559746D02*
X152089157Y-101586532D01*
X152089157Y-101586532D02*
X151874871Y-101559746D01*
X151874871Y-101559746D02*
X151803442Y-101515103D01*
X151803442Y-101515103D02*
X151767728Y-101474924D01*
X151767728Y-101474924D02*
X151732014Y-101399032D01*
X151732014Y-101399032D02*
X151732014Y-101291889D01*
X151732014Y-101291889D02*
X151767728Y-101224924D01*
X151767728Y-101224924D02*
X151803442Y-101193674D01*
X151803442Y-101193674D02*
X151874871Y-101166889D01*
X151874871Y-101166889D02*
X152089157Y-101193674D01*
X152089157Y-101193674D02*
X152160585Y-101238317D01*
X152160585Y-101238317D02*
X152196300Y-101278496D01*
X152196300Y-101278496D02*
X152232014Y-101354389D01*
X152232014Y-101354389D02*
X152232014Y-101461532D01*
X152232014Y-100894567D02*
X151732014Y-100832067D01*
X151874871Y-100849925D02*
X151803442Y-100805282D01*
X151803442Y-100805282D02*
X151767728Y-100765103D01*
X151767728Y-100765103D02*
X151732014Y-100689210D01*
X151732014Y-100689210D02*
X151732014Y-100617782D01*
X151732014Y-100372246D02*
X152482014Y-100465996D01*
X151767728Y-100376711D02*
X151732014Y-100300818D01*
X151732014Y-100300818D02*
X151732014Y-100157961D01*
X151732014Y-100157961D02*
X151767728Y-100090996D01*
X151767728Y-100090996D02*
X151803442Y-100059746D01*
X151803442Y-100059746D02*
X151874871Y-100032961D01*
X151874871Y-100032961D02*
X152089157Y-100059746D01*
X152089157Y-100059746D02*
X152160585Y-100104389D01*
X152160585Y-100104389D02*
X152196300Y-100144568D01*
X152196300Y-100144568D02*
X152232014Y-100220461D01*
X152232014Y-100220461D02*
X152232014Y-100363318D01*
X152232014Y-100363318D02*
X152196300Y-100430282D01*
X152196300Y-99501711D02*
X152232014Y-99577604D01*
X152232014Y-99577604D02*
X152232014Y-99720461D01*
X152232014Y-99720461D02*
X152196300Y-99787425D01*
X152196300Y-99787425D02*
X152124871Y-99814211D01*
X152124871Y-99814211D02*
X151839157Y-99778497D01*
X151839157Y-99778497D02*
X151767728Y-99733854D01*
X151767728Y-99733854D02*
X151732014Y-99657961D01*
X151732014Y-99657961D02*
X151732014Y-99515104D01*
X151732014Y-99515104D02*
X151767728Y-99448139D01*
X151767728Y-99448139D02*
X151839157Y-99421354D01*
X151839157Y-99421354D02*
X151910585Y-99430282D01*
X151910585Y-99430282D02*
X151982014Y-99796354D01*
X151732014Y-99090996D02*
X152374871Y-99171354D01*
X152374871Y-99171354D02*
X152446300Y-99215996D01*
X152446300Y-99215996D02*
X152482014Y-99291889D01*
X152482014Y-99291889D02*
X152482014Y-99327604D01*
X151482014Y-99059746D02*
X151517728Y-99099925D01*
X151517728Y-99099925D02*
X151553442Y-99068675D01*
X151553442Y-99068675D02*
X151517728Y-99028496D01*
X151517728Y-99028496D02*
X151482014Y-99059746D01*
X151482014Y-99059746D02*
X151553442Y-99068675D01*
X136896185Y-110533878D02*
X137253328Y-110328521D01*
X136896185Y-110105307D02*
X137646185Y-110199057D01*
X137646185Y-110199057D02*
X137646185Y-110484771D01*
X137646185Y-110484771D02*
X137610471Y-110551735D01*
X137610471Y-110551735D02*
X137574757Y-110582985D01*
X137574757Y-110582985D02*
X137503328Y-110609771D01*
X137503328Y-110609771D02*
X137396185Y-110596378D01*
X137396185Y-110596378D02*
X137324757Y-110551735D01*
X137324757Y-110551735D02*
X137289042Y-110511557D01*
X137289042Y-110511557D02*
X137253328Y-110435664D01*
X137253328Y-110435664D02*
X137253328Y-110149950D01*
X137646185Y-110873164D02*
X136896185Y-111279414D01*
X137646185Y-111373164D02*
X136896185Y-110779414D01*
X136896185Y-111560664D02*
X137646185Y-111654414D01*
X137646185Y-111654414D02*
X137646185Y-111832985D01*
X137646185Y-111832985D02*
X137610471Y-111935664D01*
X137610471Y-111935664D02*
X137539042Y-111998164D01*
X137539042Y-111998164D02*
X137467614Y-112024949D01*
X137467614Y-112024949D02*
X137324757Y-112042807D01*
X137324757Y-112042807D02*
X137217614Y-112029414D01*
X137217614Y-112029414D02*
X137074757Y-111975842D01*
X137074757Y-111975842D02*
X137003328Y-111931199D01*
X137003328Y-111931199D02*
X136931900Y-111850842D01*
X136931900Y-111850842D02*
X136896185Y-111739235D01*
X136896185Y-111739235D02*
X136896185Y-111560664D01*
X137585071Y-118182050D02*
X137620785Y-118115085D01*
X137620785Y-118115085D02*
X137620785Y-118007942D01*
X137620785Y-118007942D02*
X137585071Y-117896335D01*
X137585071Y-117896335D02*
X137513642Y-117815978D01*
X137513642Y-117815978D02*
X137442214Y-117771335D01*
X137442214Y-117771335D02*
X137299357Y-117717764D01*
X137299357Y-117717764D02*
X137192214Y-117704371D01*
X137192214Y-117704371D02*
X137049357Y-117722228D01*
X137049357Y-117722228D02*
X136977928Y-117749014D01*
X136977928Y-117749014D02*
X136906500Y-117811514D01*
X136906500Y-117811514D02*
X136870785Y-117914192D01*
X136870785Y-117914192D02*
X136870785Y-117985621D01*
X136870785Y-117985621D02*
X136906500Y-118097228D01*
X136906500Y-118097228D02*
X136942214Y-118137407D01*
X136942214Y-118137407D02*
X137192214Y-118168657D01*
X137192214Y-118168657D02*
X137192214Y-118025800D01*
X136870785Y-118445443D02*
X137620785Y-118539193D01*
X137620785Y-118539193D02*
X136870785Y-118874014D01*
X136870785Y-118874014D02*
X137620785Y-118967764D01*
X136870785Y-119226693D02*
X137620785Y-119320443D01*
X137620785Y-119320443D02*
X137620785Y-119499014D01*
X137620785Y-119499014D02*
X137585071Y-119601693D01*
X137585071Y-119601693D02*
X137513642Y-119664193D01*
X137513642Y-119664193D02*
X137442214Y-119690978D01*
X137442214Y-119690978D02*
X137299357Y-119708836D01*
X137299357Y-119708836D02*
X137192214Y-119695443D01*
X137192214Y-119695443D02*
X137049357Y-119641871D01*
X137049357Y-119641871D02*
X136977928Y-119597228D01*
X136977928Y-119597228D02*
X136906500Y-119516871D01*
X136906500Y-119516871D02*
X136870785Y-119405264D01*
X136870785Y-119405264D02*
X136870785Y-119226693D01*
X137646185Y-107424914D02*
X137646185Y-107853485D01*
X136896185Y-107545450D02*
X137646185Y-107639200D01*
X137646185Y-108027592D02*
X136896185Y-108433842D01*
X137646185Y-108527592D02*
X136896185Y-107933842D01*
X136896185Y-108715092D02*
X137646185Y-108808842D01*
X137646185Y-108808842D02*
X137646185Y-108987413D01*
X137646185Y-108987413D02*
X137610471Y-109090092D01*
X137610471Y-109090092D02*
X137539042Y-109152592D01*
X137539042Y-109152592D02*
X137467614Y-109179377D01*
X137467614Y-109179377D02*
X137324757Y-109197235D01*
X137324757Y-109197235D02*
X137217614Y-109183842D01*
X137217614Y-109183842D02*
X137074757Y-109130270D01*
X137074757Y-109130270D02*
X137003328Y-109085627D01*
X137003328Y-109085627D02*
X136931900Y-109005270D01*
X136931900Y-109005270D02*
X136896185Y-108893663D01*
X136896185Y-108893663D02*
X136896185Y-108715092D01*
X151771728Y-119231750D02*
X151736014Y-119298714D01*
X151736014Y-119298714D02*
X151736014Y-119405857D01*
X151736014Y-119405857D02*
X151771728Y-119517464D01*
X151771728Y-119517464D02*
X151843157Y-119597821D01*
X151843157Y-119597821D02*
X151914585Y-119642464D01*
X151914585Y-119642464D02*
X152057442Y-119696035D01*
X152057442Y-119696035D02*
X152164585Y-119709428D01*
X152164585Y-119709428D02*
X152307442Y-119691571D01*
X152307442Y-119691571D02*
X152378871Y-119664785D01*
X152378871Y-119664785D02*
X152450300Y-119602285D01*
X152450300Y-119602285D02*
X152486014Y-119499607D01*
X152486014Y-119499607D02*
X152486014Y-119428178D01*
X152486014Y-119428178D02*
X152450300Y-119316571D01*
X152450300Y-119316571D02*
X152414585Y-119276392D01*
X152414585Y-119276392D02*
X152164585Y-119245142D01*
X152164585Y-119245142D02*
X152164585Y-119388000D01*
X152486014Y-118968356D02*
X151736014Y-118874606D01*
X151736014Y-118874606D02*
X152486014Y-118539785D01*
X152486014Y-118539785D02*
X151736014Y-118446035D01*
X152486014Y-118187106D02*
X151736014Y-118093356D01*
X151736014Y-118093356D02*
X151736014Y-117914785D01*
X151736014Y-117914785D02*
X151771728Y-117812106D01*
X151771728Y-117812106D02*
X151843157Y-117749606D01*
X151843157Y-117749606D02*
X151914585Y-117722821D01*
X151914585Y-117722821D02*
X152057442Y-117704964D01*
X152057442Y-117704964D02*
X152164585Y-117718356D01*
X152164585Y-117718356D02*
X152307442Y-117771928D01*
X152307442Y-117771928D02*
X152378871Y-117816571D01*
X152378871Y-117816571D02*
X152450300Y-117896928D01*
X152450300Y-117896928D02*
X152486014Y-118008535D01*
X152486014Y-118008535D02*
X152486014Y-118187106D01*
X138173842Y-97344151D02*
X138173842Y-97094151D01*
X137780985Y-97045044D02*
X138530985Y-97138794D01*
X138530985Y-97138794D02*
X138530985Y-97495937D01*
X138530985Y-97670044D02*
X138530985Y-98098615D01*
X137780985Y-97790580D02*
X138530985Y-97884330D01*
X138459557Y-98299508D02*
X138495271Y-98339686D01*
X138495271Y-98339686D02*
X138530985Y-98415579D01*
X138530985Y-98415579D02*
X138530985Y-98594151D01*
X138530985Y-98594151D02*
X138495271Y-98661115D01*
X138495271Y-98661115D02*
X138459557Y-98692365D01*
X138459557Y-98692365D02*
X138388128Y-98719151D01*
X138388128Y-98719151D02*
X138316700Y-98710222D01*
X138316700Y-98710222D02*
X138209557Y-98661115D01*
X138209557Y-98661115D02*
X137780985Y-98178972D01*
X137780985Y-98178972D02*
X137780985Y-98643258D01*
X138530985Y-98982543D02*
X138530985Y-99446829D01*
X138530985Y-99446829D02*
X138245271Y-99161115D01*
X138245271Y-99161115D02*
X138245271Y-99268257D01*
X138245271Y-99268257D02*
X138209557Y-99335222D01*
X138209557Y-99335222D02*
X138173842Y-99366472D01*
X138173842Y-99366472D02*
X138102414Y-99393257D01*
X138102414Y-99393257D02*
X137923842Y-99370936D01*
X137923842Y-99370936D02*
X137852414Y-99326293D01*
X137852414Y-99326293D02*
X137816700Y-99286115D01*
X137816700Y-99286115D02*
X137780985Y-99210222D01*
X137780985Y-99210222D02*
X137780985Y-98995936D01*
X137780985Y-98995936D02*
X137816700Y-98928972D01*
X137816700Y-98928972D02*
X137852414Y-98897722D01*
X138530985Y-99906650D02*
X138530985Y-99978078D01*
X138530985Y-99978078D02*
X138495271Y-100045043D01*
X138495271Y-100045043D02*
X138459557Y-100076293D01*
X138459557Y-100076293D02*
X138388128Y-100103078D01*
X138388128Y-100103078D02*
X138245271Y-100120936D01*
X138245271Y-100120936D02*
X138066700Y-100098614D01*
X138066700Y-100098614D02*
X137923842Y-100045043D01*
X137923842Y-100045043D02*
X137852414Y-100000400D01*
X137852414Y-100000400D02*
X137816700Y-99960221D01*
X137816700Y-99960221D02*
X137780985Y-99884328D01*
X137780985Y-99884328D02*
X137780985Y-99812900D01*
X137780985Y-99812900D02*
X137816700Y-99745936D01*
X137816700Y-99745936D02*
X137852414Y-99714686D01*
X137852414Y-99714686D02*
X137923842Y-99687900D01*
X137923842Y-99687900D02*
X138066700Y-99670043D01*
X138066700Y-99670043D02*
X138245271Y-99692364D01*
X138245271Y-99692364D02*
X138388128Y-99745936D01*
X138388128Y-99745936D02*
X138459557Y-99790578D01*
X138459557Y-99790578D02*
X138495271Y-99830757D01*
X138495271Y-99830757D02*
X138530985Y-99906650D01*
X138530985Y-100402185D02*
X137780985Y-100808435D01*
X138530985Y-100902185D02*
X137780985Y-100308435D01*
X138173842Y-101960221D02*
X138138128Y-102062899D01*
X138138128Y-102062899D02*
X138102414Y-102094149D01*
X138102414Y-102094149D02*
X138030985Y-102120935D01*
X138030985Y-102120935D02*
X137923842Y-102107542D01*
X137923842Y-102107542D02*
X137852414Y-102062899D01*
X137852414Y-102062899D02*
X137816700Y-102022721D01*
X137816700Y-102022721D02*
X137780985Y-101946828D01*
X137780985Y-101946828D02*
X137780985Y-101661114D01*
X137780985Y-101661114D02*
X138530985Y-101754864D01*
X138530985Y-101754864D02*
X138530985Y-102004864D01*
X138530985Y-102004864D02*
X138495271Y-102071828D01*
X138495271Y-102071828D02*
X138459557Y-102103078D01*
X138459557Y-102103078D02*
X138388128Y-102129864D01*
X138388128Y-102129864D02*
X138316700Y-102120935D01*
X138316700Y-102120935D02*
X138245271Y-102076292D01*
X138245271Y-102076292D02*
X138209557Y-102036114D01*
X138209557Y-102036114D02*
X138173842Y-101960221D01*
X138173842Y-101960221D02*
X138173842Y-101710221D01*
X137780985Y-102406650D02*
X138280985Y-102469150D01*
X138138128Y-102451293D02*
X138209557Y-102495935D01*
X138209557Y-102495935D02*
X138245271Y-102536114D01*
X138245271Y-102536114D02*
X138280985Y-102612007D01*
X138280985Y-102612007D02*
X138280985Y-102683435D01*
X137816700Y-103156649D02*
X137780985Y-103080756D01*
X137780985Y-103080756D02*
X137780985Y-102937899D01*
X137780985Y-102937899D02*
X137816700Y-102870935D01*
X137816700Y-102870935D02*
X137888128Y-102844149D01*
X137888128Y-102844149D02*
X138173842Y-102879864D01*
X138173842Y-102879864D02*
X138245271Y-102924506D01*
X138245271Y-102924506D02*
X138280985Y-103000399D01*
X138280985Y-103000399D02*
X138280985Y-103143256D01*
X138280985Y-103143256D02*
X138245271Y-103210221D01*
X138245271Y-103210221D02*
X138173842Y-103237006D01*
X138173842Y-103237006D02*
X138102414Y-103228078D01*
X138102414Y-103228078D02*
X138030985Y-102862006D01*
X137780985Y-103826292D02*
X138173842Y-103875399D01*
X138173842Y-103875399D02*
X138245271Y-103848614D01*
X138245271Y-103848614D02*
X138280985Y-103781649D01*
X138280985Y-103781649D02*
X138280985Y-103638792D01*
X138280985Y-103638792D02*
X138245271Y-103562899D01*
X137816700Y-103830757D02*
X137780985Y-103754864D01*
X137780985Y-103754864D02*
X137780985Y-103576292D01*
X137780985Y-103576292D02*
X137816700Y-103509328D01*
X137816700Y-103509328D02*
X137888128Y-103482542D01*
X137888128Y-103482542D02*
X137959557Y-103491471D01*
X137959557Y-103491471D02*
X138030985Y-103536114D01*
X138030985Y-103536114D02*
X138066700Y-103612007D01*
X138066700Y-103612007D02*
X138066700Y-103790578D01*
X138066700Y-103790578D02*
X138102414Y-103866471D01*
X137780985Y-104178971D02*
X138530985Y-104272721D01*
X138066700Y-104286114D02*
X137780985Y-104464685D01*
X138280985Y-104527185D02*
X137995271Y-104205756D01*
X137780985Y-104888793D02*
X137816700Y-104821828D01*
X137816700Y-104821828D02*
X137852414Y-104790578D01*
X137852414Y-104790578D02*
X137923842Y-104763793D01*
X137923842Y-104763793D02*
X138138128Y-104790578D01*
X138138128Y-104790578D02*
X138209557Y-104835221D01*
X138209557Y-104835221D02*
X138245271Y-104875400D01*
X138245271Y-104875400D02*
X138280985Y-104951293D01*
X138280985Y-104951293D02*
X138280985Y-105058435D01*
X138280985Y-105058435D02*
X138245271Y-105125400D01*
X138245271Y-105125400D02*
X138209557Y-105156650D01*
X138209557Y-105156650D02*
X138138128Y-105183435D01*
X138138128Y-105183435D02*
X137923842Y-105156650D01*
X137923842Y-105156650D02*
X137852414Y-105112007D01*
X137852414Y-105112007D02*
X137816700Y-105071828D01*
X137816700Y-105071828D02*
X137780985Y-104995935D01*
X137780985Y-104995935D02*
X137780985Y-104888793D01*
X138280985Y-105839685D02*
X137780985Y-105777185D01*
X138280985Y-105518257D02*
X137888128Y-105469150D01*
X137888128Y-105469150D02*
X137816700Y-105495935D01*
X137816700Y-105495935D02*
X137780985Y-105562900D01*
X137780985Y-105562900D02*
X137780985Y-105670042D01*
X137780985Y-105670042D02*
X137816700Y-105745935D01*
X137816700Y-105745935D02*
X137852414Y-105786114D01*
X138280985Y-106085221D02*
X138280985Y-106370935D01*
X138530985Y-106223614D02*
X137888128Y-106143257D01*
X137888128Y-106143257D02*
X137816700Y-106170042D01*
X137816700Y-106170042D02*
X137780985Y-106237007D01*
X137780985Y-106237007D02*
X137780985Y-106308435D01*
X136565985Y-100080757D02*
X136923128Y-99875400D01*
X136565985Y-99652186D02*
X137315985Y-99745936D01*
X137315985Y-99745936D02*
X137315985Y-100031650D01*
X137315985Y-100031650D02*
X137280271Y-100098614D01*
X137280271Y-100098614D02*
X137244557Y-100129864D01*
X137244557Y-100129864D02*
X137173128Y-100156650D01*
X137173128Y-100156650D02*
X137065985Y-100143257D01*
X137065985Y-100143257D02*
X136994557Y-100098614D01*
X136994557Y-100098614D02*
X136958842Y-100058436D01*
X136958842Y-100058436D02*
X136923128Y-99982543D01*
X136923128Y-99982543D02*
X136923128Y-99696829D01*
X136601700Y-100687900D02*
X136565985Y-100612007D01*
X136565985Y-100612007D02*
X136565985Y-100469150D01*
X136565985Y-100469150D02*
X136601700Y-100402186D01*
X136601700Y-100402186D02*
X136673128Y-100375400D01*
X136673128Y-100375400D02*
X136958842Y-100411115D01*
X136958842Y-100411115D02*
X137030271Y-100455757D01*
X137030271Y-100455757D02*
X137065985Y-100531650D01*
X137065985Y-100531650D02*
X137065985Y-100674507D01*
X137065985Y-100674507D02*
X137030271Y-100741472D01*
X137030271Y-100741472D02*
X136958842Y-100768257D01*
X136958842Y-100768257D02*
X136887414Y-100759329D01*
X136887414Y-100759329D02*
X136815985Y-100393257D01*
X137065985Y-101027186D02*
X136565985Y-101143258D01*
X136565985Y-101143258D02*
X137065985Y-101384329D01*
X136565985Y-102567365D02*
X136565985Y-102138793D01*
X136565985Y-102353079D02*
X137315985Y-102446829D01*
X137315985Y-102446829D02*
X137208842Y-102362008D01*
X137208842Y-102362008D02*
X137137414Y-102281651D01*
X137137414Y-102281651D02*
X137101700Y-102205758D01*
X136637414Y-102893257D02*
X136601700Y-102924507D01*
X136601700Y-102924507D02*
X136565985Y-102884329D01*
X136565985Y-102884329D02*
X136601700Y-102853079D01*
X136601700Y-102853079D02*
X136637414Y-102893257D01*
X136637414Y-102893257D02*
X136565985Y-102884329D01*
X137315985Y-103473615D02*
X137315985Y-103545043D01*
X137315985Y-103545043D02*
X137280271Y-103612008D01*
X137280271Y-103612008D02*
X137244557Y-103643258D01*
X137244557Y-103643258D02*
X137173128Y-103670043D01*
X137173128Y-103670043D02*
X137030271Y-103687901D01*
X137030271Y-103687901D02*
X136851700Y-103665579D01*
X136851700Y-103665579D02*
X136708842Y-103612008D01*
X136708842Y-103612008D02*
X136637414Y-103567365D01*
X136637414Y-103567365D02*
X136601700Y-103527186D01*
X136601700Y-103527186D02*
X136565985Y-103451293D01*
X136565985Y-103451293D02*
X136565985Y-103379865D01*
X136565985Y-103379865D02*
X136601700Y-103312901D01*
X136601700Y-103312901D02*
X136637414Y-103281651D01*
X136637414Y-103281651D02*
X136708842Y-103254865D01*
X136708842Y-103254865D02*
X136851700Y-103237008D01*
X136851700Y-103237008D02*
X137030271Y-103259329D01*
X137030271Y-103259329D02*
X137173128Y-103312901D01*
X137173128Y-103312901D02*
X137244557Y-103357543D01*
X137244557Y-103357543D02*
X137280271Y-103397722D01*
X137280271Y-103397722D02*
X137315985Y-103473615D01*
X152414585Y-108887792D02*
X152450300Y-108927971D01*
X152450300Y-108927971D02*
X152486014Y-109039578D01*
X152486014Y-109039578D02*
X152486014Y-109111007D01*
X152486014Y-109111007D02*
X152450300Y-109213685D01*
X152450300Y-109213685D02*
X152378871Y-109276185D01*
X152378871Y-109276185D02*
X152307442Y-109302971D01*
X152307442Y-109302971D02*
X152164585Y-109320828D01*
X152164585Y-109320828D02*
X152057442Y-109307435D01*
X152057442Y-109307435D02*
X151914585Y-109253864D01*
X151914585Y-109253864D02*
X151843157Y-109209221D01*
X151843157Y-109209221D02*
X151771728Y-109128864D01*
X151771728Y-109128864D02*
X151736014Y-109017257D01*
X151736014Y-109017257D02*
X151736014Y-108945828D01*
X151736014Y-108945828D02*
X151771728Y-108843150D01*
X151771728Y-108843150D02*
X151807442Y-108811900D01*
X152093157Y-108280649D02*
X152128871Y-108177971D01*
X152128871Y-108177971D02*
X152164585Y-108146721D01*
X152164585Y-108146721D02*
X152236014Y-108119935D01*
X152236014Y-108119935D02*
X152343157Y-108133328D01*
X152343157Y-108133328D02*
X152414585Y-108177971D01*
X152414585Y-108177971D02*
X152450300Y-108218149D01*
X152450300Y-108218149D02*
X152486014Y-108294042D01*
X152486014Y-108294042D02*
X152486014Y-108579756D01*
X152486014Y-108579756D02*
X151736014Y-108486006D01*
X151736014Y-108486006D02*
X151736014Y-108236006D01*
X151736014Y-108236006D02*
X151771728Y-108169042D01*
X151771728Y-108169042D02*
X151807442Y-108137792D01*
X151807442Y-108137792D02*
X151878871Y-108111006D01*
X151878871Y-108111006D02*
X151950300Y-108119935D01*
X151950300Y-108119935D02*
X152021728Y-108164578D01*
X152021728Y-108164578D02*
X152057442Y-108204756D01*
X152057442Y-108204756D02*
X152093157Y-108280649D01*
X152093157Y-108280649D02*
X152093157Y-108530649D01*
X151736014Y-107597613D02*
X151736014Y-107526185D01*
X151736014Y-107526185D02*
X151771728Y-107459220D01*
X151771728Y-107459220D02*
X151807442Y-107427970D01*
X151807442Y-107427970D02*
X151878871Y-107401185D01*
X151878871Y-107401185D02*
X152021728Y-107383328D01*
X152021728Y-107383328D02*
X152200300Y-107405649D01*
X152200300Y-107405649D02*
X152343157Y-107459220D01*
X152343157Y-107459220D02*
X152414585Y-107503863D01*
X152414585Y-107503863D02*
X152450300Y-107544042D01*
X152450300Y-107544042D02*
X152486014Y-107619935D01*
X152486014Y-107619935D02*
X152486014Y-107691363D01*
X152486014Y-107691363D02*
X152450300Y-107758328D01*
X152450300Y-107758328D02*
X152414585Y-107789578D01*
X152414585Y-107789578D02*
X152343157Y-107816363D01*
X152343157Y-107816363D02*
X152200300Y-107834220D01*
X152200300Y-107834220D02*
X152021728Y-107811899D01*
X152021728Y-107811899D02*
X151878871Y-107758328D01*
X151878871Y-107758328D02*
X151807442Y-107713685D01*
X151807442Y-107713685D02*
X151771728Y-107673506D01*
X151771728Y-107673506D02*
X151736014Y-107597613D01*
X136942214Y-115572007D02*
X136906500Y-115531828D01*
X136906500Y-115531828D02*
X136870785Y-115420221D01*
X136870785Y-115420221D02*
X136870785Y-115348792D01*
X136870785Y-115348792D02*
X136906500Y-115246114D01*
X136906500Y-115246114D02*
X136977928Y-115183614D01*
X136977928Y-115183614D02*
X137049357Y-115156828D01*
X137049357Y-115156828D02*
X137192214Y-115138971D01*
X137192214Y-115138971D02*
X137299357Y-115152364D01*
X137299357Y-115152364D02*
X137442214Y-115205935D01*
X137442214Y-115205935D02*
X137513642Y-115250578D01*
X137513642Y-115250578D02*
X137585071Y-115330935D01*
X137585071Y-115330935D02*
X137620785Y-115442542D01*
X137620785Y-115442542D02*
X137620785Y-115513971D01*
X137620785Y-115513971D02*
X137585071Y-115616650D01*
X137585071Y-115616650D02*
X137549357Y-115647900D01*
X137620785Y-115866650D02*
X137620785Y-116295221D01*
X136870785Y-115987186D02*
X137620785Y-116080936D01*
X136906500Y-116415757D02*
X136870785Y-116518435D01*
X136870785Y-116518435D02*
X136870785Y-116697007D01*
X136870785Y-116697007D02*
X136906500Y-116772900D01*
X136906500Y-116772900D02*
X136942214Y-116813078D01*
X136942214Y-116813078D02*
X137013642Y-116857721D01*
X137013642Y-116857721D02*
X137085071Y-116866650D01*
X137085071Y-116866650D02*
X137156500Y-116839864D01*
X137156500Y-116839864D02*
X137192214Y-116808614D01*
X137192214Y-116808614D02*
X137227928Y-116741650D01*
X137227928Y-116741650D02*
X137263642Y-116603257D01*
X137263642Y-116603257D02*
X137299357Y-116536292D01*
X137299357Y-116536292D02*
X137335071Y-116505042D01*
X137335071Y-116505042D02*
X137406500Y-116478257D01*
X137406500Y-116478257D02*
X137477928Y-116487185D01*
X137477928Y-116487185D02*
X137549357Y-116531828D01*
X137549357Y-116531828D02*
X137585071Y-116572007D01*
X137585071Y-116572007D02*
X137620785Y-116647900D01*
X137620785Y-116647900D02*
X137620785Y-116826471D01*
X137620785Y-116826471D02*
X137585071Y-116929150D01*
X137956500Y-115166650D02*
X137956500Y-117038971D01*
%TO.C,R103*%
X139165513Y-124857764D02*
X138915513Y-124500621D01*
X138736942Y-124857764D02*
X138736942Y-124107764D01*
X138736942Y-124107764D02*
X139022656Y-124107764D01*
X139022656Y-124107764D02*
X139094085Y-124143478D01*
X139094085Y-124143478D02*
X139129799Y-124179192D01*
X139129799Y-124179192D02*
X139165513Y-124250621D01*
X139165513Y-124250621D02*
X139165513Y-124357764D01*
X139165513Y-124357764D02*
X139129799Y-124429192D01*
X139129799Y-124429192D02*
X139094085Y-124464907D01*
X139094085Y-124464907D02*
X139022656Y-124500621D01*
X139022656Y-124500621D02*
X138736942Y-124500621D01*
X139879799Y-124857764D02*
X139451228Y-124857764D01*
X139665513Y-124857764D02*
X139665513Y-124107764D01*
X139665513Y-124107764D02*
X139594085Y-124214907D01*
X139594085Y-124214907D02*
X139522656Y-124286335D01*
X139522656Y-124286335D02*
X139451228Y-124322050D01*
X140344085Y-124107764D02*
X140415514Y-124107764D01*
X140415514Y-124107764D02*
X140486942Y-124143478D01*
X140486942Y-124143478D02*
X140522657Y-124179192D01*
X140522657Y-124179192D02*
X140558371Y-124250621D01*
X140558371Y-124250621D02*
X140594085Y-124393478D01*
X140594085Y-124393478D02*
X140594085Y-124572050D01*
X140594085Y-124572050D02*
X140558371Y-124714907D01*
X140558371Y-124714907D02*
X140522657Y-124786335D01*
X140522657Y-124786335D02*
X140486942Y-124822050D01*
X140486942Y-124822050D02*
X140415514Y-124857764D01*
X140415514Y-124857764D02*
X140344085Y-124857764D01*
X140344085Y-124857764D02*
X140272657Y-124822050D01*
X140272657Y-124822050D02*
X140236942Y-124786335D01*
X140236942Y-124786335D02*
X140201228Y-124714907D01*
X140201228Y-124714907D02*
X140165514Y-124572050D01*
X140165514Y-124572050D02*
X140165514Y-124393478D01*
X140165514Y-124393478D02*
X140201228Y-124250621D01*
X140201228Y-124250621D02*
X140236942Y-124179192D01*
X140236942Y-124179192D02*
X140272657Y-124143478D01*
X140272657Y-124143478D02*
X140344085Y-124107764D01*
X140844085Y-124107764D02*
X141308371Y-124107764D01*
X141308371Y-124107764D02*
X141058371Y-124393478D01*
X141058371Y-124393478D02*
X141165514Y-124393478D01*
X141165514Y-124393478D02*
X141236943Y-124429192D01*
X141236943Y-124429192D02*
X141272657Y-124464907D01*
X141272657Y-124464907D02*
X141308371Y-124536335D01*
X141308371Y-124536335D02*
X141308371Y-124714907D01*
X141308371Y-124714907D02*
X141272657Y-124786335D01*
X141272657Y-124786335D02*
X141236943Y-124822050D01*
X141236943Y-124822050D02*
X141165514Y-124857764D01*
X141165514Y-124857764D02*
X140951228Y-124857764D01*
X140951228Y-124857764D02*
X140879800Y-124822050D01*
X140879800Y-124822050D02*
X140844085Y-124786335D01*
%TO.C,JP101*%
X143490464Y-128390085D02*
X144026178Y-128390085D01*
X144026178Y-128390085D02*
X144133321Y-128425800D01*
X144133321Y-128425800D02*
X144204750Y-128497228D01*
X144204750Y-128497228D02*
X144240464Y-128604371D01*
X144240464Y-128604371D02*
X144240464Y-128675800D01*
X144240464Y-128032942D02*
X143490464Y-128032942D01*
X143490464Y-128032942D02*
X143490464Y-127747228D01*
X143490464Y-127747228D02*
X143526178Y-127675799D01*
X143526178Y-127675799D02*
X143561892Y-127640085D01*
X143561892Y-127640085D02*
X143633321Y-127604371D01*
X143633321Y-127604371D02*
X143740464Y-127604371D01*
X143740464Y-127604371D02*
X143811892Y-127640085D01*
X143811892Y-127640085D02*
X143847607Y-127675799D01*
X143847607Y-127675799D02*
X143883321Y-127747228D01*
X143883321Y-127747228D02*
X143883321Y-128032942D01*
X144240464Y-126890085D02*
X144240464Y-127318656D01*
X144240464Y-127104371D02*
X143490464Y-127104371D01*
X143490464Y-127104371D02*
X143597607Y-127175799D01*
X143597607Y-127175799D02*
X143669035Y-127247228D01*
X143669035Y-127247228D02*
X143704750Y-127318656D01*
X143490464Y-126425799D02*
X143490464Y-126354370D01*
X143490464Y-126354370D02*
X143526178Y-126282942D01*
X143526178Y-126282942D02*
X143561892Y-126247228D01*
X143561892Y-126247228D02*
X143633321Y-126211513D01*
X143633321Y-126211513D02*
X143776178Y-126175799D01*
X143776178Y-126175799D02*
X143954750Y-126175799D01*
X143954750Y-126175799D02*
X144097607Y-126211513D01*
X144097607Y-126211513D02*
X144169035Y-126247228D01*
X144169035Y-126247228D02*
X144204750Y-126282942D01*
X144204750Y-126282942D02*
X144240464Y-126354370D01*
X144240464Y-126354370D02*
X144240464Y-126425799D01*
X144240464Y-126425799D02*
X144204750Y-126497228D01*
X144204750Y-126497228D02*
X144169035Y-126532942D01*
X144169035Y-126532942D02*
X144097607Y-126568656D01*
X144097607Y-126568656D02*
X143954750Y-126604370D01*
X143954750Y-126604370D02*
X143776178Y-126604370D01*
X143776178Y-126604370D02*
X143633321Y-126568656D01*
X143633321Y-126568656D02*
X143561892Y-126532942D01*
X143561892Y-126532942D02*
X143526178Y-126497228D01*
X143526178Y-126497228D02*
X143490464Y-126425799D01*
X144240464Y-125461513D02*
X144240464Y-125890084D01*
X144240464Y-125675799D02*
X143490464Y-125675799D01*
X143490464Y-125675799D02*
X143597607Y-125747227D01*
X143597607Y-125747227D02*
X143669035Y-125818656D01*
X143669035Y-125818656D02*
X143704750Y-125890084D01*
%TO.C,D101*%
X136857342Y-130267964D02*
X136857342Y-129517964D01*
X136857342Y-129517964D02*
X137035913Y-129517964D01*
X137035913Y-129517964D02*
X137143056Y-129553678D01*
X137143056Y-129553678D02*
X137214485Y-129625107D01*
X137214485Y-129625107D02*
X137250199Y-129696535D01*
X137250199Y-129696535D02*
X137285913Y-129839392D01*
X137285913Y-129839392D02*
X137285913Y-129946535D01*
X137285913Y-129946535D02*
X137250199Y-130089392D01*
X137250199Y-130089392D02*
X137214485Y-130160821D01*
X137214485Y-130160821D02*
X137143056Y-130232250D01*
X137143056Y-130232250D02*
X137035913Y-130267964D01*
X137035913Y-130267964D02*
X136857342Y-130267964D01*
X138000199Y-130267964D02*
X137571628Y-130267964D01*
X137785913Y-130267964D02*
X137785913Y-129517964D01*
X137785913Y-129517964D02*
X137714485Y-129625107D01*
X137714485Y-129625107D02*
X137643056Y-129696535D01*
X137643056Y-129696535D02*
X137571628Y-129732250D01*
X138464485Y-129517964D02*
X138535914Y-129517964D01*
X138535914Y-129517964D02*
X138607342Y-129553678D01*
X138607342Y-129553678D02*
X138643057Y-129589392D01*
X138643057Y-129589392D02*
X138678771Y-129660821D01*
X138678771Y-129660821D02*
X138714485Y-129803678D01*
X138714485Y-129803678D02*
X138714485Y-129982250D01*
X138714485Y-129982250D02*
X138678771Y-130125107D01*
X138678771Y-130125107D02*
X138643057Y-130196535D01*
X138643057Y-130196535D02*
X138607342Y-130232250D01*
X138607342Y-130232250D02*
X138535914Y-130267964D01*
X138535914Y-130267964D02*
X138464485Y-130267964D01*
X138464485Y-130267964D02*
X138393057Y-130232250D01*
X138393057Y-130232250D02*
X138357342Y-130196535D01*
X138357342Y-130196535D02*
X138321628Y-130125107D01*
X138321628Y-130125107D02*
X138285914Y-129982250D01*
X138285914Y-129982250D02*
X138285914Y-129803678D01*
X138285914Y-129803678D02*
X138321628Y-129660821D01*
X138321628Y-129660821D02*
X138357342Y-129589392D01*
X138357342Y-129589392D02*
X138393057Y-129553678D01*
X138393057Y-129553678D02*
X138464485Y-129517964D01*
X139428771Y-130267964D02*
X139000200Y-130267964D01*
X139214485Y-130267964D02*
X139214485Y-129517964D01*
X139214485Y-129517964D02*
X139143057Y-129625107D01*
X139143057Y-129625107D02*
X139071628Y-129696535D01*
X139071628Y-129696535D02*
X139000200Y-129732250D01*
D11*
X140822224Y-131008219D02*
X141393652Y-131008219D01*
X141107938Y-132008219D02*
X141107938Y-131008219D01*
X141631748Y-132008219D02*
X142155557Y-131341552D01*
X141631748Y-131341552D02*
X142155557Y-132008219D01*
D10*
%TO.C,JP102*%
X145021264Y-128415485D02*
X145556978Y-128415485D01*
X145556978Y-128415485D02*
X145664121Y-128451200D01*
X145664121Y-128451200D02*
X145735550Y-128522628D01*
X145735550Y-128522628D02*
X145771264Y-128629771D01*
X145771264Y-128629771D02*
X145771264Y-128701200D01*
X145771264Y-128058342D02*
X145021264Y-128058342D01*
X145021264Y-128058342D02*
X145021264Y-127772628D01*
X145021264Y-127772628D02*
X145056978Y-127701199D01*
X145056978Y-127701199D02*
X145092692Y-127665485D01*
X145092692Y-127665485D02*
X145164121Y-127629771D01*
X145164121Y-127629771D02*
X145271264Y-127629771D01*
X145271264Y-127629771D02*
X145342692Y-127665485D01*
X145342692Y-127665485D02*
X145378407Y-127701199D01*
X145378407Y-127701199D02*
X145414121Y-127772628D01*
X145414121Y-127772628D02*
X145414121Y-128058342D01*
X145771264Y-126915485D02*
X145771264Y-127344056D01*
X145771264Y-127129771D02*
X145021264Y-127129771D01*
X145021264Y-127129771D02*
X145128407Y-127201199D01*
X145128407Y-127201199D02*
X145199835Y-127272628D01*
X145199835Y-127272628D02*
X145235550Y-127344056D01*
X145021264Y-126451199D02*
X145021264Y-126379770D01*
X145021264Y-126379770D02*
X145056978Y-126308342D01*
X145056978Y-126308342D02*
X145092692Y-126272628D01*
X145092692Y-126272628D02*
X145164121Y-126236913D01*
X145164121Y-126236913D02*
X145306978Y-126201199D01*
X145306978Y-126201199D02*
X145485550Y-126201199D01*
X145485550Y-126201199D02*
X145628407Y-126236913D01*
X145628407Y-126236913D02*
X145699835Y-126272628D01*
X145699835Y-126272628D02*
X145735550Y-126308342D01*
X145735550Y-126308342D02*
X145771264Y-126379770D01*
X145771264Y-126379770D02*
X145771264Y-126451199D01*
X145771264Y-126451199D02*
X145735550Y-126522628D01*
X145735550Y-126522628D02*
X145699835Y-126558342D01*
X145699835Y-126558342D02*
X145628407Y-126594056D01*
X145628407Y-126594056D02*
X145485550Y-126629770D01*
X145485550Y-126629770D02*
X145306978Y-126629770D01*
X145306978Y-126629770D02*
X145164121Y-126594056D01*
X145164121Y-126594056D02*
X145092692Y-126558342D01*
X145092692Y-126558342D02*
X145056978Y-126522628D01*
X145056978Y-126522628D02*
X145021264Y-126451199D01*
X145092692Y-125915484D02*
X145056978Y-125879770D01*
X145056978Y-125879770D02*
X145021264Y-125808342D01*
X145021264Y-125808342D02*
X145021264Y-125629770D01*
X145021264Y-125629770D02*
X145056978Y-125558342D01*
X145056978Y-125558342D02*
X145092692Y-125522627D01*
X145092692Y-125522627D02*
X145164121Y-125486913D01*
X145164121Y-125486913D02*
X145235550Y-125486913D01*
X145235550Y-125486913D02*
X145342692Y-125522627D01*
X145342692Y-125522627D02*
X145771264Y-125951199D01*
X145771264Y-125951199D02*
X145771264Y-125486913D01*
%TO.C,R104*%
X148512713Y-124781564D02*
X148262713Y-124424421D01*
X148084142Y-124781564D02*
X148084142Y-124031564D01*
X148084142Y-124031564D02*
X148369856Y-124031564D01*
X148369856Y-124031564D02*
X148441285Y-124067278D01*
X148441285Y-124067278D02*
X148476999Y-124102992D01*
X148476999Y-124102992D02*
X148512713Y-124174421D01*
X148512713Y-124174421D02*
X148512713Y-124281564D01*
X148512713Y-124281564D02*
X148476999Y-124352992D01*
X148476999Y-124352992D02*
X148441285Y-124388707D01*
X148441285Y-124388707D02*
X148369856Y-124424421D01*
X148369856Y-124424421D02*
X148084142Y-124424421D01*
X149226999Y-124781564D02*
X148798428Y-124781564D01*
X149012713Y-124781564D02*
X149012713Y-124031564D01*
X149012713Y-124031564D02*
X148941285Y-124138707D01*
X148941285Y-124138707D02*
X148869856Y-124210135D01*
X148869856Y-124210135D02*
X148798428Y-124245850D01*
X149691285Y-124031564D02*
X149762714Y-124031564D01*
X149762714Y-124031564D02*
X149834142Y-124067278D01*
X149834142Y-124067278D02*
X149869857Y-124102992D01*
X149869857Y-124102992D02*
X149905571Y-124174421D01*
X149905571Y-124174421D02*
X149941285Y-124317278D01*
X149941285Y-124317278D02*
X149941285Y-124495850D01*
X149941285Y-124495850D02*
X149905571Y-124638707D01*
X149905571Y-124638707D02*
X149869857Y-124710135D01*
X149869857Y-124710135D02*
X149834142Y-124745850D01*
X149834142Y-124745850D02*
X149762714Y-124781564D01*
X149762714Y-124781564D02*
X149691285Y-124781564D01*
X149691285Y-124781564D02*
X149619857Y-124745850D01*
X149619857Y-124745850D02*
X149584142Y-124710135D01*
X149584142Y-124710135D02*
X149548428Y-124638707D01*
X149548428Y-124638707D02*
X149512714Y-124495850D01*
X149512714Y-124495850D02*
X149512714Y-124317278D01*
X149512714Y-124317278D02*
X149548428Y-124174421D01*
X149548428Y-124174421D02*
X149584142Y-124102992D01*
X149584142Y-124102992D02*
X149619857Y-124067278D01*
X149619857Y-124067278D02*
X149691285Y-124031564D01*
X150584143Y-124281564D02*
X150584143Y-124781564D01*
X150405571Y-123995850D02*
X150227000Y-124531564D01*
X150227000Y-124531564D02*
X150691285Y-124531564D01*
%TO.C,C106*%
X142423235Y-109373486D02*
X142458950Y-109409200D01*
X142458950Y-109409200D02*
X142494664Y-109516343D01*
X142494664Y-109516343D02*
X142494664Y-109587771D01*
X142494664Y-109587771D02*
X142458950Y-109694914D01*
X142458950Y-109694914D02*
X142387521Y-109766343D01*
X142387521Y-109766343D02*
X142316092Y-109802057D01*
X142316092Y-109802057D02*
X142173235Y-109837771D01*
X142173235Y-109837771D02*
X142066092Y-109837771D01*
X142066092Y-109837771D02*
X141923235Y-109802057D01*
X141923235Y-109802057D02*
X141851807Y-109766343D01*
X141851807Y-109766343D02*
X141780378Y-109694914D01*
X141780378Y-109694914D02*
X141744664Y-109587771D01*
X141744664Y-109587771D02*
X141744664Y-109516343D01*
X141744664Y-109516343D02*
X141780378Y-109409200D01*
X141780378Y-109409200D02*
X141816092Y-109373486D01*
X142494664Y-108659200D02*
X142494664Y-109087771D01*
X142494664Y-108873486D02*
X141744664Y-108873486D01*
X141744664Y-108873486D02*
X141851807Y-108944914D01*
X141851807Y-108944914D02*
X141923235Y-109016343D01*
X141923235Y-109016343D02*
X141958950Y-109087771D01*
X141744664Y-108194914D02*
X141744664Y-108123485D01*
X141744664Y-108123485D02*
X141780378Y-108052057D01*
X141780378Y-108052057D02*
X141816092Y-108016343D01*
X141816092Y-108016343D02*
X141887521Y-107980628D01*
X141887521Y-107980628D02*
X142030378Y-107944914D01*
X142030378Y-107944914D02*
X142208950Y-107944914D01*
X142208950Y-107944914D02*
X142351807Y-107980628D01*
X142351807Y-107980628D02*
X142423235Y-108016343D01*
X142423235Y-108016343D02*
X142458950Y-108052057D01*
X142458950Y-108052057D02*
X142494664Y-108123485D01*
X142494664Y-108123485D02*
X142494664Y-108194914D01*
X142494664Y-108194914D02*
X142458950Y-108266343D01*
X142458950Y-108266343D02*
X142423235Y-108302057D01*
X142423235Y-108302057D02*
X142351807Y-108337771D01*
X142351807Y-108337771D02*
X142208950Y-108373485D01*
X142208950Y-108373485D02*
X142030378Y-108373485D01*
X142030378Y-108373485D02*
X141887521Y-108337771D01*
X141887521Y-108337771D02*
X141816092Y-108302057D01*
X141816092Y-108302057D02*
X141780378Y-108266343D01*
X141780378Y-108266343D02*
X141744664Y-108194914D01*
X141744664Y-107302057D02*
X141744664Y-107444914D01*
X141744664Y-107444914D02*
X141780378Y-107516342D01*
X141780378Y-107516342D02*
X141816092Y-107552057D01*
X141816092Y-107552057D02*
X141923235Y-107623485D01*
X141923235Y-107623485D02*
X142066092Y-107659199D01*
X142066092Y-107659199D02*
X142351807Y-107659199D01*
X142351807Y-107659199D02*
X142423235Y-107623485D01*
X142423235Y-107623485D02*
X142458950Y-107587771D01*
X142458950Y-107587771D02*
X142494664Y-107516342D01*
X142494664Y-107516342D02*
X142494664Y-107373485D01*
X142494664Y-107373485D02*
X142458950Y-107302057D01*
X142458950Y-107302057D02*
X142423235Y-107266342D01*
X142423235Y-107266342D02*
X142351807Y-107230628D01*
X142351807Y-107230628D02*
X142173235Y-107230628D01*
X142173235Y-107230628D02*
X142101807Y-107266342D01*
X142101807Y-107266342D02*
X142066092Y-107302057D01*
X142066092Y-107302057D02*
X142030378Y-107373485D01*
X142030378Y-107373485D02*
X142030378Y-107516342D01*
X142030378Y-107516342D02*
X142066092Y-107587771D01*
X142066092Y-107587771D02*
X142101807Y-107623485D01*
X142101807Y-107623485D02*
X142173235Y-107659199D01*
%TO.C,R101*%
X144212564Y-120422486D02*
X143855421Y-120672486D01*
X144212564Y-120851057D02*
X143462564Y-120851057D01*
X143462564Y-120851057D02*
X143462564Y-120565343D01*
X143462564Y-120565343D02*
X143498278Y-120493914D01*
X143498278Y-120493914D02*
X143533992Y-120458200D01*
X143533992Y-120458200D02*
X143605421Y-120422486D01*
X143605421Y-120422486D02*
X143712564Y-120422486D01*
X143712564Y-120422486D02*
X143783992Y-120458200D01*
X143783992Y-120458200D02*
X143819707Y-120493914D01*
X143819707Y-120493914D02*
X143855421Y-120565343D01*
X143855421Y-120565343D02*
X143855421Y-120851057D01*
X144212564Y-119708200D02*
X144212564Y-120136771D01*
X144212564Y-119922486D02*
X143462564Y-119922486D01*
X143462564Y-119922486D02*
X143569707Y-119993914D01*
X143569707Y-119993914D02*
X143641135Y-120065343D01*
X143641135Y-120065343D02*
X143676850Y-120136771D01*
X143462564Y-119243914D02*
X143462564Y-119172485D01*
X143462564Y-119172485D02*
X143498278Y-119101057D01*
X143498278Y-119101057D02*
X143533992Y-119065343D01*
X143533992Y-119065343D02*
X143605421Y-119029628D01*
X143605421Y-119029628D02*
X143748278Y-118993914D01*
X143748278Y-118993914D02*
X143926850Y-118993914D01*
X143926850Y-118993914D02*
X144069707Y-119029628D01*
X144069707Y-119029628D02*
X144141135Y-119065343D01*
X144141135Y-119065343D02*
X144176850Y-119101057D01*
X144176850Y-119101057D02*
X144212564Y-119172485D01*
X144212564Y-119172485D02*
X144212564Y-119243914D01*
X144212564Y-119243914D02*
X144176850Y-119315343D01*
X144176850Y-119315343D02*
X144141135Y-119351057D01*
X144141135Y-119351057D02*
X144069707Y-119386771D01*
X144069707Y-119386771D02*
X143926850Y-119422485D01*
X143926850Y-119422485D02*
X143748278Y-119422485D01*
X143748278Y-119422485D02*
X143605421Y-119386771D01*
X143605421Y-119386771D02*
X143533992Y-119351057D01*
X143533992Y-119351057D02*
X143498278Y-119315343D01*
X143498278Y-119315343D02*
X143462564Y-119243914D01*
X144212564Y-118279628D02*
X144212564Y-118708199D01*
X144212564Y-118493914D02*
X143462564Y-118493914D01*
X143462564Y-118493914D02*
X143569707Y-118565342D01*
X143569707Y-118565342D02*
X143641135Y-118636771D01*
X143641135Y-118636771D02*
X143676850Y-118708199D01*
%TO.C,FB101*%
X145523514Y-105897507D02*
X145273514Y-105897507D01*
X145273514Y-106290364D02*
X145273514Y-105540364D01*
X145273514Y-105540364D02*
X145630657Y-105540364D01*
X146166371Y-105897507D02*
X146273514Y-105933221D01*
X146273514Y-105933221D02*
X146309228Y-105968935D01*
X146309228Y-105968935D02*
X146344942Y-106040364D01*
X146344942Y-106040364D02*
X146344942Y-106147507D01*
X146344942Y-106147507D02*
X146309228Y-106218935D01*
X146309228Y-106218935D02*
X146273514Y-106254650D01*
X146273514Y-106254650D02*
X146202085Y-106290364D01*
X146202085Y-106290364D02*
X145916371Y-106290364D01*
X145916371Y-106290364D02*
X145916371Y-105540364D01*
X145916371Y-105540364D02*
X146166371Y-105540364D01*
X146166371Y-105540364D02*
X146237800Y-105576078D01*
X146237800Y-105576078D02*
X146273514Y-105611792D01*
X146273514Y-105611792D02*
X146309228Y-105683221D01*
X146309228Y-105683221D02*
X146309228Y-105754650D01*
X146309228Y-105754650D02*
X146273514Y-105826078D01*
X146273514Y-105826078D02*
X146237800Y-105861792D01*
X146237800Y-105861792D02*
X146166371Y-105897507D01*
X146166371Y-105897507D02*
X145916371Y-105897507D01*
X147059228Y-106290364D02*
X146630657Y-106290364D01*
X146844942Y-106290364D02*
X146844942Y-105540364D01*
X146844942Y-105540364D02*
X146773514Y-105647507D01*
X146773514Y-105647507D02*
X146702085Y-105718935D01*
X146702085Y-105718935D02*
X146630657Y-105754650D01*
X147523514Y-105540364D02*
X147594943Y-105540364D01*
X147594943Y-105540364D02*
X147666371Y-105576078D01*
X147666371Y-105576078D02*
X147702086Y-105611792D01*
X147702086Y-105611792D02*
X147737800Y-105683221D01*
X147737800Y-105683221D02*
X147773514Y-105826078D01*
X147773514Y-105826078D02*
X147773514Y-106004650D01*
X147773514Y-106004650D02*
X147737800Y-106147507D01*
X147737800Y-106147507D02*
X147702086Y-106218935D01*
X147702086Y-106218935D02*
X147666371Y-106254650D01*
X147666371Y-106254650D02*
X147594943Y-106290364D01*
X147594943Y-106290364D02*
X147523514Y-106290364D01*
X147523514Y-106290364D02*
X147452086Y-106254650D01*
X147452086Y-106254650D02*
X147416371Y-106218935D01*
X147416371Y-106218935D02*
X147380657Y-106147507D01*
X147380657Y-106147507D02*
X147344943Y-106004650D01*
X147344943Y-106004650D02*
X147344943Y-105826078D01*
X147344943Y-105826078D02*
X147380657Y-105683221D01*
X147380657Y-105683221D02*
X147416371Y-105611792D01*
X147416371Y-105611792D02*
X147452086Y-105576078D01*
X147452086Y-105576078D02*
X147523514Y-105540364D01*
X148487800Y-106290364D02*
X148059229Y-106290364D01*
X148273514Y-106290364D02*
X148273514Y-105540364D01*
X148273514Y-105540364D02*
X148202086Y-105647507D01*
X148202086Y-105647507D02*
X148130657Y-105718935D01*
X148130657Y-105718935D02*
X148059229Y-105754650D01*
%TO.C,C101*%
X149484435Y-104141086D02*
X149520150Y-104176800D01*
X149520150Y-104176800D02*
X149555864Y-104283943D01*
X149555864Y-104283943D02*
X149555864Y-104355371D01*
X149555864Y-104355371D02*
X149520150Y-104462514D01*
X149520150Y-104462514D02*
X149448721Y-104533943D01*
X149448721Y-104533943D02*
X149377292Y-104569657D01*
X149377292Y-104569657D02*
X149234435Y-104605371D01*
X149234435Y-104605371D02*
X149127292Y-104605371D01*
X149127292Y-104605371D02*
X148984435Y-104569657D01*
X148984435Y-104569657D02*
X148913007Y-104533943D01*
X148913007Y-104533943D02*
X148841578Y-104462514D01*
X148841578Y-104462514D02*
X148805864Y-104355371D01*
X148805864Y-104355371D02*
X148805864Y-104283943D01*
X148805864Y-104283943D02*
X148841578Y-104176800D01*
X148841578Y-104176800D02*
X148877292Y-104141086D01*
X149555864Y-103426800D02*
X149555864Y-103855371D01*
X149555864Y-103641086D02*
X148805864Y-103641086D01*
X148805864Y-103641086D02*
X148913007Y-103712514D01*
X148913007Y-103712514D02*
X148984435Y-103783943D01*
X148984435Y-103783943D02*
X149020150Y-103855371D01*
X148805864Y-102962514D02*
X148805864Y-102891085D01*
X148805864Y-102891085D02*
X148841578Y-102819657D01*
X148841578Y-102819657D02*
X148877292Y-102783943D01*
X148877292Y-102783943D02*
X148948721Y-102748228D01*
X148948721Y-102748228D02*
X149091578Y-102712514D01*
X149091578Y-102712514D02*
X149270150Y-102712514D01*
X149270150Y-102712514D02*
X149413007Y-102748228D01*
X149413007Y-102748228D02*
X149484435Y-102783943D01*
X149484435Y-102783943D02*
X149520150Y-102819657D01*
X149520150Y-102819657D02*
X149555864Y-102891085D01*
X149555864Y-102891085D02*
X149555864Y-102962514D01*
X149555864Y-102962514D02*
X149520150Y-103033943D01*
X149520150Y-103033943D02*
X149484435Y-103069657D01*
X149484435Y-103069657D02*
X149413007Y-103105371D01*
X149413007Y-103105371D02*
X149270150Y-103141085D01*
X149270150Y-103141085D02*
X149091578Y-103141085D01*
X149091578Y-103141085D02*
X148948721Y-103105371D01*
X148948721Y-103105371D02*
X148877292Y-103069657D01*
X148877292Y-103069657D02*
X148841578Y-103033943D01*
X148841578Y-103033943D02*
X148805864Y-102962514D01*
X149555864Y-101998228D02*
X149555864Y-102426799D01*
X149555864Y-102212514D02*
X148805864Y-102212514D01*
X148805864Y-102212514D02*
X148913007Y-102283942D01*
X148913007Y-102283942D02*
X148984435Y-102355371D01*
X148984435Y-102355371D02*
X149020150Y-102426799D01*
%TO.C,D102*%
X149963742Y-130217164D02*
X149963742Y-129467164D01*
X149963742Y-129467164D02*
X150142313Y-129467164D01*
X150142313Y-129467164D02*
X150249456Y-129502878D01*
X150249456Y-129502878D02*
X150320885Y-129574307D01*
X150320885Y-129574307D02*
X150356599Y-129645735D01*
X150356599Y-129645735D02*
X150392313Y-129788592D01*
X150392313Y-129788592D02*
X150392313Y-129895735D01*
X150392313Y-129895735D02*
X150356599Y-130038592D01*
X150356599Y-130038592D02*
X150320885Y-130110021D01*
X150320885Y-130110021D02*
X150249456Y-130181450D01*
X150249456Y-130181450D02*
X150142313Y-130217164D01*
X150142313Y-130217164D02*
X149963742Y-130217164D01*
X151106599Y-130217164D02*
X150678028Y-130217164D01*
X150892313Y-130217164D02*
X150892313Y-129467164D01*
X150892313Y-129467164D02*
X150820885Y-129574307D01*
X150820885Y-129574307D02*
X150749456Y-129645735D01*
X150749456Y-129645735D02*
X150678028Y-129681450D01*
X151570885Y-129467164D02*
X151642314Y-129467164D01*
X151642314Y-129467164D02*
X151713742Y-129502878D01*
X151713742Y-129502878D02*
X151749457Y-129538592D01*
X151749457Y-129538592D02*
X151785171Y-129610021D01*
X151785171Y-129610021D02*
X151820885Y-129752878D01*
X151820885Y-129752878D02*
X151820885Y-129931450D01*
X151820885Y-129931450D02*
X151785171Y-130074307D01*
X151785171Y-130074307D02*
X151749457Y-130145735D01*
X151749457Y-130145735D02*
X151713742Y-130181450D01*
X151713742Y-130181450D02*
X151642314Y-130217164D01*
X151642314Y-130217164D02*
X151570885Y-130217164D01*
X151570885Y-130217164D02*
X151499457Y-130181450D01*
X151499457Y-130181450D02*
X151463742Y-130145735D01*
X151463742Y-130145735D02*
X151428028Y-130074307D01*
X151428028Y-130074307D02*
X151392314Y-129931450D01*
X151392314Y-129931450D02*
X151392314Y-129752878D01*
X151392314Y-129752878D02*
X151428028Y-129610021D01*
X151428028Y-129610021D02*
X151463742Y-129538592D01*
X151463742Y-129538592D02*
X151499457Y-129502878D01*
X151499457Y-129502878D02*
X151570885Y-129467164D01*
X152106600Y-129538592D02*
X152142314Y-129502878D01*
X152142314Y-129502878D02*
X152213743Y-129467164D01*
X152213743Y-129467164D02*
X152392314Y-129467164D01*
X152392314Y-129467164D02*
X152463743Y-129502878D01*
X152463743Y-129502878D02*
X152499457Y-129538592D01*
X152499457Y-129538592D02*
X152535171Y-129610021D01*
X152535171Y-129610021D02*
X152535171Y-129681450D01*
X152535171Y-129681450D02*
X152499457Y-129788592D01*
X152499457Y-129788592D02*
X152070885Y-130217164D01*
X152070885Y-130217164D02*
X152535171Y-130217164D01*
D11*
X147758461Y-132009219D02*
X147425128Y-131533028D01*
X147187033Y-132009219D02*
X147187033Y-131009219D01*
X147187033Y-131009219D02*
X147567985Y-131009219D01*
X147567985Y-131009219D02*
X147663223Y-131056838D01*
X147663223Y-131056838D02*
X147710842Y-131104457D01*
X147710842Y-131104457D02*
X147758461Y-131199695D01*
X147758461Y-131199695D02*
X147758461Y-131342552D01*
X147758461Y-131342552D02*
X147710842Y-131437790D01*
X147710842Y-131437790D02*
X147663223Y-131485409D01*
X147663223Y-131485409D02*
X147567985Y-131533028D01*
X147567985Y-131533028D02*
X147187033Y-131533028D01*
X148091795Y-132009219D02*
X148615604Y-131342552D01*
X148091795Y-131342552D02*
X148615604Y-132009219D01*
D10*
%TO.C,J101*%
X139296964Y-99592485D02*
X139832678Y-99592485D01*
X139832678Y-99592485D02*
X139939821Y-99628200D01*
X139939821Y-99628200D02*
X140011250Y-99699628D01*
X140011250Y-99699628D02*
X140046964Y-99806771D01*
X140046964Y-99806771D02*
X140046964Y-99878200D01*
X140046964Y-98842485D02*
X140046964Y-99271056D01*
X140046964Y-99056771D02*
X139296964Y-99056771D01*
X139296964Y-99056771D02*
X139404107Y-99128199D01*
X139404107Y-99128199D02*
X139475535Y-99199628D01*
X139475535Y-99199628D02*
X139511250Y-99271056D01*
X139296964Y-98378199D02*
X139296964Y-98306770D01*
X139296964Y-98306770D02*
X139332678Y-98235342D01*
X139332678Y-98235342D02*
X139368392Y-98199628D01*
X139368392Y-98199628D02*
X139439821Y-98163913D01*
X139439821Y-98163913D02*
X139582678Y-98128199D01*
X139582678Y-98128199D02*
X139761250Y-98128199D01*
X139761250Y-98128199D02*
X139904107Y-98163913D01*
X139904107Y-98163913D02*
X139975535Y-98199628D01*
X139975535Y-98199628D02*
X140011250Y-98235342D01*
X140011250Y-98235342D02*
X140046964Y-98306770D01*
X140046964Y-98306770D02*
X140046964Y-98378199D01*
X140046964Y-98378199D02*
X140011250Y-98449628D01*
X140011250Y-98449628D02*
X139975535Y-98485342D01*
X139975535Y-98485342D02*
X139904107Y-98521056D01*
X139904107Y-98521056D02*
X139761250Y-98556770D01*
X139761250Y-98556770D02*
X139582678Y-98556770D01*
X139582678Y-98556770D02*
X139439821Y-98521056D01*
X139439821Y-98521056D02*
X139368392Y-98485342D01*
X139368392Y-98485342D02*
X139332678Y-98449628D01*
X139332678Y-98449628D02*
X139296964Y-98378199D01*
X140046964Y-97413913D02*
X140046964Y-97842484D01*
X140046964Y-97628199D02*
X139296964Y-97628199D01*
X139296964Y-97628199D02*
X139404107Y-97699627D01*
X139404107Y-97699627D02*
X139475535Y-97771056D01*
X139475535Y-97771056D02*
X139511250Y-97842484D01*
%TO.C,U101*%
X143412685Y-109579164D02*
X143412685Y-110186307D01*
X143412685Y-110186307D02*
X143448399Y-110257735D01*
X143448399Y-110257735D02*
X143484114Y-110293450D01*
X143484114Y-110293450D02*
X143555542Y-110329164D01*
X143555542Y-110329164D02*
X143698399Y-110329164D01*
X143698399Y-110329164D02*
X143769828Y-110293450D01*
X143769828Y-110293450D02*
X143805542Y-110257735D01*
X143805542Y-110257735D02*
X143841256Y-110186307D01*
X143841256Y-110186307D02*
X143841256Y-109579164D01*
X144591256Y-110329164D02*
X144162685Y-110329164D01*
X144376970Y-110329164D02*
X144376970Y-109579164D01*
X144376970Y-109579164D02*
X144305542Y-109686307D01*
X144305542Y-109686307D02*
X144234113Y-109757735D01*
X144234113Y-109757735D02*
X144162685Y-109793450D01*
X145055542Y-109579164D02*
X145126971Y-109579164D01*
X145126971Y-109579164D02*
X145198399Y-109614878D01*
X145198399Y-109614878D02*
X145234114Y-109650592D01*
X145234114Y-109650592D02*
X145269828Y-109722021D01*
X145269828Y-109722021D02*
X145305542Y-109864878D01*
X145305542Y-109864878D02*
X145305542Y-110043450D01*
X145305542Y-110043450D02*
X145269828Y-110186307D01*
X145269828Y-110186307D02*
X145234114Y-110257735D01*
X145234114Y-110257735D02*
X145198399Y-110293450D01*
X145198399Y-110293450D02*
X145126971Y-110329164D01*
X145126971Y-110329164D02*
X145055542Y-110329164D01*
X145055542Y-110329164D02*
X144984114Y-110293450D01*
X144984114Y-110293450D02*
X144948399Y-110257735D01*
X144948399Y-110257735D02*
X144912685Y-110186307D01*
X144912685Y-110186307D02*
X144876971Y-110043450D01*
X144876971Y-110043450D02*
X144876971Y-109864878D01*
X144876971Y-109864878D02*
X144912685Y-109722021D01*
X144912685Y-109722021D02*
X144948399Y-109650592D01*
X144948399Y-109650592D02*
X144984114Y-109614878D01*
X144984114Y-109614878D02*
X145055542Y-109579164D01*
X146019828Y-110329164D02*
X145591257Y-110329164D01*
X145805542Y-110329164D02*
X145805542Y-109579164D01*
X145805542Y-109579164D02*
X145734114Y-109686307D01*
X145734114Y-109686307D02*
X145662685Y-109757735D01*
X145662685Y-109757735D02*
X145591257Y-109793450D01*
X142734113Y-116936307D02*
X142484113Y-116936307D01*
X142484113Y-117329164D02*
X142484113Y-116579164D01*
X142484113Y-116579164D02*
X142841256Y-116579164D01*
X143019827Y-116579164D02*
X143448399Y-116579164D01*
X143234113Y-117329164D02*
X143234113Y-116579164D01*
X143662685Y-116650592D02*
X143698399Y-116614878D01*
X143698399Y-116614878D02*
X143769828Y-116579164D01*
X143769828Y-116579164D02*
X143948399Y-116579164D01*
X143948399Y-116579164D02*
X144019828Y-116614878D01*
X144019828Y-116614878D02*
X144055542Y-116650592D01*
X144055542Y-116650592D02*
X144091256Y-116722021D01*
X144091256Y-116722021D02*
X144091256Y-116793450D01*
X144091256Y-116793450D02*
X144055542Y-116900592D01*
X144055542Y-116900592D02*
X143626970Y-117329164D01*
X143626970Y-117329164D02*
X144091256Y-117329164D01*
X144341256Y-116579164D02*
X144805542Y-116579164D01*
X144805542Y-116579164D02*
X144555542Y-116864878D01*
X144555542Y-116864878D02*
X144662685Y-116864878D01*
X144662685Y-116864878D02*
X144734114Y-116900592D01*
X144734114Y-116900592D02*
X144769828Y-116936307D01*
X144769828Y-116936307D02*
X144805542Y-117007735D01*
X144805542Y-117007735D02*
X144805542Y-117186307D01*
X144805542Y-117186307D02*
X144769828Y-117257735D01*
X144769828Y-117257735D02*
X144734114Y-117293450D01*
X144734114Y-117293450D02*
X144662685Y-117329164D01*
X144662685Y-117329164D02*
X144448399Y-117329164D01*
X144448399Y-117329164D02*
X144376971Y-117293450D01*
X144376971Y-117293450D02*
X144341256Y-117257735D01*
X145269828Y-116579164D02*
X145341257Y-116579164D01*
X145341257Y-116579164D02*
X145412685Y-116614878D01*
X145412685Y-116614878D02*
X145448400Y-116650592D01*
X145448400Y-116650592D02*
X145484114Y-116722021D01*
X145484114Y-116722021D02*
X145519828Y-116864878D01*
X145519828Y-116864878D02*
X145519828Y-117043450D01*
X145519828Y-117043450D02*
X145484114Y-117186307D01*
X145484114Y-117186307D02*
X145448400Y-117257735D01*
X145448400Y-117257735D02*
X145412685Y-117293450D01*
X145412685Y-117293450D02*
X145341257Y-117329164D01*
X145341257Y-117329164D02*
X145269828Y-117329164D01*
X145269828Y-117329164D02*
X145198400Y-117293450D01*
X145198400Y-117293450D02*
X145162685Y-117257735D01*
X145162685Y-117257735D02*
X145126971Y-117186307D01*
X145126971Y-117186307D02*
X145091257Y-117043450D01*
X145091257Y-117043450D02*
X145091257Y-116864878D01*
X145091257Y-116864878D02*
X145126971Y-116722021D01*
X145126971Y-116722021D02*
X145162685Y-116650592D01*
X145162685Y-116650592D02*
X145198400Y-116614878D01*
X145198400Y-116614878D02*
X145269828Y-116579164D01*
X145769828Y-116579164D02*
X146269828Y-117329164D01*
X146269828Y-116579164D02*
X145769828Y-117329164D01*
X146519829Y-117293450D02*
X146626972Y-117329164D01*
X146626972Y-117329164D02*
X146805543Y-117329164D01*
X146805543Y-117329164D02*
X146876972Y-117293450D01*
X146876972Y-117293450D02*
X146912686Y-117257735D01*
X146912686Y-117257735D02*
X146948400Y-117186307D01*
X146948400Y-117186307D02*
X146948400Y-117114878D01*
X146948400Y-117114878D02*
X146912686Y-117043450D01*
X146912686Y-117043450D02*
X146876972Y-117007735D01*
X146876972Y-117007735D02*
X146805543Y-116972021D01*
X146805543Y-116972021D02*
X146662686Y-116936307D01*
X146662686Y-116936307D02*
X146591257Y-116900592D01*
X146591257Y-116900592D02*
X146555543Y-116864878D01*
X146555543Y-116864878D02*
X146519829Y-116793450D01*
X146519829Y-116793450D02*
X146519829Y-116722021D01*
X146519829Y-116722021D02*
X146555543Y-116650592D01*
X146555543Y-116650592D02*
X146591257Y-116614878D01*
X146591257Y-116614878D02*
X146662686Y-116579164D01*
X146662686Y-116579164D02*
X146841257Y-116579164D01*
X146841257Y-116579164D02*
X146948400Y-116614878D01*
%TO.C,R102*%
X145888964Y-120422486D02*
X145531821Y-120672486D01*
X145888964Y-120851057D02*
X145138964Y-120851057D01*
X145138964Y-120851057D02*
X145138964Y-120565343D01*
X145138964Y-120565343D02*
X145174678Y-120493914D01*
X145174678Y-120493914D02*
X145210392Y-120458200D01*
X145210392Y-120458200D02*
X145281821Y-120422486D01*
X145281821Y-120422486D02*
X145388964Y-120422486D01*
X145388964Y-120422486D02*
X145460392Y-120458200D01*
X145460392Y-120458200D02*
X145496107Y-120493914D01*
X145496107Y-120493914D02*
X145531821Y-120565343D01*
X145531821Y-120565343D02*
X145531821Y-120851057D01*
X145888964Y-119708200D02*
X145888964Y-120136771D01*
X145888964Y-119922486D02*
X145138964Y-119922486D01*
X145138964Y-119922486D02*
X145246107Y-119993914D01*
X145246107Y-119993914D02*
X145317535Y-120065343D01*
X145317535Y-120065343D02*
X145353250Y-120136771D01*
X145138964Y-119243914D02*
X145138964Y-119172485D01*
X145138964Y-119172485D02*
X145174678Y-119101057D01*
X145174678Y-119101057D02*
X145210392Y-119065343D01*
X145210392Y-119065343D02*
X145281821Y-119029628D01*
X145281821Y-119029628D02*
X145424678Y-118993914D01*
X145424678Y-118993914D02*
X145603250Y-118993914D01*
X145603250Y-118993914D02*
X145746107Y-119029628D01*
X145746107Y-119029628D02*
X145817535Y-119065343D01*
X145817535Y-119065343D02*
X145853250Y-119101057D01*
X145853250Y-119101057D02*
X145888964Y-119172485D01*
X145888964Y-119172485D02*
X145888964Y-119243914D01*
X145888964Y-119243914D02*
X145853250Y-119315343D01*
X145853250Y-119315343D02*
X145817535Y-119351057D01*
X145817535Y-119351057D02*
X145746107Y-119386771D01*
X145746107Y-119386771D02*
X145603250Y-119422485D01*
X145603250Y-119422485D02*
X145424678Y-119422485D01*
X145424678Y-119422485D02*
X145281821Y-119386771D01*
X145281821Y-119386771D02*
X145210392Y-119351057D01*
X145210392Y-119351057D02*
X145174678Y-119315343D01*
X145174678Y-119315343D02*
X145138964Y-119243914D01*
X145210392Y-118708199D02*
X145174678Y-118672485D01*
X145174678Y-118672485D02*
X145138964Y-118601057D01*
X145138964Y-118601057D02*
X145138964Y-118422485D01*
X145138964Y-118422485D02*
X145174678Y-118351057D01*
X145174678Y-118351057D02*
X145210392Y-118315342D01*
X145210392Y-118315342D02*
X145281821Y-118279628D01*
X145281821Y-118279628D02*
X145353250Y-118279628D01*
X145353250Y-118279628D02*
X145460392Y-118315342D01*
X145460392Y-118315342D02*
X145888964Y-118743914D01*
X145888964Y-118743914D02*
X145888964Y-118279628D01*
%TO.C,C105*%
X149000713Y-123287735D02*
X148964999Y-123323450D01*
X148964999Y-123323450D02*
X148857856Y-123359164D01*
X148857856Y-123359164D02*
X148786428Y-123359164D01*
X148786428Y-123359164D02*
X148679285Y-123323450D01*
X148679285Y-123323450D02*
X148607856Y-123252021D01*
X148607856Y-123252021D02*
X148572142Y-123180592D01*
X148572142Y-123180592D02*
X148536428Y-123037735D01*
X148536428Y-123037735D02*
X148536428Y-122930592D01*
X148536428Y-122930592D02*
X148572142Y-122787735D01*
X148572142Y-122787735D02*
X148607856Y-122716307D01*
X148607856Y-122716307D02*
X148679285Y-122644878D01*
X148679285Y-122644878D02*
X148786428Y-122609164D01*
X148786428Y-122609164D02*
X148857856Y-122609164D01*
X148857856Y-122609164D02*
X148964999Y-122644878D01*
X148964999Y-122644878D02*
X149000713Y-122680592D01*
X149714999Y-123359164D02*
X149286428Y-123359164D01*
X149500713Y-123359164D02*
X149500713Y-122609164D01*
X149500713Y-122609164D02*
X149429285Y-122716307D01*
X149429285Y-122716307D02*
X149357856Y-122787735D01*
X149357856Y-122787735D02*
X149286428Y-122823450D01*
X150179285Y-122609164D02*
X150250714Y-122609164D01*
X150250714Y-122609164D02*
X150322142Y-122644878D01*
X150322142Y-122644878D02*
X150357857Y-122680592D01*
X150357857Y-122680592D02*
X150393571Y-122752021D01*
X150393571Y-122752021D02*
X150429285Y-122894878D01*
X150429285Y-122894878D02*
X150429285Y-123073450D01*
X150429285Y-123073450D02*
X150393571Y-123216307D01*
X150393571Y-123216307D02*
X150357857Y-123287735D01*
X150357857Y-123287735D02*
X150322142Y-123323450D01*
X150322142Y-123323450D02*
X150250714Y-123359164D01*
X150250714Y-123359164D02*
X150179285Y-123359164D01*
X150179285Y-123359164D02*
X150107857Y-123323450D01*
X150107857Y-123323450D02*
X150072142Y-123287735D01*
X150072142Y-123287735D02*
X150036428Y-123216307D01*
X150036428Y-123216307D02*
X150000714Y-123073450D01*
X150000714Y-123073450D02*
X150000714Y-122894878D01*
X150000714Y-122894878D02*
X150036428Y-122752021D01*
X150036428Y-122752021D02*
X150072142Y-122680592D01*
X150072142Y-122680592D02*
X150107857Y-122644878D01*
X150107857Y-122644878D02*
X150179285Y-122609164D01*
X151107857Y-122609164D02*
X150750714Y-122609164D01*
X150750714Y-122609164D02*
X150715000Y-122966307D01*
X150715000Y-122966307D02*
X150750714Y-122930592D01*
X150750714Y-122930592D02*
X150822143Y-122894878D01*
X150822143Y-122894878D02*
X151000714Y-122894878D01*
X151000714Y-122894878D02*
X151072143Y-122930592D01*
X151072143Y-122930592D02*
X151107857Y-122966307D01*
X151107857Y-122966307D02*
X151143571Y-123037735D01*
X151143571Y-123037735D02*
X151143571Y-123216307D01*
X151143571Y-123216307D02*
X151107857Y-123287735D01*
X151107857Y-123287735D02*
X151072143Y-123323450D01*
X151072143Y-123323450D02*
X151000714Y-123359164D01*
X151000714Y-123359164D02*
X150822143Y-123359164D01*
X150822143Y-123359164D02*
X150750714Y-123323450D01*
X150750714Y-123323450D02*
X150715000Y-123287735D01*
%TO.C,C104*%
X138666813Y-123342135D02*
X138631099Y-123377850D01*
X138631099Y-123377850D02*
X138523956Y-123413564D01*
X138523956Y-123413564D02*
X138452528Y-123413564D01*
X138452528Y-123413564D02*
X138345385Y-123377850D01*
X138345385Y-123377850D02*
X138273956Y-123306421D01*
X138273956Y-123306421D02*
X138238242Y-123234992D01*
X138238242Y-123234992D02*
X138202528Y-123092135D01*
X138202528Y-123092135D02*
X138202528Y-122984992D01*
X138202528Y-122984992D02*
X138238242Y-122842135D01*
X138238242Y-122842135D02*
X138273956Y-122770707D01*
X138273956Y-122770707D02*
X138345385Y-122699278D01*
X138345385Y-122699278D02*
X138452528Y-122663564D01*
X138452528Y-122663564D02*
X138523956Y-122663564D01*
X138523956Y-122663564D02*
X138631099Y-122699278D01*
X138631099Y-122699278D02*
X138666813Y-122734992D01*
X139381099Y-123413564D02*
X138952528Y-123413564D01*
X139166813Y-123413564D02*
X139166813Y-122663564D01*
X139166813Y-122663564D02*
X139095385Y-122770707D01*
X139095385Y-122770707D02*
X139023956Y-122842135D01*
X139023956Y-122842135D02*
X138952528Y-122877850D01*
X139845385Y-122663564D02*
X139916814Y-122663564D01*
X139916814Y-122663564D02*
X139988242Y-122699278D01*
X139988242Y-122699278D02*
X140023957Y-122734992D01*
X140023957Y-122734992D02*
X140059671Y-122806421D01*
X140059671Y-122806421D02*
X140095385Y-122949278D01*
X140095385Y-122949278D02*
X140095385Y-123127850D01*
X140095385Y-123127850D02*
X140059671Y-123270707D01*
X140059671Y-123270707D02*
X140023957Y-123342135D01*
X140023957Y-123342135D02*
X139988242Y-123377850D01*
X139988242Y-123377850D02*
X139916814Y-123413564D01*
X139916814Y-123413564D02*
X139845385Y-123413564D01*
X139845385Y-123413564D02*
X139773957Y-123377850D01*
X139773957Y-123377850D02*
X139738242Y-123342135D01*
X139738242Y-123342135D02*
X139702528Y-123270707D01*
X139702528Y-123270707D02*
X139666814Y-123127850D01*
X139666814Y-123127850D02*
X139666814Y-122949278D01*
X139666814Y-122949278D02*
X139702528Y-122806421D01*
X139702528Y-122806421D02*
X139738242Y-122734992D01*
X139738242Y-122734992D02*
X139773957Y-122699278D01*
X139773957Y-122699278D02*
X139845385Y-122663564D01*
X140738243Y-122913564D02*
X140738243Y-123413564D01*
X140559671Y-122627850D02*
X140381100Y-123163564D01*
X140381100Y-123163564D02*
X140845385Y-123163564D01*
%TO.C,C102*%
X141857913Y-106218935D02*
X141822199Y-106254650D01*
X141822199Y-106254650D02*
X141715056Y-106290364D01*
X141715056Y-106290364D02*
X141643628Y-106290364D01*
X141643628Y-106290364D02*
X141536485Y-106254650D01*
X141536485Y-106254650D02*
X141465056Y-106183221D01*
X141465056Y-106183221D02*
X141429342Y-106111792D01*
X141429342Y-106111792D02*
X141393628Y-105968935D01*
X141393628Y-105968935D02*
X141393628Y-105861792D01*
X141393628Y-105861792D02*
X141429342Y-105718935D01*
X141429342Y-105718935D02*
X141465056Y-105647507D01*
X141465056Y-105647507D02*
X141536485Y-105576078D01*
X141536485Y-105576078D02*
X141643628Y-105540364D01*
X141643628Y-105540364D02*
X141715056Y-105540364D01*
X141715056Y-105540364D02*
X141822199Y-105576078D01*
X141822199Y-105576078D02*
X141857913Y-105611792D01*
X142572199Y-106290364D02*
X142143628Y-106290364D01*
X142357913Y-106290364D02*
X142357913Y-105540364D01*
X142357913Y-105540364D02*
X142286485Y-105647507D01*
X142286485Y-105647507D02*
X142215056Y-105718935D01*
X142215056Y-105718935D02*
X142143628Y-105754650D01*
X143036485Y-105540364D02*
X143107914Y-105540364D01*
X143107914Y-105540364D02*
X143179342Y-105576078D01*
X143179342Y-105576078D02*
X143215057Y-105611792D01*
X143215057Y-105611792D02*
X143250771Y-105683221D01*
X143250771Y-105683221D02*
X143286485Y-105826078D01*
X143286485Y-105826078D02*
X143286485Y-106004650D01*
X143286485Y-106004650D02*
X143250771Y-106147507D01*
X143250771Y-106147507D02*
X143215057Y-106218935D01*
X143215057Y-106218935D02*
X143179342Y-106254650D01*
X143179342Y-106254650D02*
X143107914Y-106290364D01*
X143107914Y-106290364D02*
X143036485Y-106290364D01*
X143036485Y-106290364D02*
X142965057Y-106254650D01*
X142965057Y-106254650D02*
X142929342Y-106218935D01*
X142929342Y-106218935D02*
X142893628Y-106147507D01*
X142893628Y-106147507D02*
X142857914Y-106004650D01*
X142857914Y-106004650D02*
X142857914Y-105826078D01*
X142857914Y-105826078D02*
X142893628Y-105683221D01*
X142893628Y-105683221D02*
X142929342Y-105611792D01*
X142929342Y-105611792D02*
X142965057Y-105576078D01*
X142965057Y-105576078D02*
X143036485Y-105540364D01*
X143572200Y-105611792D02*
X143607914Y-105576078D01*
X143607914Y-105576078D02*
X143679343Y-105540364D01*
X143679343Y-105540364D02*
X143857914Y-105540364D01*
X143857914Y-105540364D02*
X143929343Y-105576078D01*
X143929343Y-105576078D02*
X143965057Y-105611792D01*
X143965057Y-105611792D02*
X144000771Y-105683221D01*
X144000771Y-105683221D02*
X144000771Y-105754650D01*
X144000771Y-105754650D02*
X143965057Y-105861792D01*
X143965057Y-105861792D02*
X143536485Y-106290364D01*
X143536485Y-106290364D02*
X144000771Y-106290364D01*
%TO.C,C103*%
X140416635Y-104191886D02*
X140452350Y-104227600D01*
X140452350Y-104227600D02*
X140488064Y-104334743D01*
X140488064Y-104334743D02*
X140488064Y-104406171D01*
X140488064Y-104406171D02*
X140452350Y-104513314D01*
X140452350Y-104513314D02*
X140380921Y-104584743D01*
X140380921Y-104584743D02*
X140309492Y-104620457D01*
X140309492Y-104620457D02*
X140166635Y-104656171D01*
X140166635Y-104656171D02*
X140059492Y-104656171D01*
X140059492Y-104656171D02*
X139916635Y-104620457D01*
X139916635Y-104620457D02*
X139845207Y-104584743D01*
X139845207Y-104584743D02*
X139773778Y-104513314D01*
X139773778Y-104513314D02*
X139738064Y-104406171D01*
X139738064Y-104406171D02*
X139738064Y-104334743D01*
X139738064Y-104334743D02*
X139773778Y-104227600D01*
X139773778Y-104227600D02*
X139809492Y-104191886D01*
X140488064Y-103477600D02*
X140488064Y-103906171D01*
X140488064Y-103691886D02*
X139738064Y-103691886D01*
X139738064Y-103691886D02*
X139845207Y-103763314D01*
X139845207Y-103763314D02*
X139916635Y-103834743D01*
X139916635Y-103834743D02*
X139952350Y-103906171D01*
X139738064Y-103013314D02*
X139738064Y-102941885D01*
X139738064Y-102941885D02*
X139773778Y-102870457D01*
X139773778Y-102870457D02*
X139809492Y-102834743D01*
X139809492Y-102834743D02*
X139880921Y-102799028D01*
X139880921Y-102799028D02*
X140023778Y-102763314D01*
X140023778Y-102763314D02*
X140202350Y-102763314D01*
X140202350Y-102763314D02*
X140345207Y-102799028D01*
X140345207Y-102799028D02*
X140416635Y-102834743D01*
X140416635Y-102834743D02*
X140452350Y-102870457D01*
X140452350Y-102870457D02*
X140488064Y-102941885D01*
X140488064Y-102941885D02*
X140488064Y-103013314D01*
X140488064Y-103013314D02*
X140452350Y-103084743D01*
X140452350Y-103084743D02*
X140416635Y-103120457D01*
X140416635Y-103120457D02*
X140345207Y-103156171D01*
X140345207Y-103156171D02*
X140202350Y-103191885D01*
X140202350Y-103191885D02*
X140023778Y-103191885D01*
X140023778Y-103191885D02*
X139880921Y-103156171D01*
X139880921Y-103156171D02*
X139809492Y-103120457D01*
X139809492Y-103120457D02*
X139773778Y-103084743D01*
X139773778Y-103084743D02*
X139738064Y-103013314D01*
X139738064Y-102513314D02*
X139738064Y-102049028D01*
X139738064Y-102049028D02*
X140023778Y-102299028D01*
X140023778Y-102299028D02*
X140023778Y-102191885D01*
X140023778Y-102191885D02*
X140059492Y-102120457D01*
X140059492Y-102120457D02*
X140095207Y-102084742D01*
X140095207Y-102084742D02*
X140166635Y-102049028D01*
X140166635Y-102049028D02*
X140345207Y-102049028D01*
X140345207Y-102049028D02*
X140416635Y-102084742D01*
X140416635Y-102084742D02*
X140452350Y-102120457D01*
X140452350Y-102120457D02*
X140488064Y-102191885D01*
X140488064Y-102191885D02*
X140488064Y-102406171D01*
X140488064Y-102406171D02*
X140452350Y-102477599D01*
X140452350Y-102477599D02*
X140416635Y-102513314D01*
D12*
%TO.C,R103*%
X143136700Y-123115336D02*
X143136700Y-123569464D01*
X141666700Y-123115336D02*
X141666700Y-123569464D01*
%TO.C,JP101*%
X142893500Y-125720800D02*
X142893500Y-127050800D01*
X141563500Y-125720800D02*
X142893500Y-125720800D01*
X140293500Y-125720800D02*
X137693500Y-125720800D01*
X140293500Y-125720800D02*
X140293500Y-128380800D01*
X137693500Y-125720800D02*
X137693500Y-128380800D01*
X140293500Y-128380800D02*
X137693500Y-128380800D01*
%TO.C,D101*%
X139652700Y-128935600D02*
X139652700Y-130855600D01*
X139652700Y-130855600D02*
X142512700Y-130855600D01*
X142512700Y-128935600D02*
X139652700Y-128935600D01*
%TO.C,JP102*%
X146451500Y-128380800D02*
X146451500Y-127050800D01*
X147781500Y-128380800D02*
X146451500Y-128380800D01*
X149051500Y-128380800D02*
X151651500Y-128380800D01*
X149051500Y-128380800D02*
X149051500Y-125720800D01*
X151651500Y-128380800D02*
X151651500Y-125720800D01*
X149051500Y-125720800D02*
X151651500Y-125720800D01*
%TO.C,R104*%
X147683300Y-123115336D02*
X147683300Y-123569464D01*
X146213300Y-123115336D02*
X146213300Y-123569464D01*
%TO.C,C106*%
X144455748Y-107342000D02*
X144978252Y-107342000D01*
X144455748Y-108812000D02*
X144978252Y-108812000D01*
%TO.C,R101*%
X141657400Y-119810264D02*
X141657400Y-119356136D01*
X143127400Y-119810264D02*
X143127400Y-119356136D01*
%TO.C,FB101*%
X146286300Y-103062048D02*
X146286300Y-103584552D01*
X144816300Y-103062048D02*
X144816300Y-103584552D01*
%TO.C,C101*%
X148292900Y-103065948D02*
X148292900Y-103588452D01*
X146822900Y-103065948D02*
X146822900Y-103588452D01*
%TO.C,D102*%
X149713700Y-130855600D02*
X149713700Y-128935600D01*
X149713700Y-128935600D02*
X146853700Y-128935600D01*
X146853700Y-130855600D02*
X149713700Y-130855600D01*
%TO.C,J101*%
X148541500Y-100655400D02*
X148091500Y-100655400D01*
X148541500Y-98805400D02*
X148541500Y-100655400D01*
X148541500Y-96255400D02*
X148541500Y-96505400D01*
X146341500Y-101205400D02*
X146341500Y-100755400D01*
X146341500Y-101205400D02*
X145891500Y-101205400D01*
X140741500Y-100655400D02*
X141191500Y-100655400D01*
X140741500Y-98805400D02*
X140741500Y-100655400D01*
X140741500Y-96255400D02*
X140741500Y-96505400D01*
D11*
%TO.C,U101*%
X141423400Y-110757200D02*
X146698400Y-110757200D01*
X142698400Y-116157200D02*
X146698400Y-116157200D01*
D12*
%TO.C,R102*%
X146229400Y-119810264D02*
X146229400Y-119356136D01*
X147699400Y-119810264D02*
X147699400Y-119356136D01*
%TO.C,C105*%
X149578748Y-120651600D02*
X150101252Y-120651600D01*
X149578748Y-122121600D02*
X150101252Y-122121600D01*
%TO.C,C104*%
X139767352Y-122121600D02*
X139244848Y-122121600D01*
X139767352Y-120651600D02*
X139244848Y-120651600D01*
%TO.C,C102*%
X142861300Y-105196600D02*
X144431300Y-105196600D01*
X144431300Y-105196600D02*
X144431300Y-102311600D01*
X142861300Y-102311600D02*
X142861300Y-105196600D01*
%TO.C,C103*%
X141006300Y-103588452D02*
X141006300Y-103065948D01*
X142476300Y-103588452D02*
X142476300Y-103065948D01*
%TD*%
M02*
