%TF.GenerationSoftware,KiCad,Pcbnew,7.0.2-0*%
%TF.CreationDate,2024-07-03T10:32:27-07:00*%
%TF.ProjectId,ft230x-breakout,66743233-3078-42d6-9272-65616b6f7574,1.0*%
%TF.SameCoordinates,Original*%
%TF.FileFunction,Legend,Bot*%
%TF.FilePolarity,Positive*%
%FSLAX46Y46*%
G04 Gerber Fmt 4.6, Leading zero omitted, Abs format (unit mm)*
G04 Created by KiCad (PCBNEW 7.0.2-0) date 2024-07-03 10:32:27*
%MOMM*%
%LPD*%
G01*
G04 APERTURE LIST*
%ADD10C,0.100000*%
%ADD11C,0.010000*%
%ADD12C,0.120000*%
G04 APERTURE END LIST*
D10*
X152263185Y-126618228D02*
X153013185Y-126618228D01*
X152263185Y-126296800D02*
X152656042Y-126296800D01*
X152656042Y-126296800D02*
X152727471Y-126332514D01*
X152727471Y-126332514D02*
X152763185Y-126403942D01*
X152763185Y-126403942D02*
X152763185Y-126511085D01*
X152763185Y-126511085D02*
X152727471Y-126582514D01*
X152727471Y-126582514D02*
X152691757Y-126618228D01*
X152763185Y-126046800D02*
X152763185Y-125761086D01*
X153013185Y-125939657D02*
X152370328Y-125939657D01*
X152370328Y-125939657D02*
X152298900Y-125903943D01*
X152298900Y-125903943D02*
X152263185Y-125832514D01*
X152263185Y-125832514D02*
X152263185Y-125761086D01*
X152763185Y-125618229D02*
X152763185Y-125332515D01*
X153013185Y-125511086D02*
X152370328Y-125511086D01*
X152370328Y-125511086D02*
X152298900Y-125475372D01*
X152298900Y-125475372D02*
X152263185Y-125403943D01*
X152263185Y-125403943D02*
X152263185Y-125332515D01*
X152763185Y-125082515D02*
X152013185Y-125082515D01*
X152727471Y-125082515D02*
X152763185Y-125011087D01*
X152763185Y-125011087D02*
X152763185Y-124868229D01*
X152763185Y-124868229D02*
X152727471Y-124796801D01*
X152727471Y-124796801D02*
X152691757Y-124761087D01*
X152691757Y-124761087D02*
X152620328Y-124725372D01*
X152620328Y-124725372D02*
X152406042Y-124725372D01*
X152406042Y-124725372D02*
X152334614Y-124761087D01*
X152334614Y-124761087D02*
X152298900Y-124796801D01*
X152298900Y-124796801D02*
X152263185Y-124868229D01*
X152263185Y-124868229D02*
X152263185Y-125011087D01*
X152263185Y-125011087D02*
X152298900Y-125082515D01*
X152298900Y-124439658D02*
X152263185Y-124368230D01*
X152263185Y-124368230D02*
X152263185Y-124225373D01*
X152263185Y-124225373D02*
X152298900Y-124153944D01*
X152298900Y-124153944D02*
X152370328Y-124118230D01*
X152370328Y-124118230D02*
X152406042Y-124118230D01*
X152406042Y-124118230D02*
X152477471Y-124153944D01*
X152477471Y-124153944D02*
X152513185Y-124225373D01*
X152513185Y-124225373D02*
X152513185Y-124332516D01*
X152513185Y-124332516D02*
X152548900Y-124403944D01*
X152548900Y-124403944D02*
X152620328Y-124439658D01*
X152620328Y-124439658D02*
X152656042Y-124439658D01*
X152656042Y-124439658D02*
X152727471Y-124403944D01*
X152727471Y-124403944D02*
X152763185Y-124332516D01*
X152763185Y-124332516D02*
X152763185Y-124225373D01*
X152763185Y-124225373D02*
X152727471Y-124153944D01*
X152334614Y-123796801D02*
X152298900Y-123761087D01*
X152298900Y-123761087D02*
X152263185Y-123796801D01*
X152263185Y-123796801D02*
X152298900Y-123832515D01*
X152298900Y-123832515D02*
X152334614Y-123796801D01*
X152334614Y-123796801D02*
X152263185Y-123796801D01*
X152727471Y-123796801D02*
X152691757Y-123761087D01*
X152691757Y-123761087D02*
X152656042Y-123796801D01*
X152656042Y-123796801D02*
X152691757Y-123832515D01*
X152691757Y-123832515D02*
X152727471Y-123796801D01*
X152727471Y-123796801D02*
X152656042Y-123796801D01*
X153048900Y-122903944D02*
X152084614Y-123546801D01*
X153048900Y-122118230D02*
X152084614Y-122761087D01*
X152763185Y-121546802D02*
X152156042Y-121546802D01*
X152156042Y-121546802D02*
X152084614Y-121582516D01*
X152084614Y-121582516D02*
X152048900Y-121618230D01*
X152048900Y-121618230D02*
X152013185Y-121689659D01*
X152013185Y-121689659D02*
X152013185Y-121796802D01*
X152013185Y-121796802D02*
X152048900Y-121868230D01*
X152298900Y-121546802D02*
X152263185Y-121618230D01*
X152263185Y-121618230D02*
X152263185Y-121761087D01*
X152263185Y-121761087D02*
X152298900Y-121832516D01*
X152298900Y-121832516D02*
X152334614Y-121868230D01*
X152334614Y-121868230D02*
X152406042Y-121903944D01*
X152406042Y-121903944D02*
X152620328Y-121903944D01*
X152620328Y-121903944D02*
X152691757Y-121868230D01*
X152691757Y-121868230D02*
X152727471Y-121832516D01*
X152727471Y-121832516D02*
X152763185Y-121761087D01*
X152763185Y-121761087D02*
X152763185Y-121618230D01*
X152763185Y-121618230D02*
X152727471Y-121546802D01*
X152263185Y-121189659D02*
X152763185Y-121189659D01*
X153013185Y-121189659D02*
X152977471Y-121225373D01*
X152977471Y-121225373D02*
X152941757Y-121189659D01*
X152941757Y-121189659D02*
X152977471Y-121153945D01*
X152977471Y-121153945D02*
X153013185Y-121189659D01*
X153013185Y-121189659D02*
X152941757Y-121189659D01*
X152763185Y-120939659D02*
X152763185Y-120653945D01*
X153013185Y-120832516D02*
X152370328Y-120832516D01*
X152370328Y-120832516D02*
X152298900Y-120796802D01*
X152298900Y-120796802D02*
X152263185Y-120725373D01*
X152263185Y-120725373D02*
X152263185Y-120653945D01*
X152263185Y-120403945D02*
X153013185Y-120403945D01*
X152263185Y-120082517D02*
X152656042Y-120082517D01*
X152656042Y-120082517D02*
X152727471Y-120118231D01*
X152727471Y-120118231D02*
X152763185Y-120189659D01*
X152763185Y-120189659D02*
X152763185Y-120296802D01*
X152763185Y-120296802D02*
X152727471Y-120368231D01*
X152727471Y-120368231D02*
X152691757Y-120403945D01*
X152763185Y-119403946D02*
X152263185Y-119403946D01*
X152763185Y-119725374D02*
X152370328Y-119725374D01*
X152370328Y-119725374D02*
X152298900Y-119689660D01*
X152298900Y-119689660D02*
X152263185Y-119618231D01*
X152263185Y-119618231D02*
X152263185Y-119511088D01*
X152263185Y-119511088D02*
X152298900Y-119439660D01*
X152298900Y-119439660D02*
X152334614Y-119403946D01*
X152263185Y-119046803D02*
X153013185Y-119046803D01*
X152727471Y-119046803D02*
X152763185Y-118975375D01*
X152763185Y-118975375D02*
X152763185Y-118832517D01*
X152763185Y-118832517D02*
X152727471Y-118761089D01*
X152727471Y-118761089D02*
X152691757Y-118725375D01*
X152691757Y-118725375D02*
X152620328Y-118689660D01*
X152620328Y-118689660D02*
X152406042Y-118689660D01*
X152406042Y-118689660D02*
X152334614Y-118725375D01*
X152334614Y-118725375D02*
X152298900Y-118761089D01*
X152298900Y-118761089D02*
X152263185Y-118832517D01*
X152263185Y-118832517D02*
X152263185Y-118975375D01*
X152263185Y-118975375D02*
X152298900Y-119046803D01*
X152334614Y-118368232D02*
X152298900Y-118332518D01*
X152298900Y-118332518D02*
X152263185Y-118368232D01*
X152263185Y-118368232D02*
X152298900Y-118403946D01*
X152298900Y-118403946D02*
X152334614Y-118368232D01*
X152334614Y-118368232D02*
X152263185Y-118368232D01*
X152298900Y-117689661D02*
X152263185Y-117761089D01*
X152263185Y-117761089D02*
X152263185Y-117903946D01*
X152263185Y-117903946D02*
X152298900Y-117975375D01*
X152298900Y-117975375D02*
X152334614Y-118011089D01*
X152334614Y-118011089D02*
X152406042Y-118046803D01*
X152406042Y-118046803D02*
X152620328Y-118046803D01*
X152620328Y-118046803D02*
X152691757Y-118011089D01*
X152691757Y-118011089D02*
X152727471Y-117975375D01*
X152727471Y-117975375D02*
X152763185Y-117903946D01*
X152763185Y-117903946D02*
X152763185Y-117761089D01*
X152763185Y-117761089D02*
X152727471Y-117689661D01*
X152263185Y-117261089D02*
X152298900Y-117332518D01*
X152298900Y-117332518D02*
X152334614Y-117368232D01*
X152334614Y-117368232D02*
X152406042Y-117403946D01*
X152406042Y-117403946D02*
X152620328Y-117403946D01*
X152620328Y-117403946D02*
X152691757Y-117368232D01*
X152691757Y-117368232D02*
X152727471Y-117332518D01*
X152727471Y-117332518D02*
X152763185Y-117261089D01*
X152763185Y-117261089D02*
X152763185Y-117153946D01*
X152763185Y-117153946D02*
X152727471Y-117082518D01*
X152727471Y-117082518D02*
X152691757Y-117046804D01*
X152691757Y-117046804D02*
X152620328Y-117011089D01*
X152620328Y-117011089D02*
X152406042Y-117011089D01*
X152406042Y-117011089D02*
X152334614Y-117046804D01*
X152334614Y-117046804D02*
X152298900Y-117082518D01*
X152298900Y-117082518D02*
X152263185Y-117153946D01*
X152263185Y-117153946D02*
X152263185Y-117261089D01*
X152263185Y-116689661D02*
X152763185Y-116689661D01*
X152691757Y-116689661D02*
X152727471Y-116653947D01*
X152727471Y-116653947D02*
X152763185Y-116582518D01*
X152763185Y-116582518D02*
X152763185Y-116475375D01*
X152763185Y-116475375D02*
X152727471Y-116403947D01*
X152727471Y-116403947D02*
X152656042Y-116368233D01*
X152656042Y-116368233D02*
X152263185Y-116368233D01*
X152656042Y-116368233D02*
X152727471Y-116332518D01*
X152727471Y-116332518D02*
X152763185Y-116261090D01*
X152763185Y-116261090D02*
X152763185Y-116153947D01*
X152763185Y-116153947D02*
X152727471Y-116082518D01*
X152727471Y-116082518D02*
X152656042Y-116046804D01*
X152656042Y-116046804D02*
X152263185Y-116046804D01*
X153048900Y-115153947D02*
X152084614Y-115796804D01*
X152763185Y-115011090D02*
X152763185Y-114725376D01*
X153013185Y-114903947D02*
X152370328Y-114903947D01*
X152370328Y-114903947D02*
X152298900Y-114868233D01*
X152298900Y-114868233D02*
X152263185Y-114796804D01*
X152263185Y-114796804D02*
X152263185Y-114725376D01*
X152263185Y-114475376D02*
X153013185Y-114475376D01*
X152263185Y-114153948D02*
X152656042Y-114153948D01*
X152656042Y-114153948D02*
X152727471Y-114189662D01*
X152727471Y-114189662D02*
X152763185Y-114261090D01*
X152763185Y-114261090D02*
X152763185Y-114368233D01*
X152763185Y-114368233D02*
X152727471Y-114439662D01*
X152727471Y-114439662D02*
X152691757Y-114475376D01*
X152263185Y-113689662D02*
X152298900Y-113761091D01*
X152298900Y-113761091D02*
X152334614Y-113796805D01*
X152334614Y-113796805D02*
X152406042Y-113832519D01*
X152406042Y-113832519D02*
X152620328Y-113832519D01*
X152620328Y-113832519D02*
X152691757Y-113796805D01*
X152691757Y-113796805D02*
X152727471Y-113761091D01*
X152727471Y-113761091D02*
X152763185Y-113689662D01*
X152763185Y-113689662D02*
X152763185Y-113582519D01*
X152763185Y-113582519D02*
X152727471Y-113511091D01*
X152727471Y-113511091D02*
X152691757Y-113475377D01*
X152691757Y-113475377D02*
X152620328Y-113439662D01*
X152620328Y-113439662D02*
X152406042Y-113439662D01*
X152406042Y-113439662D02*
X152334614Y-113475377D01*
X152334614Y-113475377D02*
X152298900Y-113511091D01*
X152298900Y-113511091D02*
X152263185Y-113582519D01*
X152263185Y-113582519D02*
X152263185Y-113689662D01*
X152263185Y-113118234D02*
X152763185Y-113118234D01*
X152620328Y-113118234D02*
X152691757Y-113082520D01*
X152691757Y-113082520D02*
X152727471Y-113046806D01*
X152727471Y-113046806D02*
X152763185Y-112975377D01*
X152763185Y-112975377D02*
X152763185Y-112903948D01*
X152763185Y-112653948D02*
X152013185Y-112653948D01*
X152727471Y-112653948D02*
X152763185Y-112582520D01*
X152763185Y-112582520D02*
X152763185Y-112439662D01*
X152763185Y-112439662D02*
X152727471Y-112368234D01*
X152727471Y-112368234D02*
X152691757Y-112332520D01*
X152691757Y-112332520D02*
X152620328Y-112296805D01*
X152620328Y-112296805D02*
X152406042Y-112296805D01*
X152406042Y-112296805D02*
X152334614Y-112332520D01*
X152334614Y-112332520D02*
X152298900Y-112368234D01*
X152298900Y-112368234D02*
X152263185Y-112439662D01*
X152263185Y-112439662D02*
X152263185Y-112582520D01*
X152263185Y-112582520D02*
X152298900Y-112653948D01*
X152298900Y-111689663D02*
X152263185Y-111761091D01*
X152263185Y-111761091D02*
X152263185Y-111903949D01*
X152263185Y-111903949D02*
X152298900Y-111975377D01*
X152298900Y-111975377D02*
X152370328Y-112011091D01*
X152370328Y-112011091D02*
X152656042Y-112011091D01*
X152656042Y-112011091D02*
X152727471Y-111975377D01*
X152727471Y-111975377D02*
X152763185Y-111903949D01*
X152763185Y-111903949D02*
X152763185Y-111761091D01*
X152763185Y-111761091D02*
X152727471Y-111689663D01*
X152727471Y-111689663D02*
X152656042Y-111653949D01*
X152656042Y-111653949D02*
X152584614Y-111653949D01*
X152584614Y-111653949D02*
X152513185Y-112011091D01*
X152763185Y-111332520D02*
X152120328Y-111332520D01*
X152120328Y-111332520D02*
X152048900Y-111368234D01*
X152048900Y-111368234D02*
X152013185Y-111439663D01*
X152013185Y-111439663D02*
X152013185Y-111475377D01*
X153013185Y-111332520D02*
X152977471Y-111368234D01*
X152977471Y-111368234D02*
X152941757Y-111332520D01*
X152941757Y-111332520D02*
X152977471Y-111296806D01*
X152977471Y-111296806D02*
X153013185Y-111332520D01*
X153013185Y-111332520D02*
X152941757Y-111332520D01*
X153048900Y-110439663D02*
X152084614Y-111082520D01*
X152763185Y-110296806D02*
X152763185Y-110011092D01*
X152263185Y-110189663D02*
X152906042Y-110189663D01*
X152906042Y-110189663D02*
X152977471Y-110153949D01*
X152977471Y-110153949D02*
X153013185Y-110082520D01*
X153013185Y-110082520D02*
X153013185Y-110011092D01*
X152763185Y-109868235D02*
X152763185Y-109582521D01*
X153013185Y-109761092D02*
X152370328Y-109761092D01*
X152370328Y-109761092D02*
X152298900Y-109725378D01*
X152298900Y-109725378D02*
X152263185Y-109653949D01*
X152263185Y-109653949D02*
X152263185Y-109582521D01*
X152941757Y-109368235D02*
X152977471Y-109332521D01*
X152977471Y-109332521D02*
X153013185Y-109261093D01*
X153013185Y-109261093D02*
X153013185Y-109082521D01*
X153013185Y-109082521D02*
X152977471Y-109011093D01*
X152977471Y-109011093D02*
X152941757Y-108975378D01*
X152941757Y-108975378D02*
X152870328Y-108939664D01*
X152870328Y-108939664D02*
X152798900Y-108939664D01*
X152798900Y-108939664D02*
X152691757Y-108975378D01*
X152691757Y-108975378D02*
X152263185Y-109403950D01*
X152263185Y-109403950D02*
X152263185Y-108939664D01*
X153013185Y-108689664D02*
X153013185Y-108225378D01*
X153013185Y-108225378D02*
X152727471Y-108475378D01*
X152727471Y-108475378D02*
X152727471Y-108368235D01*
X152727471Y-108368235D02*
X152691757Y-108296807D01*
X152691757Y-108296807D02*
X152656042Y-108261092D01*
X152656042Y-108261092D02*
X152584614Y-108225378D01*
X152584614Y-108225378D02*
X152406042Y-108225378D01*
X152406042Y-108225378D02*
X152334614Y-108261092D01*
X152334614Y-108261092D02*
X152298900Y-108296807D01*
X152298900Y-108296807D02*
X152263185Y-108368235D01*
X152263185Y-108368235D02*
X152263185Y-108582521D01*
X152263185Y-108582521D02*
X152298900Y-108653949D01*
X152298900Y-108653949D02*
X152334614Y-108689664D01*
X153013185Y-107761092D02*
X153013185Y-107689663D01*
X153013185Y-107689663D02*
X152977471Y-107618235D01*
X152977471Y-107618235D02*
X152941757Y-107582521D01*
X152941757Y-107582521D02*
X152870328Y-107546806D01*
X152870328Y-107546806D02*
X152727471Y-107511092D01*
X152727471Y-107511092D02*
X152548900Y-107511092D01*
X152548900Y-107511092D02*
X152406042Y-107546806D01*
X152406042Y-107546806D02*
X152334614Y-107582521D01*
X152334614Y-107582521D02*
X152298900Y-107618235D01*
X152298900Y-107618235D02*
X152263185Y-107689663D01*
X152263185Y-107689663D02*
X152263185Y-107761092D01*
X152263185Y-107761092D02*
X152298900Y-107832521D01*
X152298900Y-107832521D02*
X152334614Y-107868235D01*
X152334614Y-107868235D02*
X152406042Y-107903949D01*
X152406042Y-107903949D02*
X152548900Y-107939663D01*
X152548900Y-107939663D02*
X152727471Y-107939663D01*
X152727471Y-107939663D02*
X152870328Y-107903949D01*
X152870328Y-107903949D02*
X152941757Y-107868235D01*
X152941757Y-107868235D02*
X152977471Y-107832521D01*
X152977471Y-107832521D02*
X153013185Y-107761092D01*
X152263185Y-107261092D02*
X152763185Y-106868235D01*
X152763185Y-107261092D02*
X152263185Y-106868235D01*
X152548900Y-106582520D02*
X152548900Y-106011092D01*
X152263185Y-105653949D02*
X153013185Y-105653949D01*
X152727471Y-105653949D02*
X152763185Y-105582521D01*
X152763185Y-105582521D02*
X152763185Y-105439663D01*
X152763185Y-105439663D02*
X152727471Y-105368235D01*
X152727471Y-105368235D02*
X152691757Y-105332521D01*
X152691757Y-105332521D02*
X152620328Y-105296806D01*
X152620328Y-105296806D02*
X152406042Y-105296806D01*
X152406042Y-105296806D02*
X152334614Y-105332521D01*
X152334614Y-105332521D02*
X152298900Y-105368235D01*
X152298900Y-105368235D02*
X152263185Y-105439663D01*
X152263185Y-105439663D02*
X152263185Y-105582521D01*
X152263185Y-105582521D02*
X152298900Y-105653949D01*
X152263185Y-104975378D02*
X152763185Y-104975378D01*
X152620328Y-104975378D02*
X152691757Y-104939664D01*
X152691757Y-104939664D02*
X152727471Y-104903950D01*
X152727471Y-104903950D02*
X152763185Y-104832521D01*
X152763185Y-104832521D02*
X152763185Y-104761092D01*
X152298900Y-104225378D02*
X152263185Y-104296806D01*
X152263185Y-104296806D02*
X152263185Y-104439664D01*
X152263185Y-104439664D02*
X152298900Y-104511092D01*
X152298900Y-104511092D02*
X152370328Y-104546806D01*
X152370328Y-104546806D02*
X152656042Y-104546806D01*
X152656042Y-104546806D02*
X152727471Y-104511092D01*
X152727471Y-104511092D02*
X152763185Y-104439664D01*
X152763185Y-104439664D02*
X152763185Y-104296806D01*
X152763185Y-104296806D02*
X152727471Y-104225378D01*
X152727471Y-104225378D02*
X152656042Y-104189664D01*
X152656042Y-104189664D02*
X152584614Y-104189664D01*
X152584614Y-104189664D02*
X152513185Y-104546806D01*
X152263185Y-103546807D02*
X152656042Y-103546807D01*
X152656042Y-103546807D02*
X152727471Y-103582521D01*
X152727471Y-103582521D02*
X152763185Y-103653949D01*
X152763185Y-103653949D02*
X152763185Y-103796807D01*
X152763185Y-103796807D02*
X152727471Y-103868235D01*
X152298900Y-103546807D02*
X152263185Y-103618235D01*
X152263185Y-103618235D02*
X152263185Y-103796807D01*
X152263185Y-103796807D02*
X152298900Y-103868235D01*
X152298900Y-103868235D02*
X152370328Y-103903949D01*
X152370328Y-103903949D02*
X152441757Y-103903949D01*
X152441757Y-103903949D02*
X152513185Y-103868235D01*
X152513185Y-103868235D02*
X152548900Y-103796807D01*
X152548900Y-103796807D02*
X152548900Y-103618235D01*
X152548900Y-103618235D02*
X152584614Y-103546807D01*
X152263185Y-103189664D02*
X153013185Y-103189664D01*
X152548900Y-103118236D02*
X152263185Y-102903950D01*
X152763185Y-102903950D02*
X152477471Y-103189664D01*
X152263185Y-102475378D02*
X152298900Y-102546807D01*
X152298900Y-102546807D02*
X152334614Y-102582521D01*
X152334614Y-102582521D02*
X152406042Y-102618235D01*
X152406042Y-102618235D02*
X152620328Y-102618235D01*
X152620328Y-102618235D02*
X152691757Y-102582521D01*
X152691757Y-102582521D02*
X152727471Y-102546807D01*
X152727471Y-102546807D02*
X152763185Y-102475378D01*
X152763185Y-102475378D02*
X152763185Y-102368235D01*
X152763185Y-102368235D02*
X152727471Y-102296807D01*
X152727471Y-102296807D02*
X152691757Y-102261093D01*
X152691757Y-102261093D02*
X152620328Y-102225378D01*
X152620328Y-102225378D02*
X152406042Y-102225378D01*
X152406042Y-102225378D02*
X152334614Y-102261093D01*
X152334614Y-102261093D02*
X152298900Y-102296807D01*
X152298900Y-102296807D02*
X152263185Y-102368235D01*
X152263185Y-102368235D02*
X152263185Y-102475378D01*
X152763185Y-101582522D02*
X152263185Y-101582522D01*
X152763185Y-101903950D02*
X152370328Y-101903950D01*
X152370328Y-101903950D02*
X152298900Y-101868236D01*
X152298900Y-101868236D02*
X152263185Y-101796807D01*
X152263185Y-101796807D02*
X152263185Y-101689664D01*
X152263185Y-101689664D02*
X152298900Y-101618236D01*
X152298900Y-101618236D02*
X152334614Y-101582522D01*
X152763185Y-101332522D02*
X152763185Y-101046808D01*
X153013185Y-101225379D02*
X152370328Y-101225379D01*
X152370328Y-101225379D02*
X152298900Y-101189665D01*
X152298900Y-101189665D02*
X152263185Y-101118236D01*
X152263185Y-101118236D02*
X152263185Y-101046808D01*
%TO.C,J103*%
X140562685Y-105674164D02*
X140562685Y-106209878D01*
X140562685Y-106209878D02*
X140598400Y-106317021D01*
X140598400Y-106317021D02*
X140669828Y-106388450D01*
X140669828Y-106388450D02*
X140776971Y-106424164D01*
X140776971Y-106424164D02*
X140848400Y-106424164D01*
X139812685Y-106424164D02*
X140241256Y-106424164D01*
X140026971Y-106424164D02*
X140026971Y-105674164D01*
X140026971Y-105674164D02*
X140098399Y-105781307D01*
X140098399Y-105781307D02*
X140169828Y-105852735D01*
X140169828Y-105852735D02*
X140241256Y-105888450D01*
X139348399Y-105674164D02*
X139276970Y-105674164D01*
X139276970Y-105674164D02*
X139205542Y-105709878D01*
X139205542Y-105709878D02*
X139169828Y-105745592D01*
X139169828Y-105745592D02*
X139134113Y-105817021D01*
X139134113Y-105817021D02*
X139098399Y-105959878D01*
X139098399Y-105959878D02*
X139098399Y-106138450D01*
X139098399Y-106138450D02*
X139134113Y-106281307D01*
X139134113Y-106281307D02*
X139169828Y-106352735D01*
X139169828Y-106352735D02*
X139205542Y-106388450D01*
X139205542Y-106388450D02*
X139276970Y-106424164D01*
X139276970Y-106424164D02*
X139348399Y-106424164D01*
X139348399Y-106424164D02*
X139419828Y-106388450D01*
X139419828Y-106388450D02*
X139455542Y-106352735D01*
X139455542Y-106352735D02*
X139491256Y-106281307D01*
X139491256Y-106281307D02*
X139526970Y-106138450D01*
X139526970Y-106138450D02*
X139526970Y-105959878D01*
X139526970Y-105959878D02*
X139491256Y-105817021D01*
X139491256Y-105817021D02*
X139455542Y-105745592D01*
X139455542Y-105745592D02*
X139419828Y-105709878D01*
X139419828Y-105709878D02*
X139348399Y-105674164D01*
X138848399Y-105674164D02*
X138384113Y-105674164D01*
X138384113Y-105674164D02*
X138634113Y-105959878D01*
X138634113Y-105959878D02*
X138526970Y-105959878D01*
X138526970Y-105959878D02*
X138455542Y-105995592D01*
X138455542Y-105995592D02*
X138419827Y-106031307D01*
X138419827Y-106031307D02*
X138384113Y-106102735D01*
X138384113Y-106102735D02*
X138384113Y-106281307D01*
X138384113Y-106281307D02*
X138419827Y-106352735D01*
X138419827Y-106352735D02*
X138455542Y-106388450D01*
X138455542Y-106388450D02*
X138526970Y-106424164D01*
X138526970Y-106424164D02*
X138741256Y-106424164D01*
X138741256Y-106424164D02*
X138812684Y-106388450D01*
X138812684Y-106388450D02*
X138848399Y-106352735D01*
%TO.C,J104*%
X150722685Y-105674164D02*
X150722685Y-106209878D01*
X150722685Y-106209878D02*
X150758400Y-106317021D01*
X150758400Y-106317021D02*
X150829828Y-106388450D01*
X150829828Y-106388450D02*
X150936971Y-106424164D01*
X150936971Y-106424164D02*
X151008400Y-106424164D01*
X149972685Y-106424164D02*
X150401256Y-106424164D01*
X150186971Y-106424164D02*
X150186971Y-105674164D01*
X150186971Y-105674164D02*
X150258399Y-105781307D01*
X150258399Y-105781307D02*
X150329828Y-105852735D01*
X150329828Y-105852735D02*
X150401256Y-105888450D01*
X149508399Y-105674164D02*
X149436970Y-105674164D01*
X149436970Y-105674164D02*
X149365542Y-105709878D01*
X149365542Y-105709878D02*
X149329828Y-105745592D01*
X149329828Y-105745592D02*
X149294113Y-105817021D01*
X149294113Y-105817021D02*
X149258399Y-105959878D01*
X149258399Y-105959878D02*
X149258399Y-106138450D01*
X149258399Y-106138450D02*
X149294113Y-106281307D01*
X149294113Y-106281307D02*
X149329828Y-106352735D01*
X149329828Y-106352735D02*
X149365542Y-106388450D01*
X149365542Y-106388450D02*
X149436970Y-106424164D01*
X149436970Y-106424164D02*
X149508399Y-106424164D01*
X149508399Y-106424164D02*
X149579828Y-106388450D01*
X149579828Y-106388450D02*
X149615542Y-106352735D01*
X149615542Y-106352735D02*
X149651256Y-106281307D01*
X149651256Y-106281307D02*
X149686970Y-106138450D01*
X149686970Y-106138450D02*
X149686970Y-105959878D01*
X149686970Y-105959878D02*
X149651256Y-105817021D01*
X149651256Y-105817021D02*
X149615542Y-105745592D01*
X149615542Y-105745592D02*
X149579828Y-105709878D01*
X149579828Y-105709878D02*
X149508399Y-105674164D01*
X148615542Y-105924164D02*
X148615542Y-106424164D01*
X148794113Y-105638450D02*
X148972684Y-106174164D01*
X148972684Y-106174164D02*
X148508399Y-106174164D01*
%TO.C,REF\u002A\u002A*%
D11*
X142110429Y-123871097D02*
X142170353Y-123893355D01*
X142195273Y-123910080D01*
X142220510Y-123934043D01*
X142238512Y-123964526D01*
X142250458Y-124006023D01*
X142257530Y-124063032D01*
X142260908Y-124140047D01*
X142261771Y-124241565D01*
X142261602Y-124294027D01*
X142260753Y-124365715D01*
X142259311Y-124422925D01*
X142257414Y-124460809D01*
X142255197Y-124474514D01*
X142240772Y-124469981D01*
X142211654Y-124457670D01*
X142210781Y-124457272D01*
X142195660Y-124449356D01*
X142185491Y-124438495D01*
X142179291Y-124419471D01*
X142176078Y-124387069D01*
X142174870Y-124336071D01*
X142174686Y-124261261D01*
X142174314Y-124213804D01*
X142170350Y-124124615D01*
X142161273Y-124059287D01*
X142146124Y-124014393D01*
X142123945Y-123986507D01*
X142093775Y-123972203D01*
X142089590Y-123971206D01*
X142033080Y-123970427D01*
X141989010Y-123995744D01*
X141958572Y-124046502D01*
X141953144Y-124061175D01*
X141940771Y-124093649D01*
X141934505Y-124108572D01*
X141921636Y-124106516D01*
X141893533Y-124095357D01*
X141867321Y-124076927D01*
X141855371Y-124042098D01*
X141858936Y-124017151D01*
X141880835Y-123966547D01*
X141916244Y-123919128D01*
X141957652Y-123886334D01*
X141975000Y-123878752D01*
X142040689Y-123866076D01*
X142110429Y-123871097D01*
G36*
X142110429Y-123871097D02*
G01*
X142170353Y-123893355D01*
X142195273Y-123910080D01*
X142220510Y-123934043D01*
X142238512Y-123964526D01*
X142250458Y-124006023D01*
X142257530Y-124063032D01*
X142260908Y-124140047D01*
X142261771Y-124241565D01*
X142261602Y-124294027D01*
X142260753Y-124365715D01*
X142259311Y-124422925D01*
X142257414Y-124460809D01*
X142255197Y-124474514D01*
X142240772Y-124469981D01*
X142211654Y-124457670D01*
X142210781Y-124457272D01*
X142195660Y-124449356D01*
X142185491Y-124438495D01*
X142179291Y-124419471D01*
X142176078Y-124387069D01*
X142174870Y-124336071D01*
X142174686Y-124261261D01*
X142174314Y-124213804D01*
X142170350Y-124124615D01*
X142161273Y-124059287D01*
X142146124Y-124014393D01*
X142123945Y-123986507D01*
X142093775Y-123972203D01*
X142089590Y-123971206D01*
X142033080Y-123970427D01*
X141989010Y-123995744D01*
X141958572Y-124046502D01*
X141953144Y-124061175D01*
X141940771Y-124093649D01*
X141934505Y-124108572D01*
X141921636Y-124106516D01*
X141893533Y-124095357D01*
X141867321Y-124076927D01*
X141855371Y-124042098D01*
X141858936Y-124017151D01*
X141880835Y-123966547D01*
X141916244Y-123919128D01*
X141957652Y-123886334D01*
X141975000Y-123878752D01*
X142040689Y-123866076D01*
X142110429Y-123871097D01*
G37*
X146058620Y-123837822D02*
X146126410Y-123869680D01*
X146181966Y-123924770D01*
X146193481Y-123942016D01*
X146203032Y-123961562D01*
X146209806Y-123986198D01*
X146214419Y-124020711D01*
X146217488Y-124069889D01*
X146219629Y-124138519D01*
X146221459Y-124231389D01*
X146226004Y-124489007D01*
X146187825Y-124474491D01*
X146152868Y-124461156D01*
X146126697Y-124448323D01*
X146109613Y-124431780D01*
X146099686Y-124406465D01*
X146094986Y-124367316D01*
X146093582Y-124309268D01*
X146093543Y-124227261D01*
X146093344Y-124161895D01*
X146092159Y-124099173D01*
X146089329Y-124056334D01*
X146084209Y-124028220D01*
X146076153Y-124009675D01*
X146064514Y-123995543D01*
X146035903Y-123975600D01*
X145987839Y-123968083D01*
X145940288Y-123987079D01*
X145937150Y-123989511D01*
X145927369Y-124000748D01*
X145920153Y-124018770D01*
X145914899Y-124048026D01*
X145911002Y-124092962D01*
X145907856Y-124158028D01*
X145904857Y-124247670D01*
X145897600Y-124487697D01*
X145835914Y-124460044D01*
X145774229Y-124432391D01*
X145774229Y-124213246D01*
X145774484Y-124153711D01*
X145776686Y-124070892D01*
X145782261Y-124009227D01*
X145792541Y-123963748D01*
X145808858Y-123929484D01*
X145832543Y-123901466D01*
X145864928Y-123874723D01*
X145911507Y-123847780D01*
X145984887Y-123830191D01*
X146058620Y-123837822D01*
G36*
X146058620Y-123837822D02*
G01*
X146126410Y-123869680D01*
X146181966Y-123924770D01*
X146193481Y-123942016D01*
X146203032Y-123961562D01*
X146209806Y-123986198D01*
X146214419Y-124020711D01*
X146217488Y-124069889D01*
X146219629Y-124138519D01*
X146221459Y-124231389D01*
X146226004Y-124489007D01*
X146187825Y-124474491D01*
X146152868Y-124461156D01*
X146126697Y-124448323D01*
X146109613Y-124431780D01*
X146099686Y-124406465D01*
X146094986Y-124367316D01*
X146093582Y-124309268D01*
X146093543Y-124227261D01*
X146093344Y-124161895D01*
X146092159Y-124099173D01*
X146089329Y-124056334D01*
X146084209Y-124028220D01*
X146076153Y-124009675D01*
X146064514Y-123995543D01*
X146035903Y-123975600D01*
X145987839Y-123968083D01*
X145940288Y-123987079D01*
X145937150Y-123989511D01*
X145927369Y-124000748D01*
X145920153Y-124018770D01*
X145914899Y-124048026D01*
X145911002Y-124092962D01*
X145907856Y-124158028D01*
X145904857Y-124247670D01*
X145897600Y-124487697D01*
X145835914Y-124460044D01*
X145774229Y-124432391D01*
X145774229Y-124213246D01*
X145774484Y-124153711D01*
X145776686Y-124070892D01*
X145782261Y-124009227D01*
X145792541Y-123963748D01*
X145808858Y-123929484D01*
X145832543Y-123901466D01*
X145864928Y-123874723D01*
X145911507Y-123847780D01*
X145984887Y-123830191D01*
X146058620Y-123837822D01*
G37*
X144235291Y-123886467D02*
X144239873Y-123889003D01*
X144277304Y-123918057D01*
X144310770Y-123955410D01*
X144316607Y-123963852D01*
X144327765Y-123983553D01*
X144335736Y-124006935D01*
X144341218Y-124039067D01*
X144344907Y-124085019D01*
X144347499Y-124149859D01*
X144349692Y-124238657D01*
X144350002Y-124253669D01*
X144351000Y-124350999D01*
X144349594Y-124419934D01*
X144345764Y-124460948D01*
X144339489Y-124474514D01*
X144320498Y-124470452D01*
X144288238Y-124458144D01*
X144280641Y-124454545D01*
X144268776Y-124446398D01*
X144260594Y-124433004D01*
X144255243Y-124409608D01*
X144251869Y-124371455D01*
X144249619Y-124313790D01*
X144247640Y-124231857D01*
X144247098Y-124207907D01*
X144245003Y-124132266D01*
X144242283Y-124079328D01*
X144238115Y-124044075D01*
X144231679Y-124021487D01*
X144222150Y-124006544D01*
X144208706Y-123994227D01*
X144168905Y-123972634D01*
X144119941Y-123968476D01*
X144076129Y-123984999D01*
X144044608Y-124019210D01*
X144032514Y-124068114D01*
X144032178Y-124081407D01*
X144025572Y-124105472D01*
X144006070Y-124109144D01*
X143967883Y-124094813D01*
X143959038Y-124090217D01*
X143935134Y-124063186D01*
X143934661Y-124022994D01*
X143957436Y-123967409D01*
X143978327Y-123937117D01*
X144031742Y-123894084D01*
X144097674Y-123869755D01*
X144168174Y-123866443D01*
X144235291Y-123886467D01*
G36*
X144235291Y-123886467D02*
G01*
X144239873Y-123889003D01*
X144277304Y-123918057D01*
X144310770Y-123955410D01*
X144316607Y-123963852D01*
X144327765Y-123983553D01*
X144335736Y-124006935D01*
X144341218Y-124039067D01*
X144344907Y-124085019D01*
X144347499Y-124149859D01*
X144349692Y-124238657D01*
X144350002Y-124253669D01*
X144351000Y-124350999D01*
X144349594Y-124419934D01*
X144345764Y-124460948D01*
X144339489Y-124474514D01*
X144320498Y-124470452D01*
X144288238Y-124458144D01*
X144280641Y-124454545D01*
X144268776Y-124446398D01*
X144260594Y-124433004D01*
X144255243Y-124409608D01*
X144251869Y-124371455D01*
X144249619Y-124313790D01*
X144247640Y-124231857D01*
X144247098Y-124207907D01*
X144245003Y-124132266D01*
X144242283Y-124079328D01*
X144238115Y-124044075D01*
X144231679Y-124021487D01*
X144222150Y-124006544D01*
X144208706Y-123994227D01*
X144168905Y-123972634D01*
X144119941Y-123968476D01*
X144076129Y-123984999D01*
X144044608Y-124019210D01*
X144032514Y-124068114D01*
X144032178Y-124081407D01*
X144025572Y-124105472D01*
X144006070Y-124109144D01*
X143967883Y-124094813D01*
X143959038Y-124090217D01*
X143935134Y-124063186D01*
X143934661Y-124022994D01*
X143957436Y-123967409D01*
X143978327Y-123937117D01*
X144031742Y-123894084D01*
X144097674Y-123869755D01*
X144168174Y-123866443D01*
X144235291Y-123886467D01*
G37*
X145306143Y-123669444D02*
X145353314Y-123689342D01*
X145353314Y-124086509D01*
X145353119Y-124189498D01*
X145352598Y-124282141D01*
X145351799Y-124360700D01*
X145350772Y-124421439D01*
X145349563Y-124460623D01*
X145348223Y-124474514D01*
X145347699Y-124474468D01*
X145329887Y-124469420D01*
X145297423Y-124458580D01*
X145251714Y-124442646D01*
X145251714Y-124238173D01*
X145251424Y-124157832D01*
X145250074Y-124099562D01*
X145246969Y-124059909D01*
X145241412Y-124033618D01*
X145232707Y-124015436D01*
X145220156Y-124000107D01*
X145211599Y-123991955D01*
X145165328Y-123969375D01*
X145114328Y-123971375D01*
X145067593Y-123998073D01*
X145060789Y-124004698D01*
X145049893Y-124018456D01*
X145042436Y-124036642D01*
X145037769Y-124064177D01*
X145035242Y-124105981D01*
X145034202Y-124166973D01*
X145034000Y-124252073D01*
X145033903Y-124295234D01*
X145033274Y-124366224D01*
X145032156Y-124423076D01*
X145030663Y-124460828D01*
X145028909Y-124474514D01*
X145028385Y-124474468D01*
X145010573Y-124469420D01*
X144978109Y-124458580D01*
X144932400Y-124442646D01*
X144932423Y-124237237D01*
X144932457Y-124218951D01*
X144934378Y-124123626D01*
X144940278Y-124051543D01*
X144951601Y-123997813D01*
X144969787Y-123957549D01*
X144996279Y-123925861D01*
X145032518Y-123897861D01*
X145067863Y-123880333D01*
X145124373Y-123866785D01*
X145179956Y-123866015D01*
X145222686Y-123879195D01*
X145225898Y-123881015D01*
X145235805Y-123880820D01*
X145242575Y-123865572D01*
X145247461Y-123830613D01*
X145251714Y-123771289D01*
X145258971Y-123649547D01*
X145306143Y-123669444D01*
G36*
X145306143Y-123669444D02*
G01*
X145353314Y-123689342D01*
X145353314Y-124086509D01*
X145353119Y-124189498D01*
X145352598Y-124282141D01*
X145351799Y-124360700D01*
X145350772Y-124421439D01*
X145349563Y-124460623D01*
X145348223Y-124474514D01*
X145347699Y-124474468D01*
X145329887Y-124469420D01*
X145297423Y-124458580D01*
X145251714Y-124442646D01*
X145251714Y-124238173D01*
X145251424Y-124157832D01*
X145250074Y-124099562D01*
X145246969Y-124059909D01*
X145241412Y-124033618D01*
X145232707Y-124015436D01*
X145220156Y-124000107D01*
X145211599Y-123991955D01*
X145165328Y-123969375D01*
X145114328Y-123971375D01*
X145067593Y-123998073D01*
X145060789Y-124004698D01*
X145049893Y-124018456D01*
X145042436Y-124036642D01*
X145037769Y-124064177D01*
X145035242Y-124105981D01*
X145034202Y-124166973D01*
X145034000Y-124252073D01*
X145033903Y-124295234D01*
X145033274Y-124366224D01*
X145032156Y-124423076D01*
X145030663Y-124460828D01*
X145028909Y-124474514D01*
X145028385Y-124474468D01*
X145010573Y-124469420D01*
X144978109Y-124458580D01*
X144932400Y-124442646D01*
X144932423Y-124237237D01*
X144932457Y-124218951D01*
X144934378Y-124123626D01*
X144940278Y-124051543D01*
X144951601Y-123997813D01*
X144969787Y-123957549D01*
X144996279Y-123925861D01*
X145032518Y-123897861D01*
X145067863Y-123880333D01*
X145124373Y-123866785D01*
X145179956Y-123866015D01*
X145222686Y-123879195D01*
X145225898Y-123881015D01*
X145235805Y-123880820D01*
X145242575Y-123865572D01*
X145247461Y-123830613D01*
X145251714Y-123771289D01*
X145258971Y-123649547D01*
X145306143Y-123669444D01*
G37*
X143281541Y-123869282D02*
X143313374Y-123881758D01*
X143350343Y-123898602D01*
X143350343Y-124385196D01*
X143304412Y-124431127D01*
X143293920Y-124441427D01*
X143264855Y-124464320D01*
X143235543Y-124471735D01*
X143191926Y-124468321D01*
X143174168Y-124466114D01*
X143128367Y-124461445D01*
X143096343Y-124459585D01*
X143086844Y-124459869D01*
X143047874Y-124462948D01*
X143000760Y-124468321D01*
X142985685Y-124470168D01*
X142947710Y-124470893D01*
X142919925Y-124459429D01*
X142888274Y-124431127D01*
X142842343Y-124385196D01*
X142842343Y-124125055D01*
X142842701Y-124048180D01*
X142843816Y-123974886D01*
X142845552Y-123916850D01*
X142847767Y-123878663D01*
X142850321Y-123864914D01*
X142850856Y-123864951D01*
X142869408Y-123871793D01*
X142900753Y-123886868D01*
X142943208Y-123908822D01*
X142947204Y-124137240D01*
X142951200Y-124365657D01*
X143038286Y-124365657D01*
X143042257Y-124115286D01*
X143043516Y-124047227D01*
X143045318Y-123974482D01*
X143047271Y-123916730D01*
X143049212Y-123878648D01*
X143050977Y-123864914D01*
X143051485Y-123864962D01*
X143069082Y-123870015D01*
X143101434Y-123880849D01*
X143147143Y-123896783D01*
X143147365Y-124116706D01*
X143147588Y-124154909D01*
X143149131Y-124229146D01*
X143151892Y-124291145D01*
X143155577Y-124335308D01*
X143159892Y-124356041D01*
X143175332Y-124367131D01*
X143206841Y-124370556D01*
X143241486Y-124365657D01*
X143245457Y-124115286D01*
X143246878Y-124051663D01*
X143249825Y-123976356D01*
X143253679Y-123917286D01*
X143258142Y-123878718D01*
X143262917Y-123864914D01*
X143281541Y-123869282D01*
G36*
X143281541Y-123869282D02*
G01*
X143313374Y-123881758D01*
X143350343Y-123898602D01*
X143350343Y-124385196D01*
X143304412Y-124431127D01*
X143293920Y-124441427D01*
X143264855Y-124464320D01*
X143235543Y-124471735D01*
X143191926Y-124468321D01*
X143174168Y-124466114D01*
X143128367Y-124461445D01*
X143096343Y-124459585D01*
X143086844Y-124459869D01*
X143047874Y-124462948D01*
X143000760Y-124468321D01*
X142985685Y-124470168D01*
X142947710Y-124470893D01*
X142919925Y-124459429D01*
X142888274Y-124431127D01*
X142842343Y-124385196D01*
X142842343Y-124125055D01*
X142842701Y-124048180D01*
X142843816Y-123974886D01*
X142845552Y-123916850D01*
X142847767Y-123878663D01*
X142850321Y-123864914D01*
X142850856Y-123864951D01*
X142869408Y-123871793D01*
X142900753Y-123886868D01*
X142943208Y-123908822D01*
X142947204Y-124137240D01*
X142951200Y-124365657D01*
X143038286Y-124365657D01*
X143042257Y-124115286D01*
X143043516Y-124047227D01*
X143045318Y-123974482D01*
X143047271Y-123916730D01*
X143049212Y-123878648D01*
X143050977Y-123864914D01*
X143051485Y-123864962D01*
X143069082Y-123870015D01*
X143101434Y-123880849D01*
X143147143Y-123896783D01*
X143147365Y-124116706D01*
X143147588Y-124154909D01*
X143149131Y-124229146D01*
X143151892Y-124291145D01*
X143155577Y-124335308D01*
X143159892Y-124356041D01*
X143175332Y-124367131D01*
X143206841Y-124370556D01*
X143241486Y-124365657D01*
X143245457Y-124115286D01*
X143246878Y-124051663D01*
X143249825Y-123976356D01*
X143253679Y-123917286D01*
X143258142Y-123878718D01*
X143262917Y-123864914D01*
X143281541Y-123869282D01*
G37*
X147893314Y-124155200D02*
X147893301Y-124170935D01*
X147892514Y-124241119D01*
X147889810Y-124290022D01*
X147884206Y-124324178D01*
X147874719Y-124350124D01*
X147860368Y-124374397D01*
X147856837Y-124379433D01*
X147819478Y-124419143D01*
X147776911Y-124449092D01*
X147755052Y-124458810D01*
X147676508Y-124475020D01*
X147598831Y-124464535D01*
X147527245Y-124428707D01*
X147466974Y-124368887D01*
X147461886Y-124360873D01*
X147445330Y-124314342D01*
X147434173Y-124249552D01*
X147428760Y-124174727D01*
X147429368Y-124105513D01*
X147575848Y-124105513D01*
X147577002Y-124201399D01*
X147577466Y-124207569D01*
X147584229Y-124260478D01*
X147596271Y-124294029D01*
X147616605Y-124317016D01*
X147650697Y-124338548D01*
X147684414Y-124339680D01*
X147719143Y-124314857D01*
X147725184Y-124308325D01*
X147737017Y-124288779D01*
X147744004Y-124260386D01*
X147747327Y-124216430D01*
X147748171Y-124150192D01*
X147746725Y-124088150D01*
X147739507Y-124029042D01*
X147724606Y-123991686D01*
X147700236Y-123972152D01*
X147664608Y-123966514D01*
X147651040Y-123967635D01*
X147613030Y-123988194D01*
X147587912Y-124034299D01*
X147575848Y-124105513D01*
X147429368Y-124105513D01*
X147429433Y-124098096D01*
X147436537Y-124027882D01*
X147450415Y-123972312D01*
X147468249Y-123935301D01*
X147518455Y-123877733D01*
X147586485Y-123841962D01*
X147669758Y-123829665D01*
X147691998Y-123830331D01*
X147757491Y-123843947D01*
X147811287Y-123878249D01*
X147860657Y-123937338D01*
X147863595Y-123941722D01*
X147876887Y-123965299D01*
X147885532Y-123991949D01*
X147890504Y-124028159D01*
X147892774Y-124080413D01*
X147893278Y-124150192D01*
X147893314Y-124155200D01*
G36*
X147893314Y-124155200D02*
G01*
X147893301Y-124170935D01*
X147892514Y-124241119D01*
X147889810Y-124290022D01*
X147884206Y-124324178D01*
X147874719Y-124350124D01*
X147860368Y-124374397D01*
X147856837Y-124379433D01*
X147819478Y-124419143D01*
X147776911Y-124449092D01*
X147755052Y-124458810D01*
X147676508Y-124475020D01*
X147598831Y-124464535D01*
X147527245Y-124428707D01*
X147466974Y-124368887D01*
X147461886Y-124360873D01*
X147445330Y-124314342D01*
X147434173Y-124249552D01*
X147428760Y-124174727D01*
X147429368Y-124105513D01*
X147575848Y-124105513D01*
X147577002Y-124201399D01*
X147577466Y-124207569D01*
X147584229Y-124260478D01*
X147596271Y-124294029D01*
X147616605Y-124317016D01*
X147650697Y-124338548D01*
X147684414Y-124339680D01*
X147719143Y-124314857D01*
X147725184Y-124308325D01*
X147737017Y-124288779D01*
X147744004Y-124260386D01*
X147747327Y-124216430D01*
X147748171Y-124150192D01*
X147746725Y-124088150D01*
X147739507Y-124029042D01*
X147724606Y-123991686D01*
X147700236Y-123972152D01*
X147664608Y-123966514D01*
X147651040Y-123967635D01*
X147613030Y-123988194D01*
X147587912Y-124034299D01*
X147575848Y-124105513D01*
X147429368Y-124105513D01*
X147429433Y-124098096D01*
X147436537Y-124027882D01*
X147450415Y-123972312D01*
X147468249Y-123935301D01*
X147518455Y-123877733D01*
X147586485Y-123841962D01*
X147669758Y-123829665D01*
X147691998Y-123830331D01*
X147757491Y-123843947D01*
X147811287Y-123878249D01*
X147860657Y-123937338D01*
X147863595Y-123941722D01*
X147876887Y-123965299D01*
X147885532Y-123991949D01*
X147890504Y-124028159D01*
X147892774Y-124080413D01*
X147893278Y-124150192D01*
X147893314Y-124155200D01*
G37*
X141768190Y-124172622D02*
X141767907Y-124211305D01*
X141764362Y-124287521D01*
X141755083Y-124343294D01*
X141737975Y-124384613D01*
X141710944Y-124417467D01*
X141671892Y-124447846D01*
X141647045Y-124461660D01*
X141607215Y-124470965D01*
X141551265Y-124470230D01*
X141519985Y-124467283D01*
X141482253Y-124458283D01*
X141452094Y-124438720D01*
X141417008Y-124402267D01*
X141412320Y-124396943D01*
X141380777Y-124355969D01*
X141365728Y-124320283D01*
X141361886Y-124277966D01*
X141361886Y-124215779D01*
X141405342Y-124232182D01*
X141437024Y-124251356D01*
X141464562Y-124296347D01*
X141470311Y-124310752D01*
X141502455Y-124351546D01*
X141546211Y-124372081D01*
X141593854Y-124370235D01*
X141637657Y-124343886D01*
X141652711Y-124327455D01*
X141666363Y-124302667D01*
X141662093Y-124280144D01*
X141637516Y-124256964D01*
X141590251Y-124230202D01*
X141517914Y-124196934D01*
X141369143Y-124131816D01*
X141365195Y-124067308D01*
X141366679Y-124026220D01*
X141463610Y-124026220D01*
X141470968Y-124051657D01*
X141504448Y-124078814D01*
X141565214Y-124109714D01*
X141575269Y-124114190D01*
X141623351Y-124135017D01*
X141659326Y-124149665D01*
X141676044Y-124155200D01*
X141678577Y-124151126D01*
X141679593Y-124126247D01*
X141675969Y-124086257D01*
X141666842Y-124047152D01*
X141638373Y-123997884D01*
X141597278Y-123970122D01*
X141548190Y-123966364D01*
X141495744Y-123989109D01*
X141481209Y-124000481D01*
X141463610Y-124026220D01*
X141366679Y-124026220D01*
X141366938Y-124019064D01*
X141388881Y-123958096D01*
X141416579Y-123924497D01*
X141474005Y-123886966D01*
X141542127Y-123868006D01*
X141612547Y-123869507D01*
X141676867Y-123893355D01*
X141691026Y-123902513D01*
X141723504Y-123930849D01*
X141745716Y-123966695D01*
X141759404Y-124015384D01*
X141766315Y-124082249D01*
X141767228Y-124126247D01*
X141768190Y-124172622D01*
G36*
X141768190Y-124172622D02*
G01*
X141767907Y-124211305D01*
X141764362Y-124287521D01*
X141755083Y-124343294D01*
X141737975Y-124384613D01*
X141710944Y-124417467D01*
X141671892Y-124447846D01*
X141647045Y-124461660D01*
X141607215Y-124470965D01*
X141551265Y-124470230D01*
X141519985Y-124467283D01*
X141482253Y-124458283D01*
X141452094Y-124438720D01*
X141417008Y-124402267D01*
X141412320Y-124396943D01*
X141380777Y-124355969D01*
X141365728Y-124320283D01*
X141361886Y-124277966D01*
X141361886Y-124215779D01*
X141405342Y-124232182D01*
X141437024Y-124251356D01*
X141464562Y-124296347D01*
X141470311Y-124310752D01*
X141502455Y-124351546D01*
X141546211Y-124372081D01*
X141593854Y-124370235D01*
X141637657Y-124343886D01*
X141652711Y-124327455D01*
X141666363Y-124302667D01*
X141662093Y-124280144D01*
X141637516Y-124256964D01*
X141590251Y-124230202D01*
X141517914Y-124196934D01*
X141369143Y-124131816D01*
X141365195Y-124067308D01*
X141366679Y-124026220D01*
X141463610Y-124026220D01*
X141470968Y-124051657D01*
X141504448Y-124078814D01*
X141565214Y-124109714D01*
X141575269Y-124114190D01*
X141623351Y-124135017D01*
X141659326Y-124149665D01*
X141676044Y-124155200D01*
X141678577Y-124151126D01*
X141679593Y-124126247D01*
X141675969Y-124086257D01*
X141666842Y-124047152D01*
X141638373Y-123997884D01*
X141597278Y-123970122D01*
X141548190Y-123966364D01*
X141495744Y-123989109D01*
X141481209Y-124000481D01*
X141463610Y-124026220D01*
X141366679Y-124026220D01*
X141366938Y-124019064D01*
X141388881Y-123958096D01*
X141416579Y-123924497D01*
X141474005Y-123886966D01*
X141542127Y-123868006D01*
X141612547Y-123869507D01*
X141676867Y-123893355D01*
X141691026Y-123902513D01*
X141723504Y-123930849D01*
X141745716Y-123966695D01*
X141759404Y-124015384D01*
X141766315Y-124082249D01*
X141767228Y-124126247D01*
X141768190Y-124172622D01*
G37*
X143858298Y-124169714D02*
X143857137Y-124226313D01*
X143848945Y-124303462D01*
X143831119Y-124361276D01*
X143801575Y-124405422D01*
X143758225Y-124441568D01*
X143716932Y-124462463D01*
X143647587Y-124474090D01*
X143578336Y-124461377D01*
X143515745Y-124425945D01*
X143466379Y-124369418D01*
X143460418Y-124358995D01*
X143452545Y-124340733D01*
X143446706Y-124317429D01*
X143442599Y-124285085D01*
X143439925Y-124239704D01*
X143438381Y-124177287D01*
X143438334Y-124171748D01*
X143539029Y-124171748D01*
X143539372Y-124224577D01*
X143541542Y-124272362D01*
X143546907Y-124303209D01*
X143556817Y-124323935D01*
X143572621Y-124341356D01*
X143576324Y-124344705D01*
X143623899Y-124369419D01*
X143674235Y-124366890D01*
X143721117Y-124337288D01*
X143735077Y-124321953D01*
X143746760Y-124301622D01*
X143753286Y-124273514D01*
X143756124Y-124230550D01*
X143756743Y-124165647D01*
X143756437Y-124116122D01*
X143754322Y-124067782D01*
X143748990Y-124036587D01*
X143739060Y-124015647D01*
X143723150Y-123998073D01*
X143713804Y-123990159D01*
X143665376Y-123968843D01*
X143614640Y-123972198D01*
X143570587Y-124000107D01*
X143561104Y-124011173D01*
X143549539Y-124032009D01*
X143542852Y-124061106D01*
X143539773Y-124105381D01*
X143539029Y-124171748D01*
X143438334Y-124171748D01*
X143437667Y-124093837D01*
X143437483Y-123985358D01*
X143437429Y-123648601D01*
X143484600Y-123668362D01*
X143497072Y-123673770D01*
X143516924Y-123685985D01*
X143528287Y-123704482D01*
X143534533Y-123736829D01*
X143539029Y-123790593D01*
X143543135Y-123838866D01*
X143548563Y-123870557D01*
X143556339Y-123882383D01*
X143568057Y-123879212D01*
X143597918Y-123868067D01*
X143651284Y-123865304D01*
X143708693Y-123875625D01*
X143758225Y-123897861D01*
X143785476Y-123918443D01*
X143820465Y-123958600D01*
X143842874Y-124010086D01*
X143854790Y-124078568D01*
X143858142Y-124165647D01*
X143858298Y-124169714D01*
G36*
X143858298Y-124169714D02*
G01*
X143857137Y-124226313D01*
X143848945Y-124303462D01*
X143831119Y-124361276D01*
X143801575Y-124405422D01*
X143758225Y-124441568D01*
X143716932Y-124462463D01*
X143647587Y-124474090D01*
X143578336Y-124461377D01*
X143515745Y-124425945D01*
X143466379Y-124369418D01*
X143460418Y-124358995D01*
X143452545Y-124340733D01*
X143446706Y-124317429D01*
X143442599Y-124285085D01*
X143439925Y-124239704D01*
X143438381Y-124177287D01*
X143438334Y-124171748D01*
X143539029Y-124171748D01*
X143539372Y-124224577D01*
X143541542Y-124272362D01*
X143546907Y-124303209D01*
X143556817Y-124323935D01*
X143572621Y-124341356D01*
X143576324Y-124344705D01*
X143623899Y-124369419D01*
X143674235Y-124366890D01*
X143721117Y-124337288D01*
X143735077Y-124321953D01*
X143746760Y-124301622D01*
X143753286Y-124273514D01*
X143756124Y-124230550D01*
X143756743Y-124165647D01*
X143756437Y-124116122D01*
X143754322Y-124067782D01*
X143748990Y-124036587D01*
X143739060Y-124015647D01*
X143723150Y-123998073D01*
X143713804Y-123990159D01*
X143665376Y-123968843D01*
X143614640Y-123972198D01*
X143570587Y-124000107D01*
X143561104Y-124011173D01*
X143549539Y-124032009D01*
X143542852Y-124061106D01*
X143539773Y-124105381D01*
X143539029Y-124171748D01*
X143438334Y-124171748D01*
X143437667Y-124093837D01*
X143437483Y-123985358D01*
X143437429Y-123648601D01*
X143484600Y-123668362D01*
X143497072Y-123673770D01*
X143516924Y-123685985D01*
X143528287Y-123704482D01*
X143534533Y-123736829D01*
X143539029Y-123790593D01*
X143543135Y-123838866D01*
X143548563Y-123870557D01*
X143556339Y-123882383D01*
X143568057Y-123879212D01*
X143597918Y-123868067D01*
X143651284Y-123865304D01*
X143708693Y-123875625D01*
X143758225Y-123897861D01*
X143785476Y-123918443D01*
X143820465Y-123958600D01*
X143842874Y-124010086D01*
X143854790Y-124078568D01*
X143858142Y-124165647D01*
X143858298Y-124169714D01*
G37*
X146789899Y-124114055D02*
X146785284Y-124224078D01*
X146782678Y-124247387D01*
X146763260Y-124330352D01*
X146728173Y-124393448D01*
X146674812Y-124441808D01*
X146671796Y-124443804D01*
X146603962Y-124472185D01*
X146533135Y-124474711D01*
X146464889Y-124453097D01*
X146404796Y-124409062D01*
X146358429Y-124344322D01*
X146357650Y-124342761D01*
X146342243Y-124302558D01*
X146330957Y-124256866D01*
X146324970Y-124213972D01*
X146325461Y-124182160D01*
X146333607Y-124169714D01*
X146340844Y-124170471D01*
X146375451Y-124184235D01*
X146414678Y-124209546D01*
X146448048Y-124238845D01*
X146465083Y-124264572D01*
X146482792Y-124299471D01*
X146519085Y-124331212D01*
X146561230Y-124343886D01*
X146576677Y-124340221D01*
X146607169Y-124321774D01*
X146633728Y-124296166D01*
X146645086Y-124272934D01*
X146645082Y-124272848D01*
X146632196Y-124262179D01*
X146597841Y-124242933D01*
X146547193Y-124217813D01*
X146485429Y-124189524D01*
X146485089Y-124189374D01*
X146417988Y-124159498D01*
X146373011Y-124137973D01*
X146345745Y-124121437D01*
X146331778Y-124106531D01*
X146326697Y-124089893D01*
X146326090Y-124068162D01*
X146330312Y-124027013D01*
X146473600Y-124027013D01*
X146488391Y-124039949D01*
X146525244Y-124059333D01*
X146526325Y-124059881D01*
X146569805Y-124080587D01*
X146608702Y-124097105D01*
X146633378Y-124104093D01*
X146643276Y-124094753D01*
X146645086Y-124062748D01*
X146637566Y-124022915D01*
X146611497Y-123986717D01*
X146573754Y-123967950D01*
X146531677Y-123969845D01*
X146492605Y-123995632D01*
X146477247Y-124013451D01*
X146473600Y-124027013D01*
X146330312Y-124027013D01*
X146331433Y-124016086D01*
X146357851Y-123945335D01*
X146402073Y-123889735D01*
X146459297Y-123851239D01*
X146524720Y-123831797D01*
X146593537Y-123833359D01*
X146660947Y-123857878D01*
X146722144Y-123907302D01*
X146756050Y-123956212D01*
X146780406Y-124026027D01*
X146784367Y-124062748D01*
X146789899Y-124114055D01*
G36*
X146789899Y-124114055D02*
G01*
X146785284Y-124224078D01*
X146782678Y-124247387D01*
X146763260Y-124330352D01*
X146728173Y-124393448D01*
X146674812Y-124441808D01*
X146671796Y-124443804D01*
X146603962Y-124472185D01*
X146533135Y-124474711D01*
X146464889Y-124453097D01*
X146404796Y-124409062D01*
X146358429Y-124344322D01*
X146357650Y-124342761D01*
X146342243Y-124302558D01*
X146330957Y-124256866D01*
X146324970Y-124213972D01*
X146325461Y-124182160D01*
X146333607Y-124169714D01*
X146340844Y-124170471D01*
X146375451Y-124184235D01*
X146414678Y-124209546D01*
X146448048Y-124238845D01*
X146465083Y-124264572D01*
X146482792Y-124299471D01*
X146519085Y-124331212D01*
X146561230Y-124343886D01*
X146576677Y-124340221D01*
X146607169Y-124321774D01*
X146633728Y-124296166D01*
X146645086Y-124272934D01*
X146645082Y-124272848D01*
X146632196Y-124262179D01*
X146597841Y-124242933D01*
X146547193Y-124217813D01*
X146485429Y-124189524D01*
X146485089Y-124189374D01*
X146417988Y-124159498D01*
X146373011Y-124137973D01*
X146345745Y-124121437D01*
X146331778Y-124106531D01*
X146326697Y-124089893D01*
X146326090Y-124068162D01*
X146330312Y-124027013D01*
X146473600Y-124027013D01*
X146488391Y-124039949D01*
X146525244Y-124059333D01*
X146526325Y-124059881D01*
X146569805Y-124080587D01*
X146608702Y-124097105D01*
X146633378Y-124104093D01*
X146643276Y-124094753D01*
X146645086Y-124062748D01*
X146637566Y-124022915D01*
X146611497Y-123986717D01*
X146573754Y-123967950D01*
X146531677Y-123969845D01*
X146492605Y-123995632D01*
X146477247Y-124013451D01*
X146473600Y-124027013D01*
X146330312Y-124027013D01*
X146331433Y-124016086D01*
X146357851Y-123945335D01*
X146402073Y-123889735D01*
X146459297Y-123851239D01*
X146524720Y-123831797D01*
X146593537Y-123833359D01*
X146660947Y-123857878D01*
X146722144Y-123907302D01*
X146756050Y-123956212D01*
X146780406Y-124026027D01*
X146784367Y-124062748D01*
X146789899Y-124114055D01*
G37*
X144717083Y-123880569D02*
X144766976Y-123909661D01*
X144788925Y-123932327D01*
X144831104Y-124000082D01*
X144845314Y-124073950D01*
X144845314Y-124124770D01*
X144798599Y-124105128D01*
X144766292Y-124085308D01*
X144740831Y-124044160D01*
X144738216Y-124035675D01*
X144710078Y-123992451D01*
X144667667Y-123969103D01*
X144618970Y-123968100D01*
X144571973Y-123991914D01*
X144564957Y-123998056D01*
X144541493Y-124024745D01*
X144537619Y-124048014D01*
X144555368Y-124070862D01*
X144596779Y-124096287D01*
X144663886Y-124127288D01*
X144668424Y-124129252D01*
X144742922Y-124163990D01*
X144793803Y-124194763D01*
X144825125Y-124225488D01*
X144840943Y-124260082D01*
X144845314Y-124302462D01*
X144839586Y-124349446D01*
X144810662Y-124409585D01*
X144759778Y-124452788D01*
X144722974Y-124465759D01*
X144671034Y-124472856D01*
X144620599Y-124471340D01*
X144584583Y-124460632D01*
X144580758Y-124457966D01*
X144570598Y-124439337D01*
X144577648Y-124406505D01*
X144589897Y-124380735D01*
X144609539Y-124370006D01*
X144646791Y-124370539D01*
X144698508Y-124367462D01*
X144732301Y-124346212D01*
X144743714Y-124306877D01*
X144743704Y-124305747D01*
X144736787Y-124282913D01*
X144713259Y-124261963D01*
X144667514Y-124237815D01*
X144605304Y-124208741D01*
X144564099Y-124192925D01*
X144540312Y-124193944D01*
X144529197Y-124214837D01*
X144526008Y-124258641D01*
X144526000Y-124328393D01*
X144525644Y-124371452D01*
X144524013Y-124424626D01*
X144521361Y-124461022D01*
X144518022Y-124474514D01*
X144517130Y-124474423D01*
X144497837Y-124467110D01*
X144465884Y-124451678D01*
X144421724Y-124428842D01*
X144426971Y-124223078D01*
X144427336Y-124209432D01*
X144431504Y-124113651D01*
X144438868Y-124041462D01*
X144450930Y-123988058D01*
X144469193Y-123948633D01*
X144495160Y-123918380D01*
X144530333Y-123892493D01*
X144530984Y-123892087D01*
X144587856Y-123870968D01*
X144653633Y-123867400D01*
X144717083Y-123880569D01*
G36*
X144717083Y-123880569D02*
G01*
X144766976Y-123909661D01*
X144788925Y-123932327D01*
X144831104Y-124000082D01*
X144845314Y-124073950D01*
X144845314Y-124124770D01*
X144798599Y-124105128D01*
X144766292Y-124085308D01*
X144740831Y-124044160D01*
X144738216Y-124035675D01*
X144710078Y-123992451D01*
X144667667Y-123969103D01*
X144618970Y-123968100D01*
X144571973Y-123991914D01*
X144564957Y-123998056D01*
X144541493Y-124024745D01*
X144537619Y-124048014D01*
X144555368Y-124070862D01*
X144596779Y-124096287D01*
X144663886Y-124127288D01*
X144668424Y-124129252D01*
X144742922Y-124163990D01*
X144793803Y-124194763D01*
X144825125Y-124225488D01*
X144840943Y-124260082D01*
X144845314Y-124302462D01*
X144839586Y-124349446D01*
X144810662Y-124409585D01*
X144759778Y-124452788D01*
X144722974Y-124465759D01*
X144671034Y-124472856D01*
X144620599Y-124471340D01*
X144584583Y-124460632D01*
X144580758Y-124457966D01*
X144570598Y-124439337D01*
X144577648Y-124406505D01*
X144589897Y-124380735D01*
X144609539Y-124370006D01*
X144646791Y-124370539D01*
X144698508Y-124367462D01*
X144732301Y-124346212D01*
X144743714Y-124306877D01*
X144743704Y-124305747D01*
X144736787Y-124282913D01*
X144713259Y-124261963D01*
X144667514Y-124237815D01*
X144605304Y-124208741D01*
X144564099Y-124192925D01*
X144540312Y-124193944D01*
X144529197Y-124214837D01*
X144526008Y-124258641D01*
X144526000Y-124328393D01*
X144525644Y-124371452D01*
X144524013Y-124424626D01*
X144521361Y-124461022D01*
X144518022Y-124474514D01*
X144517130Y-124474423D01*
X144497837Y-124467110D01*
X144465884Y-124451678D01*
X144421724Y-124428842D01*
X144426971Y-124223078D01*
X144427336Y-124209432D01*
X144431504Y-124113651D01*
X144438868Y-124041462D01*
X144450930Y-123988058D01*
X144469193Y-123948633D01*
X144495160Y-123918380D01*
X144530333Y-123892493D01*
X144530984Y-123892087D01*
X144587856Y-123870968D01*
X144653633Y-123867400D01*
X144717083Y-123880569D01*
G37*
X147337415Y-124221524D02*
X147338852Y-124333000D01*
X147339251Y-124365339D01*
X147340529Y-124473455D01*
X147340785Y-124556186D01*
X147339234Y-124616426D01*
X147335090Y-124657073D01*
X147327564Y-124681023D01*
X147315871Y-124691171D01*
X147299224Y-124690414D01*
X147276836Y-124681648D01*
X147247921Y-124667769D01*
X147241742Y-124664808D01*
X147216013Y-124650311D01*
X147202576Y-124633065D01*
X147197434Y-124604308D01*
X147196590Y-124555283D01*
X147196552Y-124467257D01*
X147105876Y-124467257D01*
X147050098Y-124464815D01*
X147006240Y-124454908D01*
X146969818Y-124434886D01*
X146967103Y-124432929D01*
X146930146Y-124399869D01*
X146904426Y-124359931D01*
X146888206Y-124307657D01*
X146879748Y-124237588D01*
X146877683Y-124158430D01*
X147022457Y-124158430D01*
X147022482Y-124171697D01*
X147023861Y-124231584D01*
X147028287Y-124270732D01*
X147037061Y-124296153D01*
X147051486Y-124314857D01*
X147052384Y-124315750D01*
X147087837Y-124339952D01*
X147122196Y-124337567D01*
X147161003Y-124308260D01*
X147170495Y-124298244D01*
X147184476Y-124277708D01*
X147192360Y-124250997D01*
X147195845Y-124210499D01*
X147196629Y-124148603D01*
X147195950Y-124111130D01*
X147188583Y-124042980D01*
X147171768Y-123998330D01*
X147143834Y-123973926D01*
X147103109Y-123966514D01*
X147085950Y-123968094D01*
X147056260Y-123983766D01*
X147036631Y-124018691D01*
X147025788Y-124075901D01*
X147022457Y-124158430D01*
X146877683Y-124158430D01*
X146877314Y-124144267D01*
X146877853Y-124076169D01*
X146880307Y-124024587D01*
X146885758Y-123988816D01*
X146895286Y-123962015D01*
X146909971Y-123937338D01*
X146923452Y-123918480D01*
X146972399Y-123867568D01*
X147027856Y-123839918D01*
X147097528Y-123831165D01*
X147177264Y-123839890D01*
X147246195Y-123871185D01*
X147300713Y-123926381D01*
X147304823Y-123932224D01*
X147314408Y-123947753D01*
X147321751Y-123965498D01*
X147327212Y-123989290D01*
X147331150Y-124022958D01*
X147333923Y-124070333D01*
X147335892Y-124135245D01*
X147336128Y-124148603D01*
X147337415Y-124221524D01*
G36*
X147337415Y-124221524D02*
G01*
X147338852Y-124333000D01*
X147339251Y-124365339D01*
X147340529Y-124473455D01*
X147340785Y-124556186D01*
X147339234Y-124616426D01*
X147335090Y-124657073D01*
X147327564Y-124681023D01*
X147315871Y-124691171D01*
X147299224Y-124690414D01*
X147276836Y-124681648D01*
X147247921Y-124667769D01*
X147241742Y-124664808D01*
X147216013Y-124650311D01*
X147202576Y-124633065D01*
X147197434Y-124604308D01*
X147196590Y-124555283D01*
X147196552Y-124467257D01*
X147105876Y-124467257D01*
X147050098Y-124464815D01*
X147006240Y-124454908D01*
X146969818Y-124434886D01*
X146967103Y-124432929D01*
X146930146Y-124399869D01*
X146904426Y-124359931D01*
X146888206Y-124307657D01*
X146879748Y-124237588D01*
X146877683Y-124158430D01*
X147022457Y-124158430D01*
X147022482Y-124171697D01*
X147023861Y-124231584D01*
X147028287Y-124270732D01*
X147037061Y-124296153D01*
X147051486Y-124314857D01*
X147052384Y-124315750D01*
X147087837Y-124339952D01*
X147122196Y-124337567D01*
X147161003Y-124308260D01*
X147170495Y-124298244D01*
X147184476Y-124277708D01*
X147192360Y-124250997D01*
X147195845Y-124210499D01*
X147196629Y-124148603D01*
X147195950Y-124111130D01*
X147188583Y-124042980D01*
X147171768Y-123998330D01*
X147143834Y-123973926D01*
X147103109Y-123966514D01*
X147085950Y-123968094D01*
X147056260Y-123983766D01*
X147036631Y-124018691D01*
X147025788Y-124075901D01*
X147022457Y-124158430D01*
X146877683Y-124158430D01*
X146877314Y-124144267D01*
X146877853Y-124076169D01*
X146880307Y-124024587D01*
X146885758Y-123988816D01*
X146895286Y-123962015D01*
X146909971Y-123937338D01*
X146923452Y-123918480D01*
X146972399Y-123867568D01*
X147027856Y-123839918D01*
X147097528Y-123831165D01*
X147177264Y-123839890D01*
X147246195Y-123871185D01*
X147300713Y-123926381D01*
X147304823Y-123932224D01*
X147314408Y-123947753D01*
X147321751Y-123965498D01*
X147327212Y-123989290D01*
X147331150Y-124022958D01*
X147333923Y-124070333D01*
X147335892Y-124135245D01*
X147336128Y-124148603D01*
X147337415Y-124221524D01*
G37*
X142595095Y-123866220D02*
X142626199Y-123874121D01*
X142655159Y-123893817D01*
X142692431Y-123930484D01*
X142716401Y-123956378D01*
X142741370Y-123989997D01*
X142752631Y-124021506D01*
X142755257Y-124061485D01*
X142755257Y-124126917D01*
X142710635Y-124103842D01*
X142675273Y-124075724D01*
X142651051Y-124037848D01*
X142646891Y-124027551D01*
X142615194Y-123987637D01*
X142571154Y-123967624D01*
X142523131Y-123969572D01*
X142479486Y-123995543D01*
X142461020Y-124016635D01*
X142450263Y-124043619D01*
X142461778Y-124067634D01*
X142497581Y-124091791D01*
X142559690Y-124119199D01*
X142569115Y-124122985D01*
X142625658Y-124147759D01*
X142674180Y-124172189D01*
X142705051Y-124191486D01*
X142735971Y-124225953D01*
X142756527Y-124280957D01*
X142754344Y-124339983D01*
X142730024Y-124395845D01*
X142684168Y-124441355D01*
X142647038Y-124460727D01*
X142575311Y-124474292D01*
X142535452Y-124472462D01*
X142498553Y-124462568D01*
X142484397Y-124441806D01*
X142489691Y-124407613D01*
X142491231Y-124403092D01*
X142503442Y-124379116D01*
X142523774Y-124370042D01*
X142562508Y-124370649D01*
X142589857Y-124371474D01*
X142621857Y-124364392D01*
X142643782Y-124343219D01*
X142656270Y-124317152D01*
X142657662Y-124289845D01*
X142657598Y-124289685D01*
X142641407Y-124274930D01*
X142606755Y-124253457D01*
X142561921Y-124229458D01*
X142515182Y-124207125D01*
X142474817Y-124190652D01*
X142449104Y-124184229D01*
X142445279Y-124190518D01*
X142440464Y-124220115D01*
X142437166Y-124268447D01*
X142435943Y-124329372D01*
X142435658Y-124371542D01*
X142434318Y-124424653D01*
X142432128Y-124461025D01*
X142429369Y-124474514D01*
X142414944Y-124469981D01*
X142385826Y-124457670D01*
X142348857Y-124440826D01*
X142348857Y-124224721D01*
X142349093Y-124169327D01*
X142351329Y-124085207D01*
X142357023Y-124022800D01*
X142367503Y-123977358D01*
X142384097Y-123944133D01*
X142408131Y-123918378D01*
X142440933Y-123895344D01*
X142482724Y-123876335D01*
X142559887Y-123864914D01*
X142595095Y-123866220D01*
G36*
X142595095Y-123866220D02*
G01*
X142626199Y-123874121D01*
X142655159Y-123893817D01*
X142692431Y-123930484D01*
X142716401Y-123956378D01*
X142741370Y-123989997D01*
X142752631Y-124021506D01*
X142755257Y-124061485D01*
X142755257Y-124126917D01*
X142710635Y-124103842D01*
X142675273Y-124075724D01*
X142651051Y-124037848D01*
X142646891Y-124027551D01*
X142615194Y-123987637D01*
X142571154Y-123967624D01*
X142523131Y-123969572D01*
X142479486Y-123995543D01*
X142461020Y-124016635D01*
X142450263Y-124043619D01*
X142461778Y-124067634D01*
X142497581Y-124091791D01*
X142559690Y-124119199D01*
X142569115Y-124122985D01*
X142625658Y-124147759D01*
X142674180Y-124172189D01*
X142705051Y-124191486D01*
X142735971Y-124225953D01*
X142756527Y-124280957D01*
X142754344Y-124339983D01*
X142730024Y-124395845D01*
X142684168Y-124441355D01*
X142647038Y-124460727D01*
X142575311Y-124474292D01*
X142535452Y-124472462D01*
X142498553Y-124462568D01*
X142484397Y-124441806D01*
X142489691Y-124407613D01*
X142491231Y-124403092D01*
X142503442Y-124379116D01*
X142523774Y-124370042D01*
X142562508Y-124370649D01*
X142589857Y-124371474D01*
X142621857Y-124364392D01*
X142643782Y-124343219D01*
X142656270Y-124317152D01*
X142657662Y-124289845D01*
X142657598Y-124289685D01*
X142641407Y-124274930D01*
X142606755Y-124253457D01*
X142561921Y-124229458D01*
X142515182Y-124207125D01*
X142474817Y-124190652D01*
X142449104Y-124184229D01*
X142445279Y-124190518D01*
X142440464Y-124220115D01*
X142437166Y-124268447D01*
X142435943Y-124329372D01*
X142435658Y-124371542D01*
X142434318Y-124424653D01*
X142432128Y-124461025D01*
X142429369Y-124474514D01*
X142414944Y-124469981D01*
X142385826Y-124457670D01*
X142348857Y-124440826D01*
X142348857Y-124224721D01*
X142349093Y-124169327D01*
X142351329Y-124085207D01*
X142357023Y-124022800D01*
X142367503Y-123977358D01*
X142384097Y-123944133D01*
X142408131Y-123918378D01*
X142440933Y-123895344D01*
X142482724Y-123876335D01*
X142559887Y-123864914D01*
X142595095Y-123866220D01*
G37*
X144741533Y-119162371D02*
X144817456Y-119162865D01*
X144872091Y-119164135D01*
X144909100Y-119166547D01*
X144932147Y-119170467D01*
X144944896Y-119176262D01*
X144951011Y-119184299D01*
X144954156Y-119194943D01*
X144954246Y-119195325D01*
X144959414Y-119220347D01*
X144968809Y-119268681D01*
X144981467Y-119335260D01*
X144996425Y-119415014D01*
X145012719Y-119502875D01*
X145014048Y-119510064D01*
X145030291Y-119595340D01*
X145045405Y-119670242D01*
X145058408Y-119730219D01*
X145068315Y-119770717D01*
X145074144Y-119787184D01*
X145074175Y-119787210D01*
X145092543Y-119796320D01*
X145130240Y-119811457D01*
X145179143Y-119829358D01*
X145181897Y-119830330D01*
X145244417Y-119853959D01*
X145317143Y-119883595D01*
X145384894Y-119913062D01*
X145496303Y-119963626D01*
X145742999Y-119795160D01*
X145760375Y-119783311D01*
X145834802Y-119732947D01*
X145901214Y-119688612D01*
X145955639Y-119652916D01*
X145994106Y-119628471D01*
X146012642Y-119617889D01*
X146025343Y-119620315D01*
X146054179Y-119639110D01*
X146098743Y-119676330D01*
X146160270Y-119733020D01*
X146239998Y-119810227D01*
X146247132Y-119817255D01*
X146310396Y-119880222D01*
X146366590Y-119937268D01*
X146412277Y-119984817D01*
X146444014Y-120019297D01*
X146458364Y-120037131D01*
X146458410Y-120037217D01*
X146460233Y-120050795D01*
X146453510Y-120072820D01*
X146436546Y-120106304D01*
X146407644Y-120154261D01*
X146365108Y-120219704D01*
X146307244Y-120305645D01*
X146297383Y-120320151D01*
X146247513Y-120393635D01*
X146203505Y-120458687D01*
X146167980Y-120511417D01*
X146143559Y-120547936D01*
X146132864Y-120564356D01*
X146132058Y-120567834D01*
X146137118Y-120593785D01*
X146152277Y-120636159D01*
X146175063Y-120687728D01*
X146206029Y-120755170D01*
X146240604Y-120835195D01*
X146269966Y-120907629D01*
X146277245Y-120926377D01*
X146296310Y-120974246D01*
X146310315Y-121007596D01*
X146316641Y-121020114D01*
X146323625Y-121021050D01*
X146355013Y-121026461D01*
X146406387Y-121035806D01*
X146472402Y-121048069D01*
X146547713Y-121062232D01*
X146626975Y-121077280D01*
X146704843Y-121092195D01*
X146775970Y-121105961D01*
X146835012Y-121117562D01*
X146876622Y-121125980D01*
X146895457Y-121130199D01*
X146898580Y-121131389D01*
X146906191Y-121137805D01*
X146911854Y-121151465D01*
X146915851Y-121175999D01*
X146918466Y-121215038D01*
X146919984Y-121272213D01*
X146920686Y-121351154D01*
X146920857Y-121455492D01*
X146920857Y-121772799D01*
X146844657Y-121787839D01*
X146835440Y-121789642D01*
X146786491Y-121798980D01*
X146718805Y-121811669D01*
X146640078Y-121826273D01*
X146558000Y-121841355D01*
X146525678Y-121847422D01*
X146453455Y-121862181D01*
X146393266Y-121876137D01*
X146350640Y-121887952D01*
X146331110Y-121896287D01*
X146322260Y-121909905D01*
X146306148Y-121945938D01*
X146289665Y-121992572D01*
X146283863Y-122010034D01*
X146262506Y-122067358D01*
X146234959Y-122135201D01*
X146205707Y-122202355D01*
X146190063Y-122237430D01*
X146167774Y-122289822D01*
X146152457Y-122329058D01*
X146146762Y-122348563D01*
X146147078Y-122350036D01*
X146157881Y-122370729D01*
X146182238Y-122410665D01*
X146217681Y-122465972D01*
X146261736Y-122532781D01*
X146311932Y-122607220D01*
X146477101Y-122849623D01*
X146260103Y-123066983D01*
X146239116Y-123087899D01*
X146174942Y-123150505D01*
X146117590Y-123204495D01*
X146070420Y-123246826D01*
X146036792Y-123274457D01*
X146020067Y-123284343D01*
X146001903Y-123276821D01*
X145963865Y-123255227D01*
X145910326Y-123222151D01*
X145845484Y-123180191D01*
X145773540Y-123131943D01*
X145702875Y-123084291D01*
X145639126Y-123042328D01*
X145587113Y-123009165D01*
X145550879Y-122987378D01*
X145534467Y-122979543D01*
X145533505Y-122979614D01*
X145511703Y-122987338D01*
X145473040Y-123005323D01*
X145425212Y-123030013D01*
X145424710Y-123030284D01*
X145361187Y-123062099D01*
X145317660Y-123077642D01*
X145290652Y-123077685D01*
X145276690Y-123063000D01*
X145270780Y-123048544D01*
X145254829Y-123009831D01*
X145230260Y-122950316D01*
X145198379Y-122873165D01*
X145160493Y-122781541D01*
X145117910Y-122678607D01*
X145071937Y-122567526D01*
X145030267Y-122466472D01*
X144987868Y-122362780D01*
X144950356Y-122270119D01*
X144918988Y-122191642D01*
X144895025Y-122130500D01*
X144879723Y-122089843D01*
X144874343Y-122072825D01*
X144884618Y-122057219D01*
X144913163Y-122031162D01*
X144953571Y-122000887D01*
X145050579Y-121921684D01*
X145137393Y-121820475D01*
X145200922Y-121709116D01*
X145240777Y-121590893D01*
X145256565Y-121469095D01*
X145247896Y-121347010D01*
X145214378Y-121227925D01*
X145155621Y-121115129D01*
X145071232Y-121011911D01*
X145027231Y-120971713D01*
X144921811Y-120900638D01*
X144809010Y-120854301D01*
X144692125Y-120831599D01*
X144574453Y-120831428D01*
X144459290Y-120852687D01*
X144349935Y-120894270D01*
X144249683Y-120955076D01*
X144161833Y-121034001D01*
X144089680Y-121129941D01*
X144036522Y-121241795D01*
X144005657Y-121368457D01*
X143999992Y-121429507D01*
X144007785Y-121561776D01*
X144042884Y-121687266D01*
X144104249Y-121803759D01*
X144190843Y-121909039D01*
X144301629Y-122000887D01*
X144340531Y-122029930D01*
X144369704Y-122056272D01*
X144380857Y-122072800D01*
X144376410Y-122087209D01*
X144361978Y-122125815D01*
X144338773Y-122185201D01*
X144308052Y-122262215D01*
X144271074Y-122353703D01*
X144229096Y-122456516D01*
X144183378Y-122567502D01*
X144141778Y-122668072D01*
X144098822Y-122771947D01*
X144060429Y-122864819D01*
X144027905Y-122943525D01*
X144002558Y-123004899D01*
X143985695Y-123045779D01*
X143978625Y-123063000D01*
X143978543Y-123063204D01*
X143964398Y-123077745D01*
X143937259Y-123077579D01*
X143893623Y-123061927D01*
X143829988Y-123030013D01*
X143824979Y-123027326D01*
X143777725Y-123003150D01*
X143740411Y-122986037D01*
X143720733Y-122979543D01*
X143704605Y-122987218D01*
X143668559Y-123008871D01*
X143616692Y-123041928D01*
X143553045Y-123083810D01*
X143481660Y-123131943D01*
X143411324Y-123179131D01*
X143346270Y-123221267D01*
X143292420Y-123254578D01*
X143253974Y-123276469D01*
X143235134Y-123284343D01*
X143231925Y-123283343D01*
X143209554Y-123267584D01*
X143171333Y-123235033D01*
X143120621Y-123188733D01*
X143060781Y-123131726D01*
X142995171Y-123067058D01*
X142778248Y-122849772D01*
X142947201Y-122601253D01*
X143116153Y-122352733D01*
X143064783Y-122241595D01*
X143064631Y-122241266D01*
X143033783Y-122170418D01*
X143002261Y-122091523D01*
X142976866Y-122021600D01*
X142973023Y-122010322D01*
X142953647Y-121957967D01*
X142936174Y-121917283D01*
X142923988Y-121896287D01*
X142919026Y-121893322D01*
X142889234Y-121883375D01*
X142838647Y-121870505D01*
X142772794Y-121856053D01*
X142697200Y-121841355D01*
X142674557Y-121837210D01*
X142592638Y-121822116D01*
X142516200Y-121807899D01*
X142452937Y-121795995D01*
X142410543Y-121787839D01*
X142334343Y-121772799D01*
X142334343Y-121455492D01*
X142334360Y-121416476D01*
X142334682Y-121321292D01*
X142335633Y-121250255D01*
X142337496Y-121199734D01*
X142340555Y-121166098D01*
X142345094Y-121145718D01*
X142351395Y-121134962D01*
X142359743Y-121130199D01*
X142367824Y-121128270D01*
X142400772Y-121121445D01*
X142453336Y-121111022D01*
X142520169Y-121098018D01*
X142595928Y-121083449D01*
X142675265Y-121068333D01*
X142752837Y-121053685D01*
X142823298Y-121040523D01*
X142881302Y-121029863D01*
X142921504Y-121022721D01*
X142938559Y-121020114D01*
X142939712Y-121018541D01*
X142948985Y-120998119D01*
X142965032Y-120959045D01*
X142985235Y-120907629D01*
X143013272Y-120838353D01*
X143047786Y-120758290D01*
X143080138Y-120687728D01*
X143087552Y-120671889D01*
X143108355Y-120622293D01*
X143120819Y-120584038D01*
X143122463Y-120564356D01*
X143121615Y-120562962D01*
X143108148Y-120542420D01*
X143081450Y-120502516D01*
X143044139Y-120447140D01*
X142998834Y-120380177D01*
X142948152Y-120305517D01*
X142891045Y-120220692D01*
X142848207Y-120154800D01*
X142819060Y-120106478D01*
X142801917Y-120072733D01*
X142795095Y-120050572D01*
X142796906Y-120037002D01*
X142797515Y-120035984D01*
X142813897Y-120016210D01*
X142847295Y-119980175D01*
X142894271Y-119931451D01*
X142951386Y-119873612D01*
X143015203Y-119810227D01*
X143081402Y-119745905D01*
X143146248Y-119685447D01*
X143193899Y-119644655D01*
X143225590Y-119622484D01*
X143242558Y-119617889D01*
X143244775Y-119618921D01*
X143268124Y-119632837D01*
X143310512Y-119660030D01*
X143367969Y-119697889D01*
X143436523Y-119743803D01*
X143512201Y-119795160D01*
X143758898Y-119963626D01*
X143870306Y-119913062D01*
X143873543Y-119911597D01*
X143941943Y-119881965D01*
X144014507Y-119852493D01*
X144076057Y-119829358D01*
X144076329Y-119829262D01*
X144125195Y-119811367D01*
X144162812Y-119796253D01*
X144181057Y-119787184D01*
X144181352Y-119786855D01*
X144187546Y-119768282D01*
X144197739Y-119726045D01*
X144210948Y-119664696D01*
X144226190Y-119588789D01*
X144242481Y-119502875D01*
X144243049Y-119499796D01*
X144259313Y-119412128D01*
X144274208Y-119332741D01*
X144286771Y-119266701D01*
X144296038Y-119219079D01*
X144301044Y-119194943D01*
X144301364Y-119193605D01*
X144304660Y-119183273D01*
X144311338Y-119175506D01*
X144325062Y-119169940D01*
X144349495Y-119166207D01*
X144388302Y-119163942D01*
X144445146Y-119162778D01*
X144523690Y-119162348D01*
X144627600Y-119162286D01*
X144640656Y-119162286D01*
X144741533Y-119162371D01*
G36*
X144741533Y-119162371D02*
G01*
X144817456Y-119162865D01*
X144872091Y-119164135D01*
X144909100Y-119166547D01*
X144932147Y-119170467D01*
X144944896Y-119176262D01*
X144951011Y-119184299D01*
X144954156Y-119194943D01*
X144954246Y-119195325D01*
X144959414Y-119220347D01*
X144968809Y-119268681D01*
X144981467Y-119335260D01*
X144996425Y-119415014D01*
X145012719Y-119502875D01*
X145014048Y-119510064D01*
X145030291Y-119595340D01*
X145045405Y-119670242D01*
X145058408Y-119730219D01*
X145068315Y-119770717D01*
X145074144Y-119787184D01*
X145074175Y-119787210D01*
X145092543Y-119796320D01*
X145130240Y-119811457D01*
X145179143Y-119829358D01*
X145181897Y-119830330D01*
X145244417Y-119853959D01*
X145317143Y-119883595D01*
X145384894Y-119913062D01*
X145496303Y-119963626D01*
X145742999Y-119795160D01*
X145760375Y-119783311D01*
X145834802Y-119732947D01*
X145901214Y-119688612D01*
X145955639Y-119652916D01*
X145994106Y-119628471D01*
X146012642Y-119617889D01*
X146025343Y-119620315D01*
X146054179Y-119639110D01*
X146098743Y-119676330D01*
X146160270Y-119733020D01*
X146239998Y-119810227D01*
X146247132Y-119817255D01*
X146310396Y-119880222D01*
X146366590Y-119937268D01*
X146412277Y-119984817D01*
X146444014Y-120019297D01*
X146458364Y-120037131D01*
X146458410Y-120037217D01*
X146460233Y-120050795D01*
X146453510Y-120072820D01*
X146436546Y-120106304D01*
X146407644Y-120154261D01*
X146365108Y-120219704D01*
X146307244Y-120305645D01*
X146297383Y-120320151D01*
X146247513Y-120393635D01*
X146203505Y-120458687D01*
X146167980Y-120511417D01*
X146143559Y-120547936D01*
X146132864Y-120564356D01*
X146132058Y-120567834D01*
X146137118Y-120593785D01*
X146152277Y-120636159D01*
X146175063Y-120687728D01*
X146206029Y-120755170D01*
X146240604Y-120835195D01*
X146269966Y-120907629D01*
X146277245Y-120926377D01*
X146296310Y-120974246D01*
X146310315Y-121007596D01*
X146316641Y-121020114D01*
X146323625Y-121021050D01*
X146355013Y-121026461D01*
X146406387Y-121035806D01*
X146472402Y-121048069D01*
X146547713Y-121062232D01*
X146626975Y-121077280D01*
X146704843Y-121092195D01*
X146775970Y-121105961D01*
X146835012Y-121117562D01*
X146876622Y-121125980D01*
X146895457Y-121130199D01*
X146898580Y-121131389D01*
X146906191Y-121137805D01*
X146911854Y-121151465D01*
X146915851Y-121175999D01*
X146918466Y-121215038D01*
X146919984Y-121272213D01*
X146920686Y-121351154D01*
X146920857Y-121455492D01*
X146920857Y-121772799D01*
X146844657Y-121787839D01*
X146835440Y-121789642D01*
X146786491Y-121798980D01*
X146718805Y-121811669D01*
X146640078Y-121826273D01*
X146558000Y-121841355D01*
X146525678Y-121847422D01*
X146453455Y-121862181D01*
X146393266Y-121876137D01*
X146350640Y-121887952D01*
X146331110Y-121896287D01*
X146322260Y-121909905D01*
X146306148Y-121945938D01*
X146289665Y-121992572D01*
X146283863Y-122010034D01*
X146262506Y-122067358D01*
X146234959Y-122135201D01*
X146205707Y-122202355D01*
X146190063Y-122237430D01*
X146167774Y-122289822D01*
X146152457Y-122329058D01*
X146146762Y-122348563D01*
X146147078Y-122350036D01*
X146157881Y-122370729D01*
X146182238Y-122410665D01*
X146217681Y-122465972D01*
X146261736Y-122532781D01*
X146311932Y-122607220D01*
X146477101Y-122849623D01*
X146260103Y-123066983D01*
X146239116Y-123087899D01*
X146174942Y-123150505D01*
X146117590Y-123204495D01*
X146070420Y-123246826D01*
X146036792Y-123274457D01*
X146020067Y-123284343D01*
X146001903Y-123276821D01*
X145963865Y-123255227D01*
X145910326Y-123222151D01*
X145845484Y-123180191D01*
X145773540Y-123131943D01*
X145702875Y-123084291D01*
X145639126Y-123042328D01*
X145587113Y-123009165D01*
X145550879Y-122987378D01*
X145534467Y-122979543D01*
X145533505Y-122979614D01*
X145511703Y-122987338D01*
X145473040Y-123005323D01*
X145425212Y-123030013D01*
X145424710Y-123030284D01*
X145361187Y-123062099D01*
X145317660Y-123077642D01*
X145290652Y-123077685D01*
X145276690Y-123063000D01*
X145270780Y-123048544D01*
X145254829Y-123009831D01*
X145230260Y-122950316D01*
X145198379Y-122873165D01*
X145160493Y-122781541D01*
X145117910Y-122678607D01*
X145071937Y-122567526D01*
X145030267Y-122466472D01*
X144987868Y-122362780D01*
X144950356Y-122270119D01*
X144918988Y-122191642D01*
X144895025Y-122130500D01*
X144879723Y-122089843D01*
X144874343Y-122072825D01*
X144884618Y-122057219D01*
X144913163Y-122031162D01*
X144953571Y-122000887D01*
X145050579Y-121921684D01*
X145137393Y-121820475D01*
X145200922Y-121709116D01*
X145240777Y-121590893D01*
X145256565Y-121469095D01*
X145247896Y-121347010D01*
X145214378Y-121227925D01*
X145155621Y-121115129D01*
X145071232Y-121011911D01*
X145027231Y-120971713D01*
X144921811Y-120900638D01*
X144809010Y-120854301D01*
X144692125Y-120831599D01*
X144574453Y-120831428D01*
X144459290Y-120852687D01*
X144349935Y-120894270D01*
X144249683Y-120955076D01*
X144161833Y-121034001D01*
X144089680Y-121129941D01*
X144036522Y-121241795D01*
X144005657Y-121368457D01*
X143999992Y-121429507D01*
X144007785Y-121561776D01*
X144042884Y-121687266D01*
X144104249Y-121803759D01*
X144190843Y-121909039D01*
X144301629Y-122000887D01*
X144340531Y-122029930D01*
X144369704Y-122056272D01*
X144380857Y-122072800D01*
X144376410Y-122087209D01*
X144361978Y-122125815D01*
X144338773Y-122185201D01*
X144308052Y-122262215D01*
X144271074Y-122353703D01*
X144229096Y-122456516D01*
X144183378Y-122567502D01*
X144141778Y-122668072D01*
X144098822Y-122771947D01*
X144060429Y-122864819D01*
X144027905Y-122943525D01*
X144002558Y-123004899D01*
X143985695Y-123045779D01*
X143978625Y-123063000D01*
X143978543Y-123063204D01*
X143964398Y-123077745D01*
X143937259Y-123077579D01*
X143893623Y-123061927D01*
X143829988Y-123030013D01*
X143824979Y-123027326D01*
X143777725Y-123003150D01*
X143740411Y-122986037D01*
X143720733Y-122979543D01*
X143704605Y-122987218D01*
X143668559Y-123008871D01*
X143616692Y-123041928D01*
X143553045Y-123083810D01*
X143481660Y-123131943D01*
X143411324Y-123179131D01*
X143346270Y-123221267D01*
X143292420Y-123254578D01*
X143253974Y-123276469D01*
X143235134Y-123284343D01*
X143231925Y-123283343D01*
X143209554Y-123267584D01*
X143171333Y-123235033D01*
X143120621Y-123188733D01*
X143060781Y-123131726D01*
X142995171Y-123067058D01*
X142778248Y-122849772D01*
X142947201Y-122601253D01*
X143116153Y-122352733D01*
X143064783Y-122241595D01*
X143064631Y-122241266D01*
X143033783Y-122170418D01*
X143002261Y-122091523D01*
X142976866Y-122021600D01*
X142973023Y-122010322D01*
X142953647Y-121957967D01*
X142936174Y-121917283D01*
X142923988Y-121896287D01*
X142919026Y-121893322D01*
X142889234Y-121883375D01*
X142838647Y-121870505D01*
X142772794Y-121856053D01*
X142697200Y-121841355D01*
X142674557Y-121837210D01*
X142592638Y-121822116D01*
X142516200Y-121807899D01*
X142452937Y-121795995D01*
X142410543Y-121787839D01*
X142334343Y-121772799D01*
X142334343Y-121455492D01*
X142334360Y-121416476D01*
X142334682Y-121321292D01*
X142335633Y-121250255D01*
X142337496Y-121199734D01*
X142340555Y-121166098D01*
X142345094Y-121145718D01*
X142351395Y-121134962D01*
X142359743Y-121130199D01*
X142367824Y-121128270D01*
X142400772Y-121121445D01*
X142453336Y-121111022D01*
X142520169Y-121098018D01*
X142595928Y-121083449D01*
X142675265Y-121068333D01*
X142752837Y-121053685D01*
X142823298Y-121040523D01*
X142881302Y-121029863D01*
X142921504Y-121022721D01*
X142938559Y-121020114D01*
X142939712Y-121018541D01*
X142948985Y-120998119D01*
X142965032Y-120959045D01*
X142985235Y-120907629D01*
X143013272Y-120838353D01*
X143047786Y-120758290D01*
X143080138Y-120687728D01*
X143087552Y-120671889D01*
X143108355Y-120622293D01*
X143120819Y-120584038D01*
X143122463Y-120564356D01*
X143121615Y-120562962D01*
X143108148Y-120542420D01*
X143081450Y-120502516D01*
X143044139Y-120447140D01*
X142998834Y-120380177D01*
X142948152Y-120305517D01*
X142891045Y-120220692D01*
X142848207Y-120154800D01*
X142819060Y-120106478D01*
X142801917Y-120072733D01*
X142795095Y-120050572D01*
X142796906Y-120037002D01*
X142797515Y-120035984D01*
X142813897Y-120016210D01*
X142847295Y-119980175D01*
X142894271Y-119931451D01*
X142951386Y-119873612D01*
X143015203Y-119810227D01*
X143081402Y-119745905D01*
X143146248Y-119685447D01*
X143193899Y-119644655D01*
X143225590Y-119622484D01*
X143242558Y-119617889D01*
X143244775Y-119618921D01*
X143268124Y-119632837D01*
X143310512Y-119660030D01*
X143367969Y-119697889D01*
X143436523Y-119743803D01*
X143512201Y-119795160D01*
X143758898Y-119963626D01*
X143870306Y-119913062D01*
X143873543Y-119911597D01*
X143941943Y-119881965D01*
X144014507Y-119852493D01*
X144076057Y-119829358D01*
X144076329Y-119829262D01*
X144125195Y-119811367D01*
X144162812Y-119796253D01*
X144181057Y-119787184D01*
X144181352Y-119786855D01*
X144187546Y-119768282D01*
X144197739Y-119726045D01*
X144210948Y-119664696D01*
X144226190Y-119588789D01*
X144242481Y-119502875D01*
X144243049Y-119499796D01*
X144259313Y-119412128D01*
X144274208Y-119332741D01*
X144286771Y-119266701D01*
X144296038Y-119219079D01*
X144301044Y-119194943D01*
X144301364Y-119193605D01*
X144304660Y-119183273D01*
X144311338Y-119175506D01*
X144325062Y-119169940D01*
X144349495Y-119166207D01*
X144388302Y-119163942D01*
X144445146Y-119162778D01*
X144523690Y-119162348D01*
X144627600Y-119162286D01*
X144640656Y-119162286D01*
X144741533Y-119162371D01*
G37*
D12*
%TO.C,J103*%
X140928400Y-119897200D02*
X138268400Y-119897200D01*
X140928400Y-109677200D02*
X140928400Y-119897200D01*
X140928400Y-109677200D02*
X138268400Y-109677200D01*
X140928400Y-108407200D02*
X140928400Y-107077200D01*
X140928400Y-107077200D02*
X139598400Y-107077200D01*
X138268400Y-109677200D02*
X138268400Y-119897200D01*
%TO.C,J104*%
X151088400Y-119897200D02*
X148428400Y-119897200D01*
X151088400Y-109677200D02*
X151088400Y-119897200D01*
X151088400Y-109677200D02*
X148428400Y-109677200D01*
X151088400Y-108407200D02*
X151088400Y-107077200D01*
X151088400Y-107077200D02*
X149758400Y-107077200D01*
X148428400Y-109677200D02*
X148428400Y-119897200D01*
%TD*%
M02*
