%TF.GenerationSoftware,KiCad,Pcbnew,7.0.2-0*%
%TF.CreationDate,2024-07-03T10:32:26-07:00*%
%TF.ProjectId,ft230x-breakout,66743233-3078-42d6-9272-65616b6f7574,1.0*%
%TF.SameCoordinates,Original*%
%TF.FileFunction,Copper,L1,Top*%
%TF.FilePolarity,Positive*%
%FSLAX46Y46*%
G04 Gerber Fmt 4.6, Leading zero omitted, Abs format (unit mm)*
G04 Created by KiCad (PCBNEW 7.0.2-0) date 2024-07-03 10:32:26*
%MOMM*%
%LPD*%
G01*
G04 APERTURE LIST*
G04 Aperture macros list*
%AMRoundRect*
0 Rectangle with rounded corners*
0 $1 Rounding radius*
0 $2 $3 $4 $5 $6 $7 $8 $9 X,Y pos of 4 corners*
0 Add a 4 corners polygon primitive as box body*
4,1,4,$2,$3,$4,$5,$6,$7,$8,$9,$2,$3,0*
0 Add four circle primitives for the rounded corners*
1,1,$1+$1,$2,$3*
1,1,$1+$1,$4,$5*
1,1,$1+$1,$6,$7*
1,1,$1+$1,$8,$9*
0 Add four rect primitives between the rounded corners*
20,1,$1+$1,$2,$3,$4,$5,0*
20,1,$1+$1,$4,$5,$6,$7,0*
20,1,$1+$1,$6,$7,$8,$9,0*
20,1,$1+$1,$8,$9,$2,$3,0*%
G04 Aperture macros list end*
%TA.AperFunction,SMDPad,CuDef*%
%ADD10RoundRect,0.250000X-0.450000X0.350000X-0.450000X-0.350000X0.450000X-0.350000X0.450000X0.350000X0*%
%TD*%
%TA.AperFunction,ComponentPad*%
%ADD11R,1.700000X1.700000*%
%TD*%
%TA.AperFunction,ComponentPad*%
%ADD12O,1.700000X1.700000*%
%TD*%
%TA.AperFunction,SMDPad,CuDef*%
%ADD13RoundRect,0.250000X-0.325000X-0.450000X0.325000X-0.450000X0.325000X0.450000X-0.325000X0.450000X0*%
%TD*%
%TA.AperFunction,SMDPad,CuDef*%
%ADD14RoundRect,0.250000X-0.337500X-0.475000X0.337500X-0.475000X0.337500X0.475000X-0.337500X0.475000X0*%
%TD*%
%TA.AperFunction,SMDPad,CuDef*%
%ADD15RoundRect,0.250000X0.450000X-0.350000X0.450000X0.350000X-0.450000X0.350000X-0.450000X-0.350000X0*%
%TD*%
%TA.AperFunction,SMDPad,CuDef*%
%ADD16RoundRect,0.250000X-0.475000X0.337500X-0.475000X-0.337500X0.475000X-0.337500X0.475000X0.337500X0*%
%TD*%
%TA.AperFunction,SMDPad,CuDef*%
%ADD17RoundRect,0.250000X0.325000X0.450000X-0.325000X0.450000X-0.325000X-0.450000X0.325000X-0.450000X0*%
%TD*%
%TA.AperFunction,SMDPad,CuDef*%
%ADD18R,0.400000X1.350000*%
%TD*%
%TA.AperFunction,ComponentPad*%
%ADD19O,1.200000X1.900000*%
%TD*%
%TA.AperFunction,SMDPad,CuDef*%
%ADD20R,1.200000X1.900000*%
%TD*%
%TA.AperFunction,ComponentPad*%
%ADD21C,1.450000*%
%TD*%
%TA.AperFunction,SMDPad,CuDef*%
%ADD22R,1.500000X1.900000*%
%TD*%
%TA.AperFunction,SMDPad,CuDef*%
%ADD23R,1.200000X0.400000*%
%TD*%
%TA.AperFunction,SMDPad,CuDef*%
%ADD24RoundRect,0.250000X0.337500X0.475000X-0.337500X0.475000X-0.337500X-0.475000X0.337500X-0.475000X0*%
%TD*%
%TA.AperFunction,SMDPad,CuDef*%
%ADD25RoundRect,0.250000X0.275000X-0.400000X0.275000X0.400000X-0.275000X0.400000X-0.275000X-0.400000X0*%
%TD*%
%TA.AperFunction,SMDPad,CuDef*%
%ADD26RoundRect,0.250000X0.475000X-0.337500X0.475000X0.337500X-0.475000X0.337500X-0.475000X-0.337500X0*%
%TD*%
%TA.AperFunction,ViaPad*%
%ADD27C,0.800000*%
%TD*%
%TA.AperFunction,Conductor*%
%ADD28C,0.350000*%
%TD*%
%TA.AperFunction,Conductor*%
%ADD29C,0.250000*%
%TD*%
%TA.AperFunction,Conductor*%
%ADD30C,0.200000*%
%TD*%
G04 APERTURE END LIST*
D10*
%TO.P,R103,1*%
%TO.N,/Vccio*%
X142401700Y-122342400D03*
%TO.P,R103,2*%
%TO.N,Net-(D101-A)*%
X142401700Y-124342400D03*
%TD*%
D11*
%TO.P,JP101,1,A*%
%TO.N,/CBUS1*%
X141563500Y-127050800D03*
D12*
%TO.P,JP101,2,B*%
%TO.N,Net-(D101-K)*%
X139023500Y-127050800D03*
%TD*%
D13*
%TO.P,D101,1,K*%
%TO.N,Net-(D101-K)*%
X140487700Y-129895600D03*
%TO.P,D101,2,A*%
%TO.N,Net-(D101-A)*%
X142537700Y-129895600D03*
%TD*%
D11*
%TO.P,JP102,1,A*%
%TO.N,/CBUS2*%
X147781500Y-127050800D03*
D12*
%TO.P,JP102,2,B*%
%TO.N,Net-(D102-K)*%
X150321500Y-127050800D03*
%TD*%
D10*
%TO.P,R104,1*%
%TO.N,/Vccio*%
X146948300Y-122342400D03*
%TO.P,R104,2*%
%TO.N,Net-(D102-A)*%
X146948300Y-124342400D03*
%TD*%
D14*
%TO.P,C106,1*%
%TO.N,/Vccio*%
X143679500Y-108077000D03*
%TO.P,C106,2*%
%TO.N,GND*%
X145754500Y-108077000D03*
%TD*%
D15*
%TO.P,R101,1*%
%TO.N,Net-(J101-D+)*%
X142392400Y-120583200D03*
%TO.P,R101,2*%
%TO.N,/D+*%
X142392400Y-118583200D03*
%TD*%
D16*
%TO.P,FB101,1*%
%TO.N,Net-(J101-VBUS)*%
X145551300Y-102285800D03*
%TO.P,FB101,2*%
%TO.N,/Vcc*%
X145551300Y-104360800D03*
%TD*%
%TO.P,C101,1*%
%TO.N,Net-(J101-VBUS)*%
X147557900Y-102289700D03*
%TO.P,C101,2*%
%TO.N,GND*%
X147557900Y-104364700D03*
%TD*%
D17*
%TO.P,D102,1,K*%
%TO.N,Net-(D102-K)*%
X148878700Y-129895600D03*
%TO.P,D102,2,A*%
%TO.N,Net-(D102-A)*%
X146828700Y-129895600D03*
%TD*%
D18*
%TO.P,J101,1,VBUS*%
%TO.N,Net-(J101-VBUS)*%
X145941500Y-100355400D03*
%TO.P,J101,2,D-*%
%TO.N,Net-(J101-D-)*%
X145291500Y-100355400D03*
%TO.P,J101,3,D+*%
%TO.N,Net-(J101-D+)*%
X144641500Y-100355400D03*
%TO.P,J101,4,ID*%
%TO.N,unconnected-(J101-ID-Pad4)*%
X143991500Y-100355400D03*
%TO.P,J101,5,GND*%
%TO.N,GND*%
X143341500Y-100355400D03*
D19*
%TO.P,J101,6,Shield*%
X148141500Y-97655400D03*
D20*
X147541500Y-97655400D03*
D21*
X147141500Y-100355400D03*
D22*
X145641500Y-97655400D03*
X143641500Y-97655400D03*
D21*
X142141500Y-100355400D03*
D20*
X141741500Y-97655400D03*
D19*
X141141500Y-97655400D03*
%TD*%
D23*
%TO.P,U101,1,TXD*%
%TO.N,/TXD*%
X142098400Y-111259700D03*
%TO.P,U101,2,~{RTS}*%
%TO.N,/~{RTS}*%
X142098400Y-111894700D03*
%TO.P,U101,3,VCCIO*%
%TO.N,/Vccio*%
X142098400Y-112529700D03*
%TO.P,U101,4,RXD*%
%TO.N,/RXD*%
X142098400Y-113164700D03*
%TO.P,U101,5,GND*%
%TO.N,GND*%
X142098400Y-113799700D03*
%TO.P,U101,6,~{CTS}*%
%TO.N,/~{CTS}*%
X142098400Y-114434700D03*
%TO.P,U101,7,CBUS2*%
%TO.N,/CBUS2*%
X142098400Y-115069700D03*
%TO.P,U101,8,USBDP*%
%TO.N,/D+*%
X142098400Y-115704700D03*
%TO.P,U101,9,USBDM*%
%TO.N,/D-*%
X147298400Y-115704700D03*
%TO.P,U101,10,3V3OUT*%
%TO.N,/Vccio*%
X147298400Y-115069700D03*
%TO.P,U101,11,~{RESET}*%
X147298400Y-114434700D03*
%TO.P,U101,12,VCC*%
%TO.N,/Vcc*%
X147298400Y-113799700D03*
%TO.P,U101,13,GND*%
%TO.N,GND*%
X147298400Y-113164700D03*
%TO.P,U101,14,CBUS1*%
%TO.N,/CBUS1*%
X147298400Y-112529700D03*
%TO.P,U101,15,CBUS0*%
%TO.N,/CBUS0*%
X147298400Y-111894700D03*
%TO.P,U101,16,CBUS3*%
%TO.N,/CBUS3*%
X147298400Y-111259700D03*
%TD*%
D15*
%TO.P,R102,1*%
%TO.N,Net-(J101-D-)*%
X146964400Y-120583200D03*
%TO.P,R102,2*%
%TO.N,/D-*%
X146964400Y-118583200D03*
%TD*%
D14*
%TO.P,C105,1*%
%TO.N,Net-(J101-D-)*%
X148802500Y-121386600D03*
%TO.P,C105,2*%
%TO.N,GND*%
X150877500Y-121386600D03*
%TD*%
D24*
%TO.P,C104,1*%
%TO.N,Net-(J101-D+)*%
X140543600Y-121386600D03*
%TO.P,C104,2*%
%TO.N,GND*%
X138468600Y-121386600D03*
%TD*%
D25*
%TO.P,C102,1*%
%TO.N,/Vcc*%
X143646300Y-104286600D03*
%TO.P,C102,2*%
%TO.N,GND*%
X143646300Y-102336600D03*
%TD*%
D26*
%TO.P,C103,1*%
%TO.N,/Vcc*%
X141741300Y-104364700D03*
%TO.P,C103,2*%
%TO.N,GND*%
X141741300Y-102289700D03*
%TD*%
D11*
%TO.P,J103,1,Pin_1*%
%TO.N,/TXD*%
X139598400Y-108407200D03*
D12*
%TO.P,J103,2,Pin_2*%
%TO.N,/RXD*%
X139598400Y-110947200D03*
%TO.P,J103,3,Pin_3*%
%TO.N,/~{RTS}*%
X139598400Y-113487200D03*
%TO.P,J103,4,Pin_4*%
%TO.N,/~{CTS}*%
X139598400Y-116027200D03*
%TO.P,J103,5,Pin_5*%
%TO.N,GND*%
X139598400Y-118567200D03*
%TD*%
D11*
%TO.P,J104,1,Pin_1*%
%TO.N,/CBUS0*%
X149758400Y-108407200D03*
D12*
%TO.P,J104,2,Pin_2*%
%TO.N,/CBUS1*%
X149758400Y-110947200D03*
%TO.P,J104,3,Pin_3*%
%TO.N,/CBUS2*%
X149758400Y-113487200D03*
%TO.P,J104,4,Pin_4*%
%TO.N,/CBUS3*%
X149758400Y-116027200D03*
%TO.P,J104,5,Pin_5*%
%TO.N,GND*%
X149758400Y-118567200D03*
%TD*%
D27*
%TO.N,GND*%
X148339030Y-113193194D03*
X149047200Y-100457000D03*
X144729200Y-117957600D03*
%TO.N,Net-(J101-D+)*%
X141064901Y-101126918D03*
X140741400Y-119938800D03*
%TO.N,Net-(J101-D-)*%
X148615400Y-119938800D03*
X148220428Y-101123657D03*
%TO.N,/~{RTS}*%
X140867319Y-111709200D03*
%TO.N,/CBUS2*%
X141799446Y-117390046D03*
X147724236Y-117315027D03*
%TD*%
D28*
%TO.N,Net-(J101-VBUS)*%
X145941500Y-100355400D02*
X145941500Y-101895600D01*
X147554000Y-102285800D02*
X147557900Y-102289700D01*
X145941500Y-101895600D02*
X145551300Y-102285800D01*
X145551300Y-102285800D02*
X147554000Y-102285800D01*
D29*
%TO.N,GND*%
X143341500Y-100355400D02*
X142141500Y-100355400D01*
X139895101Y-114852200D02*
X139111699Y-114852200D01*
X140694500Y-102289700D02*
X141741300Y-102289700D01*
X142098400Y-113799700D02*
X140947601Y-113799700D01*
X139111699Y-114852200D02*
X138423400Y-115540499D01*
X143641500Y-97655400D02*
X145641500Y-97655400D01*
X145641500Y-97655400D02*
X147541500Y-97655400D01*
X138423400Y-117392200D02*
X139598400Y-118567200D01*
X141741300Y-102289700D02*
X142141500Y-101889500D01*
X143646300Y-102336600D02*
X143341500Y-102031800D01*
X139954000Y-98842900D02*
X139954000Y-101549200D01*
X140947601Y-113799700D02*
X139895101Y-114852200D01*
X142948400Y-113799700D02*
X144729200Y-115580500D01*
X143646300Y-102336600D02*
X141788200Y-102336600D01*
X149047200Y-98561100D02*
X148141500Y-97655400D01*
X143341500Y-102031800D02*
X143341500Y-100355400D01*
X146395400Y-103202200D02*
X147557900Y-104364700D01*
X142141500Y-101889500D02*
X142141500Y-100355400D01*
X144511900Y-103202200D02*
X146395400Y-103202200D01*
X141741500Y-97655400D02*
X143641500Y-97655400D01*
X141788200Y-102336600D02*
X141741300Y-102289700D01*
X147557900Y-104364700D02*
X149047200Y-102875400D01*
X143646300Y-102336600D02*
X144511900Y-103202200D01*
X139954000Y-101549200D02*
X140694500Y-102289700D01*
X148310536Y-113164700D02*
X148339030Y-113193194D01*
X142098400Y-113799700D02*
X142948400Y-113799700D01*
X149047200Y-100457000D02*
X149047200Y-98561100D01*
X149047200Y-102875400D02*
X149047200Y-100457000D01*
X138423400Y-115540499D02*
X138423400Y-117392200D01*
X147298400Y-113164700D02*
X148310536Y-113164700D01*
X144729200Y-115580500D02*
X144729200Y-117957600D01*
X141141500Y-97655400D02*
X139954000Y-98842900D01*
D28*
%TO.N,/Vcc*%
X141741300Y-104364700D02*
X143568200Y-104364700D01*
X146717000Y-105526500D02*
X146717000Y-109873096D01*
X146383400Y-113799700D02*
X147298400Y-113799700D01*
X145477100Y-104286600D02*
X145551300Y-104360800D01*
X145872200Y-113288500D02*
X146383400Y-113799700D01*
X146717000Y-109873096D02*
X145872200Y-110717896D01*
X145872200Y-110717896D02*
X145872200Y-113288500D01*
X145551300Y-104360800D02*
X146717000Y-105526500D01*
X143646300Y-104286600D02*
X145477100Y-104286600D01*
X143568200Y-104364700D02*
X143646300Y-104286600D01*
D29*
%TO.N,Net-(J101-D+)*%
X140741400Y-121188800D02*
X140543600Y-121386600D01*
X140741400Y-119938800D02*
X140741400Y-121188800D01*
X144641500Y-100355400D02*
X144641500Y-99430400D01*
X144641500Y-99430400D02*
X144516500Y-99305400D01*
X144516500Y-99305400D02*
X141706575Y-99305400D01*
X141589000Y-121386600D02*
X142392400Y-120583200D01*
X141064901Y-99947074D02*
X141064901Y-101126918D01*
X141706575Y-99305400D02*
X141064901Y-99947074D01*
X140543600Y-121386600D02*
X141589000Y-121386600D01*
%TO.N,Net-(J101-D-)*%
X147559625Y-99288600D02*
X148191299Y-99920274D01*
X148615400Y-119938800D02*
X148615400Y-121199500D01*
X145291500Y-100355400D02*
X145291500Y-99430400D01*
X147767800Y-121386600D02*
X146964400Y-120583200D01*
X148191299Y-101094528D02*
X148220428Y-101123657D01*
X148615400Y-121199500D02*
X148802500Y-121386600D01*
X145291500Y-99430400D02*
X145433300Y-99288600D01*
X148191299Y-99920274D02*
X148191299Y-101094528D01*
X148802500Y-121386600D02*
X147767800Y-121386600D01*
X145433300Y-99288600D02*
X147559625Y-99288600D01*
D28*
%TO.N,/Vccio*%
X143048400Y-112529700D02*
X142098400Y-112529700D01*
X146348400Y-115069700D02*
X147298400Y-115069700D01*
X147298400Y-115069700D02*
X146850600Y-115069700D01*
X142401700Y-122342400D02*
X146948300Y-122342400D01*
X143679500Y-111898600D02*
X143048400Y-112529700D01*
X146948300Y-122342400D02*
X145889400Y-121283500D01*
X145889400Y-115528700D02*
X146348400Y-115069700D01*
X146850600Y-115069700D02*
X143679500Y-111898600D01*
X143679500Y-108077000D02*
X143679500Y-111898600D01*
X147298400Y-114434700D02*
X147298400Y-115069700D01*
X145889400Y-121283500D02*
X145889400Y-115528700D01*
D29*
%TO.N,Net-(D101-K)*%
X140487700Y-128515000D02*
X139023500Y-127050800D01*
X140487700Y-129895600D02*
X140487700Y-128515000D01*
%TO.N,Net-(D101-A)*%
X142738500Y-129694800D02*
X142738500Y-124679200D01*
X142738500Y-124679200D02*
X142401700Y-124342400D01*
X142537700Y-129895600D02*
X142738500Y-129694800D01*
%TO.N,Net-(D102-K)*%
X148878700Y-128493600D02*
X150321500Y-127050800D01*
X148878700Y-129895600D02*
X148878700Y-128493600D01*
%TO.N,Net-(D102-A)*%
X146828700Y-129895600D02*
X146606500Y-129673400D01*
X146606500Y-124684200D02*
X146948300Y-124342400D01*
X146606500Y-129673400D02*
X146606500Y-124684200D01*
%TO.N,/TXD*%
X139598400Y-108407200D02*
X142098400Y-110907200D01*
X142098400Y-110907200D02*
X142098400Y-111259700D01*
%TO.N,/RXD*%
X139598400Y-110947200D02*
X139598400Y-111479700D01*
X141283400Y-113164700D02*
X142098400Y-113164700D01*
X139598400Y-111479700D02*
X141283400Y-113164700D01*
%TO.N,/~{RTS}*%
X141052819Y-111894700D02*
X140867319Y-111709200D01*
X142098400Y-111894700D02*
X141052819Y-111894700D01*
%TO.N,/~{CTS}*%
X139598400Y-116027200D02*
X141190900Y-114434700D01*
X141190900Y-114434700D02*
X142098400Y-114434700D01*
%TO.N,/CBUS3*%
X151028400Y-110555499D02*
X151028400Y-114757200D01*
X148785900Y-109772200D02*
X150245101Y-109772200D01*
X150245101Y-109772200D02*
X151028400Y-110555499D01*
X147298400Y-111259700D02*
X148785900Y-109772200D01*
X151028400Y-114757200D02*
X149758400Y-116027200D01*
%TO.N,/CBUS2*%
X141173400Y-116764000D02*
X141799446Y-117390046D01*
X148498400Y-116540863D02*
X147724236Y-117315027D01*
X142098400Y-115069700D02*
X141248400Y-115069700D01*
X141248400Y-115069700D02*
X141173400Y-115144700D01*
X148498400Y-114747200D02*
X148498400Y-116540863D01*
X141173400Y-115144700D02*
X141173400Y-116764000D01*
X149758400Y-113487200D02*
X148498400Y-114747200D01*
%TO.N,/CBUS1*%
X149758400Y-110947200D02*
X149560426Y-110947200D01*
X149560426Y-110947200D02*
X147977926Y-112529700D01*
X147977926Y-112529700D02*
X147298400Y-112529700D01*
%TO.N,/CBUS0*%
X146448400Y-111894700D02*
X147298400Y-111894700D01*
X146373400Y-110923098D02*
X146373400Y-111819700D01*
X146373400Y-111819700D02*
X146448400Y-111894700D01*
X149758400Y-108407200D02*
X148889298Y-108407200D01*
X148889298Y-108407200D02*
X146373400Y-110923098D01*
D30*
%TO.N,/D+*%
X142498946Y-118476654D02*
X142498946Y-116105246D01*
X142498946Y-116105246D02*
X142098400Y-115704700D01*
X142392400Y-118583200D02*
X142498946Y-118476654D01*
%TO.N,/D-*%
X146964400Y-116038700D02*
X147298400Y-115704700D01*
X146964400Y-118583200D02*
X146964400Y-116038700D01*
%TD*%
%TA.AperFunction,Conductor*%
%TO.N,GND*%
G36*
X140422979Y-96190436D02*
G01*
X140490018Y-96210123D01*
X140535771Y-96262928D01*
X140545712Y-96332087D01*
X140516685Y-96395642D01*
X140494903Y-96415443D01*
X140417876Y-96470294D01*
X140272907Y-96622333D01*
X140159333Y-96799055D01*
X140081255Y-96994085D01*
X140041500Y-97200362D01*
X140041500Y-97405400D01*
X140841500Y-97405400D01*
X140841500Y-97905400D01*
X140041500Y-97905400D01*
X140041500Y-98054850D01*
X140041781Y-98060759D01*
X140056464Y-98214520D01*
X140115649Y-98416087D01*
X140211912Y-98602812D01*
X140341769Y-98767938D01*
X140500536Y-98905511D01*
X140682463Y-99010546D01*
X140817956Y-99057441D01*
X140874870Y-99097970D01*
X140900838Y-99162834D01*
X140887614Y-99231441D01*
X140865080Y-99262302D01*
X140681109Y-99446273D01*
X140665011Y-99459170D01*
X140616997Y-99510299D01*
X140614293Y-99513090D01*
X140597529Y-99529854D01*
X140597522Y-99529861D01*
X140594781Y-99532603D01*
X140592400Y-99535671D01*
X140592391Y-99535682D01*
X140592312Y-99535785D01*
X140584743Y-99544646D01*
X140554836Y-99576494D01*
X140545186Y-99594048D01*
X140534510Y-99610302D01*
X140522227Y-99626137D01*
X140504876Y-99666232D01*
X140499739Y-99676718D01*
X140478703Y-99714981D01*
X140473722Y-99734383D01*
X140467421Y-99752785D01*
X140459462Y-99771176D01*
X140452629Y-99814316D01*
X140450261Y-99825748D01*
X140439401Y-99868051D01*
X140439401Y-99888090D01*
X140437874Y-99907488D01*
X140434741Y-99927268D01*
X140438851Y-99970747D01*
X140439401Y-99982417D01*
X140439401Y-100428230D01*
X140419716Y-100495269D01*
X140407551Y-100511202D01*
X140332367Y-100594701D01*
X140237721Y-100758633D01*
X140179227Y-100938660D01*
X140159441Y-101126918D01*
X140179227Y-101315175D01*
X140237721Y-101495202D01*
X140332367Y-101659134D01*
X140456094Y-101796545D01*
X140459030Y-101799806D01*
X140465183Y-101804276D01*
X140507850Y-101859605D01*
X140516300Y-101904596D01*
X140516300Y-102039700D01*
X142908038Y-102039700D01*
X142975077Y-102059385D01*
X142995719Y-102076019D01*
X143006300Y-102086600D01*
X143772300Y-102086600D01*
X143839339Y-102106285D01*
X143885094Y-102159089D01*
X143896300Y-102210600D01*
X143896300Y-102462600D01*
X143876615Y-102529639D01*
X143823811Y-102575394D01*
X143772300Y-102586600D01*
X142679562Y-102586600D01*
X142612523Y-102566915D01*
X142591881Y-102550281D01*
X142581300Y-102539700D01*
X140516301Y-102539700D01*
X140516301Y-102674029D01*
X140516621Y-102680311D01*
X140526793Y-102779895D01*
X140581942Y-102946322D01*
X140673983Y-103095545D01*
X140797954Y-103219516D01*
X140800956Y-103221368D01*
X140847680Y-103273317D01*
X140858901Y-103342279D01*
X140831057Y-103406361D01*
X140800959Y-103432442D01*
X140797644Y-103434486D01*
X140673588Y-103558542D01*
X140581486Y-103707865D01*
X140526300Y-103874402D01*
X140516119Y-103974058D01*
X140516117Y-103974078D01*
X140515800Y-103977191D01*
X140515800Y-103980338D01*
X140515800Y-103980339D01*
X140515800Y-104749058D01*
X140515800Y-104749077D01*
X140515801Y-104752208D01*
X140516120Y-104755340D01*
X140516121Y-104755341D01*
X140526300Y-104854996D01*
X140581486Y-105021534D01*
X140673588Y-105170857D01*
X140797642Y-105294911D01*
X140797644Y-105294912D01*
X140946966Y-105387014D01*
X141049840Y-105421103D01*
X141113502Y-105442199D01*
X141213158Y-105452380D01*
X141213159Y-105452380D01*
X141216291Y-105452700D01*
X142266308Y-105452699D01*
X142369097Y-105442199D01*
X142535634Y-105387014D01*
X142684956Y-105294912D01*
X142713918Y-105265949D01*
X142775238Y-105232464D01*
X142844930Y-105237447D01*
X142889280Y-105265949D01*
X142902642Y-105279311D01*
X142921611Y-105291011D01*
X143051966Y-105371414D01*
X143163316Y-105408312D01*
X143218502Y-105426599D01*
X143318158Y-105436780D01*
X143318159Y-105436780D01*
X143321291Y-105437100D01*
X143971308Y-105437099D01*
X144074097Y-105426599D01*
X144240634Y-105371414D01*
X144389956Y-105279312D01*
X144405268Y-105263998D01*
X144466590Y-105230514D01*
X144536281Y-105235497D01*
X144580632Y-105264000D01*
X144607644Y-105291012D01*
X144756966Y-105383114D01*
X144868316Y-105420012D01*
X144923502Y-105438299D01*
X145023158Y-105448480D01*
X145023159Y-105448480D01*
X145026291Y-105448800D01*
X145632636Y-105448799D01*
X145699675Y-105468483D01*
X145720317Y-105485118D01*
X146005182Y-105769983D01*
X146038666Y-105831304D01*
X146041500Y-105857662D01*
X146041500Y-106763638D01*
X146021815Y-106830677D01*
X146005181Y-106851319D01*
X146004500Y-106852000D01*
X146004500Y-109301999D01*
X146005181Y-109302680D01*
X146038666Y-109364003D01*
X146041500Y-109390361D01*
X146041500Y-109541932D01*
X146021815Y-109608971D01*
X146005181Y-109629613D01*
X145411624Y-110223169D01*
X145406172Y-110228302D01*
X145362868Y-110266666D01*
X145330000Y-110314283D01*
X145325563Y-110320313D01*
X145289873Y-110365869D01*
X145286024Y-110374420D01*
X145275007Y-110393954D01*
X145269681Y-110401671D01*
X145249165Y-110455764D01*
X145246302Y-110462678D01*
X145222549Y-110515458D01*
X145220861Y-110524672D01*
X145214838Y-110546279D01*
X145211510Y-110555053D01*
X145204533Y-110612508D01*
X145203407Y-110619907D01*
X145192980Y-110676808D01*
X145196474Y-110734559D01*
X145196700Y-110742046D01*
X145196700Y-112161136D01*
X145177015Y-112228175D01*
X145124211Y-112273930D01*
X145055053Y-112283874D01*
X144991497Y-112254849D01*
X144985019Y-112248817D01*
X144391319Y-111655118D01*
X144357834Y-111593795D01*
X144355000Y-111567437D01*
X144355000Y-109294507D01*
X144374685Y-109227468D01*
X144413904Y-109188968D01*
X144485656Y-109144712D01*
X144609712Y-109020656D01*
X144611752Y-109017347D01*
X144663695Y-108970622D01*
X144732657Y-108959395D01*
X144796741Y-108987235D01*
X144822831Y-109017343D01*
X144824682Y-109020344D01*
X144948654Y-109144316D01*
X145097877Y-109236357D01*
X145264303Y-109291506D01*
X145363890Y-109301680D01*
X145370168Y-109301999D01*
X145504499Y-109301999D01*
X145504500Y-109301998D01*
X145504500Y-106852000D01*
X145370171Y-106852000D01*
X145363888Y-106852321D01*
X145264304Y-106862493D01*
X145097877Y-106917642D01*
X144948654Y-107009683D01*
X144824683Y-107133654D01*
X144822830Y-107136659D01*
X144770880Y-107183382D01*
X144701917Y-107194602D01*
X144637836Y-107166757D01*
X144611752Y-107136652D01*
X144609903Y-107133654D01*
X144609712Y-107133344D01*
X144609710Y-107133342D01*
X144609709Y-107133340D01*
X144485657Y-107009288D01*
X144336334Y-106917186D01*
X144169797Y-106862000D01*
X144070141Y-106851819D01*
X144070122Y-106851818D01*
X144067009Y-106851500D01*
X144063860Y-106851500D01*
X143295141Y-106851500D01*
X143295121Y-106851500D01*
X143291992Y-106851501D01*
X143288860Y-106851820D01*
X143288858Y-106851821D01*
X143189203Y-106862000D01*
X143022665Y-106917186D01*
X142873342Y-107009288D01*
X142749288Y-107133342D01*
X142657186Y-107282665D01*
X142602000Y-107449202D01*
X142591819Y-107548858D01*
X142591817Y-107548878D01*
X142591500Y-107551991D01*
X142591500Y-107555138D01*
X142591500Y-107555139D01*
X142591500Y-108598859D01*
X142591500Y-108598878D01*
X142591501Y-108602008D01*
X142591820Y-108605140D01*
X142591821Y-108605141D01*
X142602000Y-108704796D01*
X142657186Y-108871334D01*
X142749286Y-109020654D01*
X142749287Y-109020655D01*
X142749288Y-109020656D01*
X142873344Y-109144712D01*
X142945096Y-109188968D01*
X142991821Y-109240915D01*
X143004000Y-109294507D01*
X143004000Y-110460908D01*
X142984315Y-110527947D01*
X142931511Y-110573702D01*
X142862353Y-110583646D01*
X142836667Y-110577090D01*
X142805885Y-110565609D01*
X142749566Y-110559554D01*
X142749565Y-110559553D01*
X142746273Y-110559200D01*
X142742951Y-110559200D01*
X142686352Y-110559200D01*
X142619313Y-110539515D01*
X142598671Y-110522881D01*
X142582406Y-110506616D01*
X142569767Y-110491817D01*
X142557995Y-110475613D01*
X142524341Y-110447773D01*
X142515699Y-110439909D01*
X140985218Y-108909428D01*
X140951733Y-108848105D01*
X140948899Y-108821747D01*
X140948899Y-107512639D01*
X140948899Y-107512638D01*
X140948899Y-107509328D01*
X140942491Y-107449717D01*
X140892196Y-107314869D01*
X140805946Y-107199654D01*
X140690731Y-107113404D01*
X140555883Y-107063109D01*
X140496273Y-107056700D01*
X140492950Y-107056700D01*
X138703839Y-107056700D01*
X138703820Y-107056700D01*
X138700528Y-107056701D01*
X138697248Y-107057053D01*
X138697240Y-107057054D01*
X138640915Y-107063109D01*
X138506069Y-107113404D01*
X138390854Y-107199654D01*
X138304604Y-107314868D01*
X138254310Y-107449715D01*
X138254309Y-107449717D01*
X138247900Y-107509327D01*
X138247900Y-107512648D01*
X138247900Y-107512649D01*
X138247900Y-109301760D01*
X138247900Y-109301778D01*
X138247901Y-109305072D01*
X138248253Y-109308352D01*
X138248254Y-109308359D01*
X138254309Y-109364684D01*
X138263886Y-109390361D01*
X138304604Y-109499531D01*
X138390854Y-109614746D01*
X138506069Y-109700996D01*
X138618307Y-109742858D01*
X138637482Y-109750010D01*
X138693416Y-109791881D01*
X138717833Y-109857346D01*
X138702981Y-109925619D01*
X138681831Y-109953873D01*
X138559903Y-110075801D01*
X138424365Y-110269370D01*
X138324497Y-110483536D01*
X138263336Y-110711792D01*
X138242740Y-110947199D01*
X138263336Y-111182607D01*
X138266948Y-111196086D01*
X138324497Y-111410863D01*
X138424365Y-111625030D01*
X138559905Y-111818601D01*
X138726999Y-111985695D01*
X138912560Y-112115626D01*
X138956183Y-112170202D01*
X138963376Y-112239701D01*
X138931854Y-112302055D01*
X138912559Y-112318775D01*
X138726995Y-112448708D01*
X138559905Y-112615798D01*
X138424365Y-112809370D01*
X138324497Y-113023536D01*
X138263336Y-113251792D01*
X138242740Y-113487200D01*
X138263336Y-113722607D01*
X138304747Y-113877154D01*
X138324497Y-113950863D01*
X138424365Y-114165030D01*
X138559905Y-114358601D01*
X138726999Y-114525695D01*
X138912560Y-114655626D01*
X138956183Y-114710202D01*
X138963376Y-114779701D01*
X138931854Y-114842055D01*
X138912558Y-114858775D01*
X138780174Y-114951472D01*
X138726995Y-114988708D01*
X138559905Y-115155798D01*
X138424365Y-115349370D01*
X138324497Y-115563536D01*
X138263336Y-115791792D01*
X138242740Y-116027199D01*
X138263336Y-116262607D01*
X138301544Y-116405199D01*
X138324497Y-116490863D01*
X138424365Y-116705030D01*
X138559905Y-116898601D01*
X138726999Y-117065695D01*
X138912996Y-117195932D01*
X138956619Y-117250507D01*
X138963812Y-117320006D01*
X138932290Y-117382360D01*
X138912995Y-117399080D01*
X138727319Y-117529092D01*
X138560290Y-117696121D01*
X138424800Y-117889621D01*
X138324969Y-118103707D01*
X138267764Y-118317199D01*
X138267764Y-118317200D01*
X139164714Y-118317200D01*
X139138907Y-118357356D01*
X139098400Y-118495311D01*
X139098400Y-118639089D01*
X139138907Y-118777044D01*
X139164714Y-118817200D01*
X138267764Y-118817200D01*
X138324969Y-119030692D01*
X138424799Y-119244776D01*
X138560293Y-119438281D01*
X138727318Y-119605306D01*
X138920823Y-119740800D01*
X139134909Y-119840630D01*
X139348400Y-119897834D01*
X139348400Y-119002701D01*
X139456085Y-119051880D01*
X139562637Y-119067200D01*
X139634163Y-119067200D01*
X139740715Y-119051880D01*
X139848400Y-119002701D01*
X139848400Y-119813747D01*
X139847721Y-119826708D01*
X139835940Y-119938799D01*
X139855726Y-120127057D01*
X139857785Y-120133392D01*
X139859780Y-120203233D01*
X139823699Y-120263066D01*
X139804951Y-120277248D01*
X139737443Y-120318887D01*
X139613386Y-120442944D01*
X139611342Y-120446259D01*
X139559392Y-120492982D01*
X139490429Y-120504201D01*
X139426348Y-120476355D01*
X139400268Y-120446256D01*
X139398416Y-120443254D01*
X139274445Y-120319283D01*
X139125222Y-120227242D01*
X138958796Y-120172093D01*
X138859209Y-120161919D01*
X138852932Y-120161600D01*
X138718600Y-120161600D01*
X138718600Y-122611599D01*
X138852929Y-122611599D01*
X138859211Y-122611278D01*
X138958795Y-122601106D01*
X139125222Y-122545957D01*
X139274445Y-122453916D01*
X139398413Y-122329948D01*
X139400264Y-122326948D01*
X139452210Y-122280221D01*
X139521172Y-122268996D01*
X139585256Y-122296836D01*
X139611346Y-122326945D01*
X139613390Y-122330259D01*
X139737442Y-122454311D01*
X139737444Y-122454312D01*
X139886766Y-122546414D01*
X139998116Y-122583312D01*
X140053302Y-122601599D01*
X140152958Y-122611780D01*
X140152959Y-122611780D01*
X140156091Y-122612100D01*
X140931108Y-122612099D01*
X141033897Y-122601599D01*
X141038194Y-122600174D01*
X141108022Y-122597772D01*
X141168064Y-122633502D01*
X141199258Y-122696021D01*
X141201200Y-122717875D01*
X141201200Y-122739256D01*
X141201200Y-122739275D01*
X141201201Y-122742408D01*
X141201520Y-122745539D01*
X141201521Y-122745542D01*
X141211700Y-122845196D01*
X141266886Y-123011734D01*
X141358986Y-123161054D01*
X141358987Y-123161055D01*
X141358988Y-123161056D01*
X141452651Y-123254719D01*
X141486135Y-123316040D01*
X141481151Y-123385732D01*
X141452651Y-123430080D01*
X141358987Y-123523744D01*
X141266886Y-123673065D01*
X141211700Y-123839602D01*
X141201519Y-123939258D01*
X141201517Y-123939278D01*
X141201200Y-123942391D01*
X141201200Y-123945538D01*
X141201200Y-123945539D01*
X141201200Y-124739258D01*
X141201200Y-124739277D01*
X141201201Y-124742408D01*
X141201520Y-124745540D01*
X141201521Y-124745541D01*
X141211700Y-124845196D01*
X141266886Y-125011734D01*
X141358988Y-125161057D01*
X141483042Y-125285111D01*
X141495557Y-125292830D01*
X141632366Y-125377214D01*
X141743716Y-125414112D01*
X141798902Y-125432399D01*
X141876254Y-125440301D01*
X141901691Y-125442900D01*
X141989000Y-125442899D01*
X142056038Y-125462583D01*
X142101794Y-125515386D01*
X142113000Y-125566899D01*
X142113000Y-125576300D01*
X142093315Y-125643339D01*
X142040511Y-125689094D01*
X141989000Y-125700300D01*
X140668939Y-125700300D01*
X140668920Y-125700300D01*
X140665628Y-125700301D01*
X140662348Y-125700653D01*
X140662340Y-125700654D01*
X140606015Y-125706709D01*
X140471169Y-125757004D01*
X140355954Y-125843254D01*
X140269704Y-125958469D01*
X140220689Y-126089883D01*
X140178817Y-126145816D01*
X140113352Y-126170233D01*
X140045080Y-126155381D01*
X140016826Y-126134230D01*
X139894904Y-126012308D01*
X139894901Y-126012305D01*
X139701330Y-125876765D01*
X139487163Y-125776897D01*
X139426002Y-125760509D01*
X139258907Y-125715736D01*
X139023500Y-125695140D01*
X138788092Y-125715736D01*
X138559836Y-125776897D01*
X138345670Y-125876765D01*
X138152098Y-126012305D01*
X137985005Y-126179398D01*
X137849465Y-126372970D01*
X137749597Y-126587136D01*
X137688436Y-126815392D01*
X137667840Y-127050800D01*
X137688436Y-127286207D01*
X137733209Y-127453302D01*
X137749597Y-127514463D01*
X137849465Y-127728630D01*
X137985005Y-127922201D01*
X138152099Y-128089295D01*
X138345670Y-128224835D01*
X138559837Y-128324703D01*
X138788091Y-128385862D01*
X138788092Y-128385863D01*
X139023499Y-128406459D01*
X139023499Y-128406458D01*
X139023500Y-128406459D01*
X139258908Y-128385863D01*
X139359373Y-128358943D01*
X139429221Y-128360606D01*
X139479146Y-128391036D01*
X139735894Y-128647785D01*
X139769379Y-128709107D01*
X139764395Y-128778799D01*
X139722523Y-128834732D01*
X139713312Y-128841003D01*
X139694041Y-128852889D01*
X139569988Y-128976942D01*
X139477886Y-129126265D01*
X139422700Y-129292802D01*
X139412519Y-129392458D01*
X139412517Y-129392478D01*
X139412200Y-129395591D01*
X139412200Y-129398738D01*
X139412200Y-129398739D01*
X139412200Y-130392459D01*
X139412200Y-130392478D01*
X139412201Y-130395608D01*
X139412520Y-130398740D01*
X139412521Y-130398741D01*
X139422700Y-130498396D01*
X139477886Y-130664934D01*
X139569988Y-130814257D01*
X139694042Y-130938311D01*
X139694044Y-130938312D01*
X139843366Y-131030414D01*
X139954717Y-131067312D01*
X140009902Y-131085599D01*
X140109558Y-131095780D01*
X140109559Y-131095780D01*
X140112691Y-131096100D01*
X140862708Y-131096099D01*
X140965497Y-131085599D01*
X141132034Y-131030414D01*
X141281356Y-130938312D01*
X141405412Y-130814256D01*
X141407160Y-130811421D01*
X141459108Y-130764696D01*
X141528071Y-130753473D01*
X141592153Y-130781316D01*
X141618239Y-130811421D01*
X141619988Y-130814257D01*
X141744042Y-130938311D01*
X141744044Y-130938312D01*
X141893366Y-131030414D01*
X142004716Y-131067312D01*
X142059902Y-131085599D01*
X142159558Y-131095780D01*
X142159559Y-131095780D01*
X142162691Y-131096100D01*
X142912708Y-131096099D01*
X143015497Y-131085599D01*
X143182034Y-131030414D01*
X143331356Y-130938312D01*
X143455412Y-130814256D01*
X143547514Y-130664934D01*
X143602699Y-130498397D01*
X143613200Y-130395609D01*
X143613199Y-129395592D01*
X143602699Y-129292803D01*
X143547514Y-129126266D01*
X143455412Y-128976944D01*
X143455411Y-128976942D01*
X143400319Y-128921850D01*
X143366834Y-128860527D01*
X143364000Y-128834169D01*
X143364000Y-125292830D01*
X143383685Y-125225791D01*
X143400320Y-125205148D01*
X143444411Y-125161057D01*
X143444412Y-125161056D01*
X143536514Y-125011734D01*
X143591699Y-124845197D01*
X143602200Y-124742409D01*
X143602199Y-123942392D01*
X143591699Y-123839603D01*
X143536514Y-123673066D01*
X143444412Y-123523744D01*
X143350747Y-123430079D01*
X143317264Y-123368759D01*
X143322248Y-123299067D01*
X143350747Y-123254720D01*
X143444412Y-123161056D01*
X143496378Y-123076804D01*
X143548327Y-123030079D01*
X143601918Y-123017900D01*
X145748082Y-123017900D01*
X145815121Y-123037585D01*
X145853621Y-123076804D01*
X145905586Y-123161055D01*
X145999250Y-123254719D01*
X146032734Y-123316042D01*
X146027750Y-123385734D01*
X145999250Y-123430081D01*
X145905587Y-123523744D01*
X145813486Y-123673065D01*
X145758300Y-123839602D01*
X145748119Y-123939258D01*
X145748117Y-123939278D01*
X145747800Y-123942391D01*
X145747800Y-123945538D01*
X145747800Y-123945539D01*
X145747800Y-124739258D01*
X145747800Y-124739277D01*
X145747801Y-124742408D01*
X145748120Y-124745540D01*
X145748121Y-124745541D01*
X145758300Y-124845196D01*
X145813486Y-125011734D01*
X145905588Y-125161056D01*
X145944680Y-125200148D01*
X145978166Y-125261471D01*
X145981000Y-125287830D01*
X145981000Y-128855568D01*
X145961315Y-128922607D01*
X145944683Y-128943247D01*
X145910989Y-128976942D01*
X145818886Y-129126265D01*
X145763700Y-129292802D01*
X145753519Y-129392458D01*
X145753517Y-129392478D01*
X145753200Y-129395591D01*
X145753200Y-129398738D01*
X145753200Y-129398739D01*
X145753200Y-130392459D01*
X145753200Y-130392478D01*
X145753201Y-130395608D01*
X145753520Y-130398740D01*
X145753521Y-130398741D01*
X145763700Y-130498396D01*
X145818886Y-130664934D01*
X145910988Y-130814257D01*
X146035042Y-130938311D01*
X146035044Y-130938312D01*
X146184366Y-131030414D01*
X146295716Y-131067312D01*
X146350902Y-131085599D01*
X146450558Y-131095780D01*
X146450559Y-131095780D01*
X146453691Y-131096100D01*
X147203708Y-131096099D01*
X147306497Y-131085599D01*
X147473034Y-131030414D01*
X147622356Y-130938312D01*
X147746412Y-130814256D01*
X147748158Y-130811424D01*
X147800102Y-130764699D01*
X147869064Y-130753473D01*
X147933148Y-130781312D01*
X147959235Y-130811416D01*
X147960986Y-130814255D01*
X148085042Y-130938311D01*
X148085044Y-130938312D01*
X148234366Y-131030414D01*
X148345717Y-131067312D01*
X148400902Y-131085599D01*
X148500558Y-131095780D01*
X148500559Y-131095780D01*
X148503691Y-131096100D01*
X149253708Y-131096099D01*
X149356497Y-131085599D01*
X149523034Y-131030414D01*
X149672356Y-130938312D01*
X149796412Y-130814256D01*
X149888514Y-130664934D01*
X149943699Y-130498397D01*
X149954200Y-130395609D01*
X149954199Y-129395592D01*
X149943699Y-129292803D01*
X149888514Y-129126266D01*
X149796412Y-128976944D01*
X149796411Y-128976942D01*
X149672358Y-128852889D01*
X149639853Y-128832840D01*
X149593129Y-128780892D01*
X149581906Y-128711929D01*
X149609750Y-128647847D01*
X149617261Y-128639628D01*
X149865853Y-128391035D01*
X149927174Y-128357552D01*
X149985625Y-128358942D01*
X150086092Y-128385863D01*
X150321500Y-128406459D01*
X150556908Y-128385863D01*
X150785163Y-128324703D01*
X150999330Y-128224835D01*
X151192901Y-128089295D01*
X151359995Y-127922201D01*
X151495535Y-127728630D01*
X151595403Y-127514463D01*
X151656563Y-127286208D01*
X151677159Y-127050800D01*
X151656563Y-126815392D01*
X151595403Y-126587137D01*
X151495535Y-126372971D01*
X151359995Y-126179399D01*
X151192901Y-126012305D01*
X150999330Y-125876765D01*
X150785163Y-125776897D01*
X150724002Y-125760509D01*
X150556907Y-125715736D01*
X150321500Y-125695140D01*
X150086092Y-125715736D01*
X149857836Y-125776897D01*
X149643670Y-125876765D01*
X149450101Y-126012303D01*
X149328173Y-126134231D01*
X149266850Y-126167715D01*
X149197158Y-126162731D01*
X149141225Y-126120859D01*
X149124310Y-126089882D01*
X149117158Y-126070707D01*
X149075296Y-125958469D01*
X148989046Y-125843254D01*
X148873831Y-125757004D01*
X148738983Y-125706709D01*
X148679373Y-125700300D01*
X148676051Y-125700300D01*
X147356000Y-125700300D01*
X147288961Y-125680615D01*
X147243206Y-125627811D01*
X147232000Y-125576300D01*
X147232000Y-125566899D01*
X147251685Y-125499860D01*
X147304489Y-125454105D01*
X147356000Y-125442899D01*
X147445159Y-125442899D01*
X147448308Y-125442899D01*
X147551097Y-125432399D01*
X147717634Y-125377214D01*
X147866956Y-125285112D01*
X147991012Y-125161056D01*
X148083114Y-125011734D01*
X148138299Y-124845197D01*
X148148800Y-124742409D01*
X148148799Y-123942392D01*
X148138299Y-123839603D01*
X148083114Y-123673066D01*
X147991012Y-123523744D01*
X147897347Y-123430079D01*
X147863864Y-123368759D01*
X147868848Y-123299067D01*
X147897347Y-123254720D01*
X147991012Y-123161056D01*
X148083114Y-123011734D01*
X148138299Y-122845197D01*
X148148800Y-122742409D01*
X148148799Y-122719174D01*
X148168481Y-122652138D01*
X148221283Y-122606381D01*
X148290441Y-122596434D01*
X148311801Y-122601466D01*
X148312203Y-122601599D01*
X148411858Y-122611780D01*
X148411859Y-122611780D01*
X148414991Y-122612100D01*
X149190008Y-122612099D01*
X149292797Y-122601599D01*
X149459334Y-122546414D01*
X149608656Y-122454312D01*
X149732712Y-122330256D01*
X149734752Y-122326947D01*
X149786695Y-122280222D01*
X149855657Y-122268995D01*
X149919741Y-122296835D01*
X149945831Y-122326943D01*
X149947682Y-122329944D01*
X150071654Y-122453916D01*
X150220877Y-122545957D01*
X150387303Y-122601106D01*
X150486890Y-122611280D01*
X150493168Y-122611599D01*
X150627499Y-122611599D01*
X150627500Y-122611598D01*
X150627500Y-121636600D01*
X151127500Y-121636600D01*
X151127500Y-122611599D01*
X151261829Y-122611599D01*
X151268111Y-122611278D01*
X151367695Y-122601106D01*
X151534122Y-122545957D01*
X151683345Y-122453916D01*
X151807316Y-122329945D01*
X151899357Y-122180722D01*
X151954506Y-122014296D01*
X151964680Y-121914709D01*
X151965000Y-121908431D01*
X151965000Y-121636600D01*
X151127500Y-121636600D01*
X150627500Y-121636600D01*
X150627500Y-120161600D01*
X151127500Y-120161600D01*
X151127500Y-121136600D01*
X151964999Y-121136600D01*
X151964999Y-120864770D01*
X151964678Y-120858488D01*
X151954506Y-120758904D01*
X151899357Y-120592477D01*
X151807316Y-120443254D01*
X151683345Y-120319283D01*
X151534122Y-120227242D01*
X151367696Y-120172093D01*
X151268109Y-120161919D01*
X151261832Y-120161600D01*
X151127500Y-120161600D01*
X150627500Y-120161600D01*
X150493171Y-120161600D01*
X150486888Y-120161921D01*
X150387304Y-120172093D01*
X150220877Y-120227242D01*
X150071654Y-120319283D01*
X149947683Y-120443254D01*
X149945830Y-120446259D01*
X149893880Y-120492982D01*
X149824917Y-120504202D01*
X149760836Y-120476357D01*
X149734752Y-120446252D01*
X149732903Y-120443254D01*
X149732712Y-120442944D01*
X149732710Y-120442942D01*
X149732709Y-120442940D01*
X149608658Y-120318889D01*
X149550062Y-120282747D01*
X149503338Y-120230799D01*
X149492115Y-120161836D01*
X149497226Y-120138896D01*
X149501074Y-120127056D01*
X149520860Y-119938800D01*
X149509079Y-119826708D01*
X149508400Y-119813747D01*
X149508400Y-119002701D01*
X149616085Y-119051880D01*
X149722637Y-119067200D01*
X149794163Y-119067200D01*
X149900715Y-119051880D01*
X150008400Y-119002701D01*
X150008400Y-119897833D01*
X150221890Y-119840630D01*
X150435976Y-119740800D01*
X150629481Y-119605306D01*
X150796506Y-119438281D01*
X150932000Y-119244776D01*
X151031830Y-119030692D01*
X151089036Y-118817200D01*
X150192086Y-118817200D01*
X150217893Y-118777044D01*
X150258400Y-118639089D01*
X150258400Y-118495311D01*
X150217893Y-118357356D01*
X150192086Y-118317200D01*
X151089036Y-118317200D01*
X151089035Y-118317199D01*
X151031830Y-118103707D01*
X150931999Y-117889621D01*
X150796509Y-117696121D01*
X150629481Y-117529093D01*
X150443804Y-117399080D01*
X150400180Y-117344503D01*
X150392987Y-117275004D01*
X150424509Y-117212650D01*
X150443799Y-117195934D01*
X150629801Y-117065695D01*
X150796895Y-116898601D01*
X150932435Y-116705030D01*
X151032303Y-116490863D01*
X151093463Y-116262608D01*
X151114059Y-116027200D01*
X151093463Y-115791792D01*
X151066543Y-115691325D01*
X151068206Y-115621476D01*
X151098635Y-115571553D01*
X151412192Y-115257997D01*
X151428285Y-115245106D01*
X151430273Y-115242987D01*
X151430277Y-115242986D01*
X151476349Y-115193923D01*
X151478934Y-115191255D01*
X151498520Y-115171671D01*
X151500985Y-115168492D01*
X151508567Y-115159616D01*
X151538462Y-115127782D01*
X151548117Y-115110218D01*
X151558794Y-115093964D01*
X151571073Y-115078136D01*
X151588418Y-115038052D01*
X151593560Y-115027556D01*
X151614597Y-114989292D01*
X151619579Y-114969884D01*
X151625881Y-114951480D01*
X151633837Y-114933096D01*
X151640669Y-114889952D01*
X151643033Y-114878538D01*
X151653900Y-114836219D01*
X151653900Y-114816183D01*
X151655427Y-114796784D01*
X151658560Y-114777004D01*
X151654450Y-114733524D01*
X151653900Y-114721855D01*
X151653900Y-110638239D01*
X151656163Y-110617738D01*
X151653961Y-110547643D01*
X151653900Y-110543749D01*
X151653900Y-110520043D01*
X151653900Y-110516149D01*
X151653398Y-110512180D01*
X151652480Y-110500523D01*
X151652455Y-110499715D01*
X151651109Y-110456872D01*
X151645520Y-110437639D01*
X151641574Y-110418581D01*
X151639064Y-110398705D01*
X151622988Y-110358103D01*
X151619204Y-110347052D01*
X151609683Y-110314283D01*
X151607018Y-110305109D01*
X151596814Y-110287854D01*
X151588261Y-110270394D01*
X151580886Y-110251768D01*
X151580886Y-110251767D01*
X151555208Y-110216424D01*
X151548801Y-110206670D01*
X151526569Y-110169078D01*
X151512406Y-110154915D01*
X151499767Y-110140116D01*
X151487995Y-110123912D01*
X151454341Y-110096072D01*
X151445699Y-110088208D01*
X151044616Y-109687124D01*
X151011131Y-109625801D01*
X151016115Y-109556109D01*
X151033032Y-109525130D01*
X151052196Y-109499531D01*
X151102491Y-109364683D01*
X151108900Y-109305073D01*
X151108899Y-107509328D01*
X151102491Y-107449717D01*
X151052196Y-107314869D01*
X150965946Y-107199654D01*
X150850731Y-107113404D01*
X150715883Y-107063109D01*
X150656273Y-107056700D01*
X150652950Y-107056700D01*
X148863839Y-107056700D01*
X148863820Y-107056700D01*
X148860528Y-107056701D01*
X148857248Y-107057053D01*
X148857240Y-107057054D01*
X148800915Y-107063109D01*
X148666069Y-107113404D01*
X148550854Y-107199654D01*
X148464604Y-107314868D01*
X148414310Y-107449715D01*
X148414309Y-107449717D01*
X148407900Y-107509327D01*
X148407900Y-107512649D01*
X148407900Y-107952644D01*
X148388215Y-108019683D01*
X148371581Y-108040325D01*
X147604181Y-108807726D01*
X147542858Y-108841211D01*
X147473167Y-108836227D01*
X147417233Y-108794355D01*
X147392816Y-108728891D01*
X147392500Y-108720045D01*
X147392500Y-105550650D01*
X147392726Y-105543163D01*
X147396219Y-105485415D01*
X147385785Y-105428482D01*
X147384663Y-105421103D01*
X147380524Y-105387013D01*
X147377688Y-105363655D01*
X147377687Y-105363653D01*
X147377687Y-105363651D01*
X147374364Y-105354888D01*
X147368337Y-105333268D01*
X147366650Y-105324061D01*
X147342903Y-105271298D01*
X147340039Y-105264382D01*
X147315958Y-105200886D01*
X147307900Y-105156915D01*
X147307900Y-104614700D01*
X147807900Y-104614700D01*
X147807900Y-105452199D01*
X148079729Y-105452199D01*
X148086011Y-105451878D01*
X148185595Y-105441706D01*
X148352022Y-105386557D01*
X148501245Y-105294516D01*
X148625216Y-105170545D01*
X148717257Y-105021322D01*
X148772406Y-104854896D01*
X148782580Y-104755309D01*
X148782900Y-104749031D01*
X148782900Y-104614700D01*
X147807900Y-104614700D01*
X147307900Y-104614700D01*
X147307900Y-104238700D01*
X147327585Y-104171661D01*
X147380389Y-104125906D01*
X147431900Y-104114700D01*
X148782899Y-104114700D01*
X148782899Y-103980370D01*
X148782578Y-103974088D01*
X148772406Y-103874504D01*
X148717257Y-103708077D01*
X148625216Y-103558854D01*
X148501244Y-103434882D01*
X148498243Y-103433031D01*
X148451518Y-103381083D01*
X148440297Y-103312121D01*
X148468140Y-103248039D01*
X148498245Y-103221953D01*
X148501556Y-103219912D01*
X148625612Y-103095856D01*
X148717714Y-102946534D01*
X148772899Y-102779997D01*
X148783400Y-102677209D01*
X148783399Y-101902192D01*
X148783079Y-101899059D01*
X148783005Y-101897607D01*
X148799253Y-101829653D01*
X148819069Y-101807573D01*
X148817578Y-101806231D01*
X148952961Y-101655873D01*
X149047607Y-101491941D01*
X149091196Y-101357788D01*
X149106102Y-101311913D01*
X149125888Y-101123657D01*
X149106102Y-100935401D01*
X149055739Y-100780400D01*
X149047607Y-100755372D01*
X148952961Y-100591440D01*
X148848649Y-100475590D01*
X148818419Y-100412599D01*
X148816799Y-100392618D01*
X148816799Y-100003017D01*
X148819063Y-99982513D01*
X148818693Y-99970747D01*
X148816860Y-99912400D01*
X148816799Y-99908505D01*
X148816799Y-99884814D01*
X148816799Y-99880924D01*
X148816297Y-99876951D01*
X148815379Y-99865292D01*
X148814008Y-99821647D01*
X148808419Y-99802414D01*
X148804473Y-99783356D01*
X148801963Y-99763480D01*
X148785887Y-99722878D01*
X148782103Y-99711827D01*
X148770412Y-99671588D01*
X148769917Y-99669884D01*
X148759713Y-99652629D01*
X148751160Y-99635169D01*
X148743785Y-99616543D01*
X148743785Y-99616542D01*
X148718107Y-99581199D01*
X148711700Y-99571445D01*
X148689468Y-99533853D01*
X148675305Y-99519690D01*
X148662666Y-99504891D01*
X148650894Y-99488687D01*
X148617240Y-99460847D01*
X148608598Y-99452983D01*
X148419489Y-99263874D01*
X148386004Y-99202551D01*
X148390988Y-99132859D01*
X148432860Y-99076926D01*
X148477937Y-99055688D01*
X148502910Y-99049629D01*
X148694005Y-98962360D01*
X148865121Y-98840507D01*
X149010092Y-98688466D01*
X149123666Y-98511744D01*
X149201744Y-98316714D01*
X149241500Y-98110437D01*
X149241500Y-97905400D01*
X148441500Y-97905400D01*
X148441500Y-97405400D01*
X149241500Y-97405400D01*
X149241500Y-97255949D01*
X149241218Y-97250040D01*
X149226535Y-97096279D01*
X149167350Y-96894712D01*
X149071087Y-96707987D01*
X148941230Y-96542861D01*
X148786060Y-96408405D01*
X148748286Y-96349627D01*
X148748286Y-96279757D01*
X148786061Y-96220979D01*
X148849616Y-96191954D01*
X148867254Y-96190692D01*
X153262011Y-96190826D01*
X153262020Y-96190829D01*
X153305747Y-96190829D01*
X153321916Y-96191887D01*
X153330986Y-96193081D01*
X153334134Y-96193537D01*
X153420727Y-96207247D01*
X153448763Y-96215153D01*
X153475290Y-96226140D01*
X153484109Y-96230206D01*
X153537768Y-96257545D01*
X153556961Y-96269654D01*
X153583132Y-96289735D01*
X153595328Y-96300431D01*
X153635567Y-96340670D01*
X153646263Y-96352866D01*
X153666344Y-96379037D01*
X153678453Y-96398230D01*
X153705792Y-96451889D01*
X153709868Y-96460730D01*
X153720841Y-96487222D01*
X153728754Y-96515283D01*
X153742460Y-96601854D01*
X153742924Y-96605060D01*
X153744110Y-96614069D01*
X153745171Y-96630253D01*
X153745171Y-132147545D01*
X153744110Y-132163734D01*
X153742923Y-132172748D01*
X153742459Y-132175949D01*
X153728754Y-132262515D01*
X153720841Y-132290576D01*
X153709868Y-132317068D01*
X153705792Y-132325909D01*
X153678453Y-132379568D01*
X153666344Y-132398761D01*
X153646263Y-132424932D01*
X153635567Y-132437128D01*
X153595328Y-132477367D01*
X153583132Y-132488063D01*
X153556961Y-132508144D01*
X153537768Y-132520253D01*
X153484109Y-132547592D01*
X153475268Y-132551668D01*
X153448776Y-132562641D01*
X153420715Y-132570554D01*
X153334149Y-132584259D01*
X153330948Y-132584723D01*
X153321934Y-132585910D01*
X153305745Y-132586971D01*
X135949453Y-132586971D01*
X135933269Y-132585910D01*
X135924260Y-132584724D01*
X135921054Y-132584260D01*
X135834483Y-132570554D01*
X135806425Y-132562641D01*
X135779930Y-132551668D01*
X135771089Y-132547592D01*
X135717430Y-132520253D01*
X135698237Y-132508144D01*
X135672066Y-132488063D01*
X135659870Y-132477367D01*
X135619631Y-132437128D01*
X135608935Y-132424932D01*
X135588854Y-132398761D01*
X135576745Y-132379568D01*
X135549406Y-132325909D01*
X135545340Y-132317090D01*
X135534353Y-132290563D01*
X135526447Y-132262527D01*
X135512737Y-132175934D01*
X135512275Y-132172741D01*
X135511088Y-132163717D01*
X135510029Y-132147546D01*
X135510029Y-121636600D01*
X137381101Y-121636600D01*
X137381101Y-121908429D01*
X137381421Y-121914711D01*
X137391593Y-122014295D01*
X137446742Y-122180722D01*
X137538783Y-122329945D01*
X137662754Y-122453916D01*
X137811977Y-122545957D01*
X137978403Y-122601106D01*
X138077990Y-122611280D01*
X138084268Y-122611599D01*
X138218599Y-122611599D01*
X138218600Y-122611598D01*
X138218600Y-121636600D01*
X137381101Y-121636600D01*
X135510029Y-121636600D01*
X135510029Y-121136600D01*
X137381100Y-121136600D01*
X138218600Y-121136600D01*
X138218600Y-120161600D01*
X138084271Y-120161600D01*
X138077988Y-120161921D01*
X137978404Y-120172093D01*
X137811977Y-120227242D01*
X137662754Y-120319283D01*
X137538783Y-120443254D01*
X137446742Y-120592477D01*
X137391593Y-120758903D01*
X137381419Y-120858490D01*
X137381100Y-120864768D01*
X137381100Y-121136600D01*
X135510029Y-121136600D01*
X135510029Y-96629724D01*
X135511086Y-96613570D01*
X135512323Y-96604173D01*
X135512739Y-96601303D01*
X135526413Y-96514858D01*
X135534323Y-96486802D01*
X135545488Y-96459849D01*
X135549539Y-96451061D01*
X135576665Y-96397826D01*
X135588758Y-96378661D01*
X135609091Y-96352164D01*
X135619765Y-96339994D01*
X135659713Y-96300049D01*
X135671888Y-96289372D01*
X135698384Y-96269042D01*
X135717550Y-96256950D01*
X135770796Y-96229823D01*
X135779560Y-96225784D01*
X135806555Y-96214604D01*
X135834594Y-96206698D01*
X135919998Y-96193177D01*
X135923049Y-96192734D01*
X135933507Y-96191358D01*
X135949669Y-96190300D01*
X140422979Y-96190436D01*
G37*
%TD.AperFunction*%
%TA.AperFunction,Conductor*%
G36*
X143722835Y-112913082D02*
G01*
X143767181Y-112941582D01*
X145556517Y-114730918D01*
X145590002Y-114792241D01*
X145585018Y-114861933D01*
X145556517Y-114906280D01*
X145428824Y-115033973D01*
X145423372Y-115039106D01*
X145380068Y-115077470D01*
X145347200Y-115125087D01*
X145342763Y-115131117D01*
X145307073Y-115176673D01*
X145303224Y-115185224D01*
X145292207Y-115204758D01*
X145286881Y-115212475D01*
X145266365Y-115266568D01*
X145263502Y-115273482D01*
X145239749Y-115326262D01*
X145238061Y-115335476D01*
X145232038Y-115357083D01*
X145228710Y-115365857D01*
X145221733Y-115423312D01*
X145220607Y-115430711D01*
X145210180Y-115487612D01*
X145213674Y-115545363D01*
X145213900Y-115552850D01*
X145213900Y-121259349D01*
X145213674Y-121266836D01*
X145210180Y-121324587D01*
X145220607Y-121381487D01*
X145221734Y-121388886D01*
X145228712Y-121446347D01*
X145232036Y-121455112D01*
X145238060Y-121476723D01*
X145239748Y-121485937D01*
X145242481Y-121492008D01*
X145252045Y-121561220D01*
X145222672Y-121624615D01*
X145163688Y-121662067D01*
X145129406Y-121666900D01*
X143601918Y-121666900D01*
X143534879Y-121647215D01*
X143496379Y-121607997D01*
X143444412Y-121523744D01*
X143444410Y-121523742D01*
X143442323Y-121520358D01*
X143423883Y-121452965D01*
X143442323Y-121390165D01*
X143447676Y-121381487D01*
X143527214Y-121252534D01*
X143582399Y-121085997D01*
X143592900Y-120983209D01*
X143592899Y-120183192D01*
X143582399Y-120080403D01*
X143527214Y-119913866D01*
X143469992Y-119821095D01*
X143435111Y-119764542D01*
X143341449Y-119670880D01*
X143307964Y-119609557D01*
X143312948Y-119539865D01*
X143341448Y-119495519D01*
X143435112Y-119401856D01*
X143527214Y-119252534D01*
X143582399Y-119085997D01*
X143592900Y-118983209D01*
X143592899Y-118183192D01*
X143582399Y-118080403D01*
X143527214Y-117913866D01*
X143435112Y-117764544D01*
X143435111Y-117764542D01*
X143311058Y-117640489D01*
X143158349Y-117546298D01*
X143111625Y-117494350D01*
X143099446Y-117440759D01*
X143099446Y-116245408D01*
X143119131Y-116178369D01*
X143124170Y-116171109D01*
X143142196Y-116147031D01*
X143192491Y-116012183D01*
X143198900Y-115952573D01*
X143198899Y-115456828D01*
X143192838Y-115400445D01*
X143192839Y-115373943D01*
X143198900Y-115317573D01*
X143198899Y-114821828D01*
X143192838Y-114765445D01*
X143192839Y-114738943D01*
X143194047Y-114727707D01*
X143198900Y-114682573D01*
X143198899Y-114186828D01*
X143192586Y-114128100D01*
X143192587Y-114101595D01*
X143198045Y-114050827D01*
X143198400Y-114044218D01*
X143198400Y-113999700D01*
X143193680Y-113994980D01*
X143142715Y-113980015D01*
X143110487Y-113950011D01*
X143053593Y-113874010D01*
X143029176Y-113808545D01*
X143044028Y-113740272D01*
X143053594Y-113725387D01*
X143055944Y-113722247D01*
X143055946Y-113722246D01*
X143110486Y-113649388D01*
X143166422Y-113607518D01*
X143195900Y-113602199D01*
X143198400Y-113599700D01*
X143198400Y-113555181D01*
X143198045Y-113548569D01*
X143192587Y-113497798D01*
X143192587Y-113471286D01*
X143198544Y-113415880D01*
X143198900Y-113412573D01*
X143198899Y-113282897D01*
X143218583Y-113215859D01*
X143271387Y-113170104D01*
X143271856Y-113169890D01*
X143303625Y-113155592D01*
X143310522Y-113152736D01*
X143364626Y-113132218D01*
X143372333Y-113126897D01*
X143391884Y-113115871D01*
X143400428Y-113112026D01*
X143446009Y-113076313D01*
X143451981Y-113071919D01*
X143499629Y-113039032D01*
X143538003Y-112995715D01*
X143543121Y-112990279D01*
X143591820Y-112941581D01*
X143653143Y-112908097D01*
X143722835Y-112913082D01*
G37*
%TD.AperFunction*%
%TA.AperFunction,Conductor*%
G36*
X140603135Y-117060825D02*
G01*
X140640605Y-117094834D01*
X140646582Y-117103061D01*
X140652993Y-117112822D01*
X140675226Y-117150416D01*
X140675229Y-117150419D01*
X140675230Y-117150420D01*
X140689395Y-117164585D01*
X140702027Y-117179375D01*
X140713806Y-117195587D01*
X140747458Y-117223426D01*
X140756099Y-117231289D01*
X140860484Y-117335674D01*
X140893969Y-117396997D01*
X140896124Y-117410393D01*
X140913772Y-117578303D01*
X140968856Y-117747833D01*
X140970717Y-117812990D01*
X141018405Y-117843105D01*
X141032726Y-117863049D01*
X141066912Y-117922262D01*
X141166307Y-118032651D01*
X141196537Y-118095642D01*
X141197515Y-118128225D01*
X141192219Y-118180058D01*
X141192217Y-118180078D01*
X141191900Y-118183191D01*
X141191900Y-118186338D01*
X141191900Y-118186339D01*
X141191900Y-118962712D01*
X141172215Y-119029751D01*
X141119411Y-119075506D01*
X141050253Y-119085450D01*
X141028915Y-119079294D01*
X140995787Y-119072253D01*
X140934305Y-119039061D01*
X140900529Y-118977898D01*
X140901793Y-118918869D01*
X140929036Y-118817200D01*
X140032086Y-118817200D01*
X140057893Y-118777044D01*
X140098400Y-118639089D01*
X140098400Y-118495311D01*
X140057893Y-118357356D01*
X140032086Y-118317200D01*
X140929036Y-118317200D01*
X140929035Y-118317199D01*
X140871830Y-118103707D01*
X140812957Y-117977454D01*
X140802465Y-117908377D01*
X140805879Y-117900740D01*
X140802655Y-117900370D01*
X140749350Y-117857275D01*
X140636506Y-117696118D01*
X140469481Y-117529093D01*
X140283804Y-117399080D01*
X140240180Y-117344503D01*
X140232987Y-117275004D01*
X140264509Y-117212650D01*
X140283799Y-117195934D01*
X140469163Y-117066141D01*
X140535368Y-117043815D01*
X140603135Y-117060825D01*
G37*
%TD.AperFunction*%
%TA.AperFunction,Conductor*%
G36*
X148411502Y-118018379D02*
G01*
X148460197Y-118068484D01*
X148474072Y-118136963D01*
X148470302Y-118158444D01*
X148427763Y-118317199D01*
X148427764Y-118317200D01*
X149324714Y-118317200D01*
X149298907Y-118357356D01*
X149258400Y-118495311D01*
X149258400Y-118639089D01*
X149298907Y-118777044D01*
X149324714Y-118817200D01*
X148427764Y-118817200D01*
X148455006Y-118918869D01*
X148453343Y-118988719D01*
X148414181Y-119046582D01*
X148361013Y-119072253D01*
X148322850Y-119080365D01*
X148322403Y-119078262D01*
X148270071Y-119085273D01*
X148206798Y-119055638D01*
X148169591Y-118996499D01*
X148164899Y-118962718D01*
X148164899Y-118183192D01*
X148164578Y-118180052D01*
X148164467Y-118177869D01*
X148180713Y-118109914D01*
X148215421Y-118071239D01*
X148277642Y-118026033D01*
X148343448Y-118002553D01*
X148411502Y-118018379D01*
G37*
%TD.AperFunction*%
%TA.AperFunction,Conductor*%
G36*
X147734539Y-97425085D02*
G01*
X147780294Y-97477889D01*
X147791500Y-97529400D01*
X147791500Y-97781400D01*
X147771815Y-97848439D01*
X147719011Y-97894194D01*
X147667500Y-97905400D01*
X141615500Y-97905400D01*
X141548461Y-97885715D01*
X141502706Y-97832911D01*
X141491500Y-97781400D01*
X141491500Y-97529400D01*
X141511185Y-97462361D01*
X141563989Y-97416606D01*
X141615500Y-97405400D01*
X147667500Y-97405400D01*
X147734539Y-97425085D01*
G37*
%TD.AperFunction*%
%TD*%
M02*
