%TF.GenerationSoftware,KiCad,Pcbnew,7.0.2-0*%
%TF.CreationDate,2024-07-03T10:32:26-07:00*%
%TF.ProjectId,ft230x-breakout,66743233-3078-42d6-9272-65616b6f7574,1.0*%
%TF.SameCoordinates,Original*%
%TF.FileFunction,Paste,Top*%
%TF.FilePolarity,Positive*%
%FSLAX46Y46*%
G04 Gerber Fmt 4.6, Leading zero omitted, Abs format (unit mm)*
G04 Created by KiCad (PCBNEW 7.0.2-0) date 2024-07-03 10:32:26*
%MOMM*%
%LPD*%
G01*
G04 APERTURE LIST*
G04 Aperture macros list*
%AMRoundRect*
0 Rectangle with rounded corners*
0 $1 Rounding radius*
0 $2 $3 $4 $5 $6 $7 $8 $9 X,Y pos of 4 corners*
0 Add a 4 corners polygon primitive as box body*
4,1,4,$2,$3,$4,$5,$6,$7,$8,$9,$2,$3,0*
0 Add four circle primitives for the rounded corners*
1,1,$1+$1,$2,$3*
1,1,$1+$1,$4,$5*
1,1,$1+$1,$6,$7*
1,1,$1+$1,$8,$9*
0 Add four rect primitives between the rounded corners*
20,1,$1+$1,$2,$3,$4,$5,0*
20,1,$1+$1,$4,$5,$6,$7,0*
20,1,$1+$1,$6,$7,$8,$9,0*
20,1,$1+$1,$8,$9,$2,$3,0*%
G04 Aperture macros list end*
%ADD10RoundRect,0.250000X-0.450000X0.350000X-0.450000X-0.350000X0.450000X-0.350000X0.450000X0.350000X0*%
%ADD11RoundRect,0.250000X-0.325000X-0.450000X0.325000X-0.450000X0.325000X0.450000X-0.325000X0.450000X0*%
%ADD12RoundRect,0.250000X-0.337500X-0.475000X0.337500X-0.475000X0.337500X0.475000X-0.337500X0.475000X0*%
%ADD13RoundRect,0.250000X0.450000X-0.350000X0.450000X0.350000X-0.450000X0.350000X-0.450000X-0.350000X0*%
%ADD14RoundRect,0.250000X-0.475000X0.337500X-0.475000X-0.337500X0.475000X-0.337500X0.475000X0.337500X0*%
%ADD15RoundRect,0.250000X0.325000X0.450000X-0.325000X0.450000X-0.325000X-0.450000X0.325000X-0.450000X0*%
%ADD16R,0.400000X1.350000*%
%ADD17R,1.500000X1.900000*%
%ADD18R,1.200000X0.400000*%
%ADD19RoundRect,0.250000X0.337500X0.475000X-0.337500X0.475000X-0.337500X-0.475000X0.337500X-0.475000X0*%
%ADD20RoundRect,0.250000X0.275000X-0.400000X0.275000X0.400000X-0.275000X0.400000X-0.275000X-0.400000X0*%
%ADD21RoundRect,0.250000X0.475000X-0.337500X0.475000X0.337500X-0.475000X0.337500X-0.475000X-0.337500X0*%
G04 APERTURE END LIST*
D10*
%TO.C,R103*%
X142401700Y-122342400D03*
X142401700Y-124342400D03*
%TD*%
D11*
%TO.C,D101*%
X140487700Y-129895600D03*
X142537700Y-129895600D03*
%TD*%
D10*
%TO.C,R104*%
X146948300Y-122342400D03*
X146948300Y-124342400D03*
%TD*%
D12*
%TO.C,C106*%
X143679500Y-108077000D03*
X145754500Y-108077000D03*
%TD*%
D13*
%TO.C,R101*%
X142392400Y-120583200D03*
X142392400Y-118583200D03*
%TD*%
D14*
%TO.C,FB101*%
X145551300Y-102285800D03*
X145551300Y-104360800D03*
%TD*%
%TO.C,C101*%
X147557900Y-102289700D03*
X147557900Y-104364700D03*
%TD*%
D15*
%TO.C,D102*%
X148878700Y-129895600D03*
X146828700Y-129895600D03*
%TD*%
D16*
%TO.C,J101*%
X145941500Y-100355400D03*
X145291500Y-100355400D03*
X144641500Y-100355400D03*
X143991500Y-100355400D03*
X143341500Y-100355400D03*
D17*
X145641500Y-97655400D03*
X143641500Y-97655400D03*
%TD*%
D18*
%TO.C,U101*%
X142098400Y-111259700D03*
X142098400Y-111894700D03*
X142098400Y-112529700D03*
X142098400Y-113164700D03*
X142098400Y-113799700D03*
X142098400Y-114434700D03*
X142098400Y-115069700D03*
X142098400Y-115704700D03*
X147298400Y-115704700D03*
X147298400Y-115069700D03*
X147298400Y-114434700D03*
X147298400Y-113799700D03*
X147298400Y-113164700D03*
X147298400Y-112529700D03*
X147298400Y-111894700D03*
X147298400Y-111259700D03*
%TD*%
D13*
%TO.C,R102*%
X146964400Y-120583200D03*
X146964400Y-118583200D03*
%TD*%
D12*
%TO.C,C105*%
X148802500Y-121386600D03*
X150877500Y-121386600D03*
%TD*%
D19*
%TO.C,C104*%
X140543600Y-121386600D03*
X138468600Y-121386600D03*
%TD*%
D20*
%TO.C,C102*%
X143646300Y-104286600D03*
X143646300Y-102336600D03*
%TD*%
D21*
%TO.C,C103*%
X141741300Y-104364700D03*
X141741300Y-102289700D03*
%TD*%
M02*
